<svg xmlns="http://www.w3.org/2000/svg" xmlns:xlink="http://www.w3.org/1999/xlink" viewBox="0 0 800 480">
  <defs>
    <radialGradient xlink:href="#a" id="b" cx="21.8" cy="104.8" r="17.7" fx="21.8" fy="104.8" gradientTransform="matrix(3.78 0 0 2.08 0 185)" gradientUnits="userSpaceOnUse"/>
    <radialGradient xlink:href="#a" id="c" cx="25" cy="68.7" r="26.2" fx="25" fy="68.7" gradientTransform="matrix(3.78 0 0 2.05 0 119)" gradientUnits="userSpaceOnUse"/>
    <radialGradient xlink:href="#a" id="d" cx="66.1" cy="92.7" r="18.7" fx="66.1" fy="92.7" gradientTransform="matrix(3.78 0 0 2.31 0 143)" gradientUnits="userSpaceOnUse"/>
    <radialGradient xlink:href="#a" id="e" cx="56.5" cy="31.5" r="20.7" fx="56.5" fy="31.5" gradientTransform="matrix(3.78 0 0 2.23 0 53)" gradientUnits="userSpaceOnUse"/>
    <radialGradient xlink:href="#a" id="f" cx="15" cy="10.6" r="24.3" fx="15" fy="10.6" gradientTransform="matrix(3.78 0 0 2.02 0 20)" gradientUnits="userSpaceOnUse"/>
    <radialGradient xlink:href="#a" id="g" cx="81.1" cy="-3.6" r="12.3" fx="81.1" fy="-3.6" gradientTransform="matrix(3.78 0 0 2.02 0 1)" gradientUnits="userSpaceOnUse"/>
    <radialGradient xlink:href="#a" id="h" cx="152" cy="-1.9" r="15" fx="152" fy="-1.9" gradientTransform="matrix(3.78 0 0 1.57 0 -4)" gradientUnits="userSpaceOnUse"/>
    <radialGradient xlink:href="#a" id="i" cx="210.8" cy="1.3" r="6.7" fx="210.8" fy="1.3" gradientTransform="matrix(3.78 0 0 3 0 1)" gradientUnits="userSpaceOnUse"/>
    <radialGradient xlink:href="#a" id="j" cx="211.8" cy="65" r="2.6" fx="211.8" fy="65" gradientTransform="matrix(3.78 0 0 8.82 0 -328)" gradientUnits="userSpaceOnUse"/>
    <radialGradient xlink:href="#a" id="k" cx="209.6" cy="124.7" r="7.8" fx="209.6" fy="124.7" gradientTransform="matrix(3.78 0 0 3.56 0 27)" gradientUnits="userSpaceOnUse"/>
    <radialGradient xlink:href="#a" id="l" cx="36.2" cy="128.1" r="12.9" fx="36.2" fy="128.1" gradientTransform="matrix(3.78 0 0 1.64 0 274)" gradientUnits="userSpaceOnUse"/>
    <radialGradient xlink:href="#a" id="m" cx="81.7" cy="127.2" r="16.5" fx="81.7" fy="127.2" gradientTransform="matrix(3.78 0 0 1.68 0 267)" gradientUnits="userSpaceOnUse"/>
    <radialGradient xlink:href="#a" id="n" cx="148" cy="121" r="19.2" fx="148" fy="121" gradientTransform="matrix(3.78 0 0 1.47 0 301)" gradientUnits="userSpaceOnUse"/>
    <linearGradient id="a">
      <stop offset="0" stop-color="#c5ddeb"/>
      <stop offset="1" stop-color="#7fb4d3"/>
    </linearGradient>
  </defs>
  <path fill="#4b98c0" d="M0 0h800v480H0Z"/>
  <g stroke="#418dbf" stroke-width="4">
    <path fill="url(#b)" d="M61 384c26-15 52-5 54 16 17 5 24 48-26 35-11 13-24 17-49 2-22 14-63-8-30-38 2-29 34-22 51-15Z"/>
    <path fill="url(#c)" d="M81 295c-19 13-64-1-41-27 0-20 10-28 23-31 3-30 52-40 74-16 17-23 54-6 61 13 22-1 48 26 10 45-2 15-26 40-63 19-8 8-41 27-64-3z"/>
    <path fill="url(#d)" d="M224 346c9-9 16-11 33-9 10-16 37-7 43-2 13-5 32 2 23 24 5 2 15 18-2 25 1 6-3 21-25 15-1 5-16 23-47-1-34 14-36-9-34-17-31 2-31-40 9-35z"/>
    <path fill="url(#e)" d="M220 160c9 11 32 23 54-1 29 10 41-9 35-30 12-15 4-43-31-33-10-13-29-17-48-2-18-17-50-7-46 9-33 4-27 45 0 46-2 15 24 21 36 11z"/>
    <path fill="url(#f)" d="M5 46C-5 30 6 7 43 14c6-15 40-27 58-7 22-12 66-6 55 24 44 9 17 55-31 43-7 19-55 26-76 3-24 10-68-1-44-31Z"/>
    <path fill="url(#g)" d="M328-14c14-5 47 22 0 25-1 22-51 17-53-3-18 4-13-32 2-21 9-8 40-10 51-1z"/>
    <path fill="url(#h)" d="M549-16c-44-1-33 32-4 23 10 8 36 12 51-1 29 12 53-19 9-23-15-16-43-15-56 1z"/>
    <path fill="url(#i)" d="M791 9c7 31 40 4 25-8 0-13-8-17-20-11-12-12-41 18-5 19Z"/>
    <path fill="url(#j)" d="M800 227c13-13 9 44 1 40-8-5-13-28-1-40z"/>
    <path fill="url(#k)" d="M790 492c-32 6-34-26-5-26 22-43 29-6 30 4 17 39-16 26-25 22z"/>
    <path fill="url(#l)" d="M114 474c-38-6-26 27 0 20 8 8 38 13 45 6 37 9 28-36-1-25-16-17-36-8-44-1z"/>
    <path fill="url(#m)" d="M278 499c10 10 46 10 56 0 46 3 48-46 2-30a38 38 0 0 0-58-2c-33-17-46 39 0 32z"/>
    <path fill="url(#n)" d="M558 477c24-15 50-14 64-3 37-6 37 28 2 31-11 12-57 24-72-2-72 3-44-47 6-26z"/>
  </g>
</svg>
