<svg xmlns="http://www.w3.org/2000/svg" xmlns:xlink="http://www.w3.org/1999/xlink" xml:space="preserve" viewBox="0 0 280 80">
  <defs>
    <linearGradient id="j">
      <stop offset=".366" stop-color="#ff41b7" stop-opacity=".05"/>
      <stop offset=".956" stop-color="red"/>
    </linearGradient>
    <linearGradient id="i">
      <stop offset="0" stop-color="#b6929d"/>
      <stop offset="1" stop-color="#7e866e"/>
    </linearGradient>
    <linearGradient id="g">
      <stop offset="0" stop-color="#7d0082" stop-opacity=".941"/>
      <stop offset="1" stop-color="#c17d11" stop-opacity="0"/>
    </linearGradient>
    <linearGradient id="e">
      <stop offset="0" stop-color="#0bf100" stop-opacity=".886"/>
      <stop offset="1" stop-color="#c17d11" stop-opacity="0"/>
    </linearGradient>
    <linearGradient id="d">
      <stop offset="0" stop-color="#008803" stop-opacity=".89"/>
      <stop offset="1" stop-color="#c17d11" stop-opacity="0"/>
    </linearGradient>
    <linearGradient id="f">
      <stop offset="0" stop-color="#e1e106" stop-opacity=".941"/>
      <stop offset="1" stop-color="#c17d11" stop-opacity="0"/>
    </linearGradient>
    <linearGradient id="h">
      <stop offset="0" stop-color="#ef5c1a" stop-opacity=".914"/>
      <stop offset="1" stop-color="#c17d11" stop-opacity="0"/>
    </linearGradient>
    <linearGradient id="c">
      <stop offset=".273" stop-color="#fff" stop-opacity=".05"/>
      <stop offset="1" stop-color="#fff"/>
    </linearGradient>
    <linearGradient id="m">
      <stop offset=".431" stop-opacity="0"/>
      <stop offset=".585" stop-opacity=".3"/>
    </linearGradient>
    <linearGradient id="l">
      <stop offset=".493" stop-color="#fff" stop-opacity=".05"/>
      <stop offset=".658" stop-color="#fff"/>
    </linearGradient>
    <linearGradient id="b">
      <stop offset="0" stop-color="#0306fa" stop-opacity=".992"/>
      <stop offset=".155" stop-color="#81007d" stop-opacity=".984"/>
      <stop offset=".329" stop-color="#ff6a0c" stop-opacity=".949"/>
      <stop offset=".503" stop-color="#e1e306" stop-opacity=".984"/>
      <stop offset=".687" stop-color="#08f200" stop-opacity=".925"/>
      <stop offset=".825" stop-color="#008304" stop-opacity=".929"/>
      <stop offset=".968" stop-color="#b5f0ff" stop-opacity=".929"/>
    </linearGradient>
    <linearGradient id="k">
      <stop offset="0" stop-color="#f0eec3" stop-opacity="0"/>
      <stop offset="1" stop-color="#f0eec3"/>
    </linearGradient>
    <linearGradient id="a">
      <stop offset="0"/>
      <stop offset=".8" stop-color="#646464"/>
    </linearGradient>
    <linearGradient xlink:href="#a" id="z" x1="116.349" x2="108.286" y1="5.703" y2="3.524" gradientTransform="matrix(1.037 0 0 1.187 12.465 44.486)" gradientUnits="userSpaceOnUse"/>
    <linearGradient xlink:href="#b" id="B" x1="6.601" x2="36.237" y1="45.115" y2="71.71" gradientUnits="userSpaceOnUse"/>
    <linearGradient xlink:href="#c" id="q" x1="14.777" x2="45.06" y1="25.187" y2="-2.558" gradientUnits="userSpaceOnUse"/>
    <linearGradient xlink:href="#d" id="s" x1="8474.9" x2="8474.9" y1="-768.32" y2="-668.58" gradientTransform="matrix(.043 0 0 .076 -269.084 104.25)" gradientUnits="userSpaceOnUse"/>
    <linearGradient xlink:href="#e" id="u" x1="8474.9" x2="8474.9" y1="-768.32" y2="-668.58" gradientTransform="matrix(-.043 0 0 .076 458.993 103.598)" gradientUnits="userSpaceOnUse"/>
    <linearGradient xlink:href="#f" id="v" x1="8474.9" x2="8474.9" y1="-768.32" y2="-668.58" gradientTransform="matrix(.06 0 0 .076 -403.09 104.012)" gradientUnits="userSpaceOnUse"/>
    <linearGradient xlink:href="#g" id="w" x1="8474.9" x2="8474.9" y1="-768.32" y2="-668.58" gradientTransform="matrix(.06 0 0 .076 -398.356 104.061)" gradientUnits="userSpaceOnUse"/>
    <linearGradient xlink:href="#h" id="x" x1="8474.9" x2="8474.9" y1="-768.32" y2="-668.58" gradientTransform="matrix(-.06 0 0 .076 603.187 103.78)" gradientUnits="userSpaceOnUse"/>
    <linearGradient xlink:href="#i" id="t" x1="989.599" x2="1009.868" y1="995.889" y2="995.889" gradientTransform="matrix(.903 0 0 .903 -803.664 -839.725)" gradientUnits="userSpaceOnUse"/>
    <linearGradient xlink:href="#j" id="r" x1="99.163" x2="98.582" y1="80.059" y2="40.026" gradientUnits="userSpaceOnUse"/>
    <radialGradient xlink:href="#a" id="y" cx="100.586" cy="63.626" r="16" fx="100.586" fy="63.626" gradientTransform="matrix(.448 1.778 -4.145 1.045 361.321 -180.456)" gradientUnits="userSpaceOnUse"/>
    <radialGradient xlink:href="#k" id="A" cx="107.408" cy="47.4" r="6.485" fx="107.408" fy="47.4" gradientTransform="matrix(1 0 0 .83 39.032 9.364)" gradientUnits="userSpaceOnUse"/>
    <radialGradient xlink:href="#l" id="o" cx="15.207" cy="18.726" r="20" fx="15.207" fy="18.726" gradientTransform="matrix(.41 2.227 -4.272 .785 94.049 -37.085)" gradientUnits="userSpaceOnUse"/>
    <radialGradient xlink:href="#m" id="n" cx="19.146" cy="16.919" r="20" fx="19.146" fy="16.919" gradientTransform="matrix(1.502 .021 -.021 1.518 -9.774 -9.14)" gradientUnits="userSpaceOnUse"/>
    <radialGradient xlink:href="#l" id="p" cx="4.137" cy="20.791" r="20" fx="4.137" fy="20.791" gradientTransform="matrix(-1.563 -1.55 3.059 -3.084 -32.497 96.463)" gradientUnits="userSpaceOnUse"/>
    <radialGradient xlink:href="#l" id="y1" cx="2" cy="20" r="20" fx="4" fy="20" gradientTransform="matrix(2 -1 1 2 120 32)" gradientUnits="userSpaceOnUse"/>
  </defs>
  <g id="ballsColored">
    <circle cx="20"  cy="20" r="19.5" fill="#b42121" stroke="#901a1a"/>
    <circle cx="60"  cy="20" r="19.5" fill="#daa520" stroke="#a67e18"/>
    <circle cx="100" cy="20" r="19.5" fill="#308014" stroke="#266410"/>
    <circle cx="140" cy="20" r="19.5" fill="#27408b" stroke="#1f326d"/>
    <circle cx="180" cy="20" r="19.5" fill="#fafad2" stroke="#bfbfa0"/>
    <circle cx="220" cy="20" r="19.5" fill="#31c3cf" stroke="#279da6"/>
    <circle cx="260" cy="20" r="19.5" fill="#6c5353" stroke="#574343"/>
  </g>
  <circle id="ballJoker" cx="20" cy="60" r="20" fill="url(#B)"/>
  <g id="ballPaint" transform="rotate(225 100 60)">
    <circle cx="100" cy="60" r="20" fill="url(#r)"/>
    <path fill="#c90000" stroke="#000" stroke-miterlimit="3.3" stroke-width=".3" d="M98.549 41.529c.039.34.1.646.168.926.022.008.044.012.064.018.046-.16.087-.328.118-.506.384.246.788.477 1.2.699h.01c.482-.255.959-.52 1.404-.806.026.14.056.275.09.405.267-.075.53-.15.791-.228a.895.895 0 0 0 .022-.1c.42.064.874.525 1.41.81.414-.223.82-.454 1.204-.701.039.22.09.426.15.62.084-.315.152-.664.197-1.058.222.221.457.43.695.63.233-.132.552-.297.773-.439.09.507.149.965.333 1.347 1.15.946.928 1.933.928 3.644v5.682c-.144.286-.143.662-.401.95 0 0-.01 0-.01.008l-.021.024c-.424.544.086.931-.738 1.03a7.4 7.4 0 0 1-1.217.21 7.943 7.943 0 0 1-1.053.13 8.08 8.08 0 0 1-1.421.124c-.27 0-.512-.013-.73-.037a34.57 34.57 0 0 1-4.483-.088 32.512 32.512 0 0 1-2.185-.129 30.718 30.718 0 0 1-2.532-.21c-1.712-.099-.652-.486-1.532-1.03l-.044-.024s-.009 0-.009-.007c-.536-.29-.538-.665-.838-.951V46.79c0-1.71-.984-3.396 1.404-4.342.384-.381 1.224-.115 1.41-.621.46.142.935.279 1.419.412a25.9 25.9 0 0 0 1.44-.631c.086.365.217.69.375.988.094-.258.171-.538.226-.846.221.142.45.279.684.412.238-.202.469-.41.69-.631z"/>
    <path fill="#e9e8e8" stroke="#000" stroke-miterlimit="3.3" stroke-width=".3" d="M100.274 42.51c-.04.341-.1.646-.169.927-.021.007-.043.011-.065.018a5.227 5.227 0 0 1-.118-.506 18.22 18.22 0 0 1-1.2.699h-.01c-.481-.256-.958-.52-1.404-.807a5.14 5.14 0 0 1-.09.406c-.267-.075-.53-.15-.79-.228a1.316 1.316 0 0 1-.022-.1c-.42.064-.874.525-1.41.81a18.185 18.185 0 0 1-1.204-.701c-.039.22-.09.426-.15.62a7.31 7.31 0 0 1-.197-1.059c-.223.222-.457.43-.695.631-.233-.133-.552-.297-.773-.439-.09.506-.15.965-.334 1.347-1.149.946-.927 1.933-.927 3.644v5.681c.144.287.143.663.401.951v.008c.01.008.015.016.022.024.423.544-.086.93.737 1.03a7.4 7.4 0 0 0 1.218.21c.333.064.687.109 1.053.13.446.08.921.124 1.421.124.27 0 .512-.013.73-.037a34.545 34.545 0 0 0 4.483-.088c.762-.02 1.494-.064 2.185-.129a31.56 31.56 0 0 0 2.532-.21c1.712-.1.652-.486 1.532-1.03l.043-.024c.009 0 .009 0 .009-.008.536-.288.538-.664.838-.95v-5.682c0-1.711.984-3.396-1.404-4.342-.384-.381-1.224-.115-1.41-.622-.46.143-.935.28-1.419.412a26.44 26.44 0 0 1-1.44-.63 4.105 4.105 0 0 1-.375.988 5.038 5.038 0 0 1-.226-.846c-.221.142-.45.279-.684.412-.238-.202-.469-.41-.69-.631z"/>
    <path fill="url(#s)" d="M91.546 51.312c-.155-1.402.276-3.115.057-4.259.044-.745-.047-1.309.102-2.024.142-.176.055 1.006.333.567.057-.208.074-.964.224-.423.01.27.166 1.024.262.393 0-.232.144-.823.253-.332-.013.515.444.832.501.192.032-.327.266-.587.33-.143.1-.22.307-.542.35-.053.11.41.132 1.04.459 1.148.344-.207.076-1.05.195-1.505.21-.221.225.935.496.596.045-.265.176-1.101.326-.487.061.6.542.396.472-.15-.088-.53.138.336.289-.065.158-.15.188-.864.327-.361.853.405.794.906.775 1.823-.025.72-.077 5.97-.009 6.684.146.544-.144.205-.538.4-.341.072-.685-.047-1.027.025-.73.014-1.472-.071-2.19.184-.701-.035-1.426.201-2.104-.182-.153-.603.075-1.414.114-2.029z"/>
    <path fill="url(#t)" stroke="#000" stroke-width=".3" d="m106.418 63.435-14.627-.066-1.435-9.967h17.897Z"/>
    <path fill="url(#u)" d="M98.365 50.66c.155-1.4-.276-3.114-.057-4.258-.044-.745.047-1.309-.102-2.024-.142-.176-.055 1.007-.333.567-.057-.207-.073-.964-.224-.423-.01.27-.166 1.025-.262.394 0-.233-.143-.824-.253-.333.013.515-.444.832-.5.193-.033-.327-.266-.588-.33-.144-.1-.22-.308-.542-.351-.053-.11.41-.132 1.04-.459 1.148-.344-.206-.076-1.05-.195-1.505-.21-.221-.225.936-.496.596-.044-.265-.175-1.101-.326-.486-.061.599-.541.395-.472-.151.089-.53-.138.336-.289-.065-.158-.15-.188-.864-.326-.361-.854.405-.794.906-.776 1.823.025.721.077 5.97.01 6.684-.147.544.143.205.537.4.341.073.686-.046 1.028.025.73.015 1.47-.07 2.19.184.7-.035 1.425.201 2.104-.182.152-.602-.076-1.414-.115-2.028z"/>
    <path fill="url(#v)" d="M94.484 51.08c-.214-1.402.381-3.115.079-4.26.06-.744-.065-1.308.14-2.024.197-.175.077 1.007.46.568.078-.208.102-.964.31-.423.009.27.229 1.024.361.393 0-.232.198-.823.349-.332-.018.515.612.831.691.192.043-.327.366-.587.455-.143.137-.22.424-.542.484-.053.151.41.181 1.04.632 1.148.475-.207.105-1.05.27-1.505.29-.221.31.935.684.596.062-.266.242-1.102.45-.487.084.6.747.396.65-.15-.121-.53.191.336.4-.066.217-.149.26-.863.45-.36 1.178.405 1.096.906 1.07 1.822-.034.722-.106 5.97-.01 6.685.202.544-.198.205-.741.4-.471.072-.946-.046-1.418.025-1.008.014-2.03-.071-3.022.184-.967-.035-1.966.201-2.903-.182-.21-.603.104-1.414.158-2.029z"/>
    <path fill="url(#w)" d="M99.218 51.126c-.214-1.402.382-3.115.08-4.259.06-.745-.066-1.309.14-2.024.196-.176.076 1.007.46.567.079-.207.101-.964.309-.423.009.27.229 1.025.361.394 0-.233.198-.824.349-.333-.017.515.612.832.691.193.044-.327.367-.588.455-.144.137-.22.424-.542.484-.053.151.41.182 1.04.633 1.148.475-.206.105-1.05.269-1.505.29-.221.31.936.685.596.061-.265.241-1.101.449-.486.085.599.747.395.651-.151-.122-.53.19.336.399-.065.218-.15.26-.864.45-.361 1.178.405 1.096.906 1.07 1.823-.034.721-.106 5.97-.009 6.685.202.543-.198.204-.741.4-.471.072-.947-.047-1.419.024-1.007.015-2.03-.07-3.022.184-.966-.034-1.966.201-2.902-.182-.21-.602.104-1.413.157-2.028z"/>
    <path fill="url(#x)" d="M105.606 50.847c.214-1.402-.382-3.115-.079-4.259-.06-.745.065-1.309-.14-2.024-.197-.176-.077 1.007-.46.567-.08-.207-.102-.964-.31-.423-.009.27-.229 1.024-.361.394 0-.233-.198-.824-.349-.333.018.515-.612.832-.691.193-.044-.327-.367-.588-.455-.144-.137-.22-.424-.542-.484-.053-.151.41-.182 1.04-.632 1.148-.476-.206-.106-1.05-.27-1.505-.29-.221-.31.936-.684.596-.062-.265-.242-1.101-.45-.487-.084.6-.747.396-.651-.15.122-.53-.19.336-.398-.065-.219-.15-.26-.864-.452-.361-1.177.405-1.095.906-1.07 1.823.035.72.107 5.97.01 6.684-.202.544.199.205.742.4.47.073.946-.046 1.418.025 1.008.015 2.03-.07 3.022.184.966-.035 1.966.201 2.902-.182.21-.602-.104-1.413-.157-2.028z"/>
    <path fill="#8f5902" stroke="#000" stroke-width=".3" d="M91.791 63.37c-.366-.01 3.722 3.083 4.072 6.161.572 5.026-2.049 10.372 2.758 10.56 5.617.22 3.014-6.74 3.328-10.548.335-2.46 4.834-6.1 4.469-6.108zm7.138 9.652c1.095.025 1.969 1.363 1.952 2.99-.016 1.626-.916 2.926-2.011 2.902-1.095-.024-1.969-1.364-1.952-2.991.016-1.627.917-2.925 2.011-2.9z"/>
    <rect width="16.5" height="1.3" x="91" y="55" fill="none" stroke="#000" stroke-width=".2" rx=".4" ry=".4"/>
  </g>
  <g id="ballFlush">
    <circle cx="60" cy="60" r="20" fill="#faf01f"/>
    <circle cx="60" cy="60" r="4"/>
    <path fill-rule="evenodd" stroke="#000" stroke-linecap="square" stroke-linejoin="round" stroke-width="2" d="m77.481 58.277-10.716.627c-.483-1.868-1.232-3.118-2.665-4.462l5.988-8.942c3.94 3.562 6.282 7.13 7.393 12.777zM57.53 66.3c2.246.83 4.597 0 4.597 0l5.898 9.103C62.22 77.695 57.805 77.6 52 75.732zM42.6 58.458l10.489.627c.483-1.867 1.233-3.118 2.665-4.462L49.92 45.8c-3.94 3.562-6.208 7.011-7.319 12.658Z"/>
  </g>
  <g id="ballBomb">
    <circle cx="139" cy="61" r="16" fill="url(#y)"/>
    <circle cx="139" cy="61" r="15" fill="url(#y1)"/>
    <ellipse cx="131.5" cy="50.5" fill="url(#z)" rx="3.5" ry="2.5" transform="skewX(11)"/>
    <ellipse cx="132" cy="49.2" fill="#232323" rx="2.5" ry="2" transform="skewX(11)"/>
    <path fill="none" stroke="#825d40" stroke-dasharray="1.25 1.25" stroke-dashoffset="2.5" stroke-linecap="round" stroke-linejoin="round" stroke-width="2.5" d="M142.246 48.6s2.752-8.495 7.686-1.744C154.867 53.608 153 54 153 54"/>
    <path fill="none" stroke="url(#A)" stroke-dasharray="2.4 2.4" stroke-dashoffset="4.2" stroke-linecap="round" stroke-linejoin="round" stroke-width="2" d="M142.246 48.6s2.75-8.495 7.684-1.744C154.863 53.608 153 54.5 153 54.5"/>
    <path fill="#ffff97" stroke="#ff7c2e" stroke-linecap="square" stroke-width=".5" d="m161.286 54.249-5.684 1.927.19 6-3.59-4.811-5.646 2.035 3.466-4.9-3.68-4.742 5.731 1.782 3.372-4.965.077 6.001z"/>
    <path fill="#ff4770" stroke="#ffe910" stroke-linecap="square" stroke-width=".5" d="m158.35 56.753-3.918-.56-1.972 3.785-.678-3.899-4.21-.706 3.499-1.85-.63-4.221 2.84 2.756 3.821-1.904-1.743 3.553z"/>
  </g>
  <g id="ballGlass" transform="translate(240, 40)">
    <circle cx="20" cy="20" r="20" fill="url(#n)"/>
    <circle cx="20" cy="20" r="19" fill="url(#o)"/>
    <circle cx="20" cy="20" r="19" fill="url(#p)"/>
    <path fill="url(#q)" d="M20.427 6.142c4.488.569 8.255 4.75 8.255 4.75s1.972-3.179 4.768-3.995c-2.906-3.58-8.636-5.251-8.636-5.251s-3.567 1.887-4.387 4.496zm9.445 5.968c2.045 1.692 3.238 7.035 3.238 7.035s3.165-1.491 5.251-2.488c-.473-5.45-3.896-8.912-3.896-8.912s-3.974 1.452-4.593 4.365zm-1.231.851s-3.177 2.141-5.047 4.22c2.638 2.492 2.823 7.174 2.823 7.174s3.255-3.414 5.349-4.645c.066-2.338-3.125-6.749-3.125-6.749zM27.548 11.9s-3.51 3.054-4.898 4.399C20.904 14.46 17.7 13.6 17.7 13.6s.37-2.955 2.201-6.383c3.058.215 7.647 4.681 7.647 4.681z"/>
  </g>
</svg>
