<svg xmlns="http://www.w3.org/2000/svg" xmlns:xlink="http://www.w3.org/1999/xlink" viewBox="0 0 896 86">
<!-- font: 28px Manaspace -->
  <defs>
    <linearGradient id="a">
      <stop stop-color="#ffc100" offset="0"/>
      <stop stop-color="#6a543b" offset="1"/>
    </linearGradient>
    <linearGradient xlink:href="#a" id="g1" x1="0" x2="0" y1="0" y2="28" gradientUnits="userSpaceOnUse"/>
    <linearGradient xlink:href="#a" id="g2" x1="0" x2="0" y1="28" y2="56" gradientUnits="userSpaceOnUse"/>
    <linearGradient xlink:href="#a" id="g3" x1="0" x2="0" y1="56" y2="84" gradientUnits="userSpaceOnUse"/>
    <pattern id="v" fill="black" width="2" height="2" patternTransform="matrix(28 0 0 28 0 0)" patternUnits="userSpaceOnUse">
      <path d="M0 0h1v11H0z"/>
    </pattern>
    <pattern id="h" fill="gray" xlink:href="#v" patternTransform="matrix(0 28 -28 0 0 0)"/>
  </defs>
  <g fill="black">
    <rect fill-opacity=".3" width="100%" height="100%" fill="url(#v)" display="none"/>
    <rect fill-opacity=".3" width="100%" height="100%" fill="url(#h)" display="none"/>
    <path transform="translate(1.5 1.5)" d="M9.18 0v2.34H6.84V14h4.66V9.34h2.34V0Zm23.4 0v4.66h2.34V7h2.34V0Zm2.34 7h-2.34v2.34h2.34zm4.66-7v4.66h2.34V7h2.34V0Zm2.34 7h-2.34v2.34h2.34zm18.66-7v4.66h-2.32V7h2.32v7h-2.32v2.34h2.32V21h4.68v-4.66h2.32V21h2.34v-4.66h2.34V14h-2.34V7h2.34V4.66h-2.34V0h-2.34v4.66h-2.32V0Zm32.68 0v2.34h-4.68v2.32h-2.32v4.68h2.32v2.32h4.68v4.68h-2.34V14h-4.66v2.34h2.32v2.32h4.68V21h2.32v-2.34h2.34v-2.32h-2.34v-4.68h2.34V9.34h-2.34V4.66h2.34V2.34h-2.34V0Zm4.66 4.66V7h2.34V4.66Zm0 7v4.68h2.34v-4.68ZM116.58 0v2.34h2.34V0Zm2.34 2.34V7h2.34v2.34h-2.34V14h-2.34v2.34h-2.32V21h2.32v-2.34h2.34v-2.32h2.34v2.32h2.32V14h-2.32v-2.34h2.32V7h2.34V4.66h2.34V0h-2.34v2.34h-2.34v2.32h-2.32V2.34Zm4.66 9.32V14h2.34v-2.19Zm2.34 2.34v4.66h2.34V14Zm0 4.66h-2.34V21h2.34zm-7-9.32V7h-2.34v2.19ZM116.58 7V2.34h-2.32V7Zm56.17-7v4.66h2.34V7h2.34V0Zm2.34 7h-2.34v2.34h2.34zm30.34-7v2.34h-2.34v16.32h2.34V21h4.66v-2.34h-2.34V2.34h2.34V0Zm21.16 0v2.34h2.34v16.32h-2.34V21h4.68v-2.34h2.32V2.34h-2.32V0Zm27.84 0v4.66h2.32V0Zm2.32 4.66v4.68h2.34v2.32h-2.34v4.68h2.34V14h2.34v2.34h2.32v-4.68h-2.32V9.34h2.32V4.66h-2.32V7h-2.34V4.66Zm7 0h2.34V0h-2.34zm0 11.68V21h2.34v-4.66zm-7 0h-2.32V21h2.32zM424.58 0v2.34h-2.32v16.32h2.32V21h9.34v-2.34h2.34V2.4l-2.34-.05V0Zm30.51 0v2.34h-2.34v2.32h2.34v14h-2.34V21h9.34v-2.34h-2.34V0Zm25.5 0v2.34h-2.33v7h4.66v-7h4.66v9.32h-2.32V14h-2.34v2.34h-2.34v2.32h-2.32V21h14v-2.34h-7v-2.32h2.32V14h2.34v-2.34h2.34V2.34h-2.34V0Zm28 0v2.34h-2.33V7h4.66V2.34h4.66v7h-2.32v2.32h2.32v7h-4.66V14h-4.66v4.66h2.32V21h9.34v-2.34h2.34v-7h-2.34V9.34h2.34v-7h-2.34V0Zm28 0v4.66h-2.33V14h7v7h4.66v-7h2.34v-2.34h-2.34V2.34h-2.34v2.32h-2.32v7h-2.34v-7h2.34V0Zm25.67 0v11.66h4.66V9.34h4.66v9.32h-4.66v-2.32h-4.66v2.32h2.32V21h9.34v-2.34h2.34V9.47l-2.34-.13V7h-7V2.34h9.34V0Zm30.32 0v2.34h-2.32v16.32h2.32V21h9.34v-2.34h2.34v-7h-2.34V9.34h-7v-7h4.66V7h4.68V2.34h-2.34V0Zm25.68 0v7h4.66V2.34h4.66V7h-2.32v7h-2.34v7h4.66v-7h2.34V7h2.34V0Zm30.32 0v2.34h-2.32v7h2.32v2.32h-2.32v7h2.32V21h9.34v-2.34h2.34v-7h-2.34V9.34h2.34v-7h-2.34V0Zm28 0v2.34h-2.32v7h2.32v2.32h7v7h-4.66V14h-4.66v4.66h2.32V21h9.34v-2.34h2.34V2.34h-2.34V0Zm168 0v2.34h-2.32V7h4.66V2.34h4.66v7h-2.32v2.32h-2.34v4.68h4.66v-4.68h2.34V9.34h2.34v-7h-2.34V0ZM146.92 2.34v2.32h2.34v4.68h-2.34v2.32h-2.34V14h-2.32v4.66h2.32V21h4.68v-2.34h-2.34V14h2.34v4.66h4.66V21h2.34v-4.66h-2.34V14h-2.34V9.34h2.34V4.66h-2.34V2.34Zm7 11.66h2.34v-2.34h-2.34zm-7-4.66V4.66h-2.34v4.68zm254.5-7V7h-2.33v4.66h-2.34v4.68h-2.32V21h4.66v-4.66h2.34v-4.68h2.32V7h2.34V2.34Zm25.5 0h4.66v16.32h-4.66zm224 0h4.66v7h-4.66zm28 0h4.66v7h-4.66zm28.17 0V7h4.66V2.34Zm25.5 0V7h4.67V2.34Zm140 0v2.32h7V2.34Zm7 2.32V7h2.33V4.66ZM881.91 7v11.66h2.34V7Zm0 11.66h-2.34V21h2.34zm-2.34 0V9.34h-2.32v9.32zm-2.32 0h-2.34V9.34h-2.34v2.32h-2.32v7h2.32V21h4.68zm-2.34-9.32h2.34V7h-2.34zm-2.34-4.68h-2.32V7h2.32zm-781.66 0h2.34v4.68h-2.34zm196 0v4.68h-4.66v2.32h4.66v4.68h4.66v-4.68h4.68V9.34h-4.68V4.66ZM65.26 7h2.32v7h-2.32Zm697.5 0v2.34h-2.35v2.32h-2.32v4.68h2.32v2.32h2.34V21h2.34v-4.66h7v-4.68h-7V7Zm23.33 0v2.34h14V7Zm35.17 0v4.66h-7v4.68h7V21h2.32v-2.34h2.34v-2.32h2.34v-4.68h-2.34V9.34h-2.34V7Zm-483 2.34v2.32h14V9.34Zm256.66 2.32h4.66v7h-4.66zm56 0h4.66v7h-4.66zm135.17 0V14h14v-2.34Zm-79 2.34v4.66h4.66V14Zm25.5 0v4.66h2.35V21h2.32v-7zm2.35 7h-2.34v2.34h2.34zM6.84 16.34V21h4.66v-4.66zm303.59 0V21h2.32v2.34h2.34v-7zm2.32 7h-2.32v2.32h2.32zm53.68-7V21h4.66v-4.66zm480.5 2.32V21h4.65v-2.34zM4.53 28v2.34H2.21V49h4.66v-9.34h7V49h2.34V30.34h-2.34v7h-7v-7h7V28Zm25.76 0v21h11.66v-2.34h-7v-7h7v-2.32h-7v-7h7V28Zm11.66 2.34v7h2.34v-7zm0 9.32v7h2.34v-7zM60.61 28v2.34H58.3v16.32h2.32V49h9.34v-2.34h-7V30.34h7V28Zm9.34 2.34V35h2.34v-4.66zm0 16.32h2.34V42h-2.34ZM86.3 28v21h11.66v-2.34h-7V30.34h7V28Zm11.66 2.34v16.32h2.34V30.34ZM114.3 28v21h14v-2.34h-9.34v-7h7v-2.32h-7v-7h9.34V28Zm28 0v21h4.66v-9.34h7v-2.32h-7v-7h9.34V28Zm30.5 0v2.34h-2.33v16.32h2.32V49h11.68v-9.34h-4.68V42h2.34v4.66h-7V30.34h7V28Zm9.33 2.34V35h2.34v-4.66ZM198.46 28v21h4.66v-9.34h7V49h2.34V28h-2.34v9.34h-7V28Zm30.5 0v21h4.66V28Zm34.82 0v18.66h-7V49h9.34v-2.34h2.34V28Zm-7 18.66V42h-2.32v4.66zM282.3 28v21h4.66v-7h2.34v2.34h2.32v2.32h2.34V49h2.34v-4.66h-2.34V42h-2.34v-2.34h-2.32v-2.32h2.32V35h2.34v-2.34h2.34V28h-2.34v2.34h-2.34v2.32h-2.32V35h-2.34v-7zm28.17 0v21h14v-2.34h-9.34V28Zm27.83 0v21h4.66V37.34h2.34V42h2.32v-4.66h2.34V49h2.34V28h-2.34v4.66h-2.34V35h-2.32v-2.34h-2.34V28Zm28.17 0v21h4.66V37.34h2.34V42h2.32v4.66h2.34V49h2.34V28h-2.34v11.66h-2.34V35h-2.32v-4.66h-2.34V28Zm30.32 0v2.34h-2.32v16.32h2.32V49h9.34v-2.34h-7V30.34h7V28Zm9.34 2.34v16.32h2.34V30.34ZM422.3 28v21h4.66v-7h7v-2.34h-7v-9.32h7V28Zm11.66 2.34v9.32h2.34l-.04-9.36zM452.78 28v2.34h-2.32v16.32h2.32V49h7v-2.34h-4.66V30.34h7V28Zm9.34 2.34V42h2.34V30.34Zm0 11.66h-4.66v2.34h2.32v2.32h2.34V49h2.34v-4.66h-2.34zm16.17-14v21h4.66v-9.34h7v-2.32h-7v-7h7V28Zm11.66 2.34v7h2.34v-7zm0 9.32V49h2.34l-.04-9.4zM508.61 28v2.34h-2.32v7h2.32v2.32h9.34v-2.32h-7v-7h7V28Zm9.34 2.34V35h2.34v-4.66zm0 9.32v7h2.34v-7zm0 7h-7V42h-4.66v4.66h2.32V49h9.34zM534.3 28v2.34h4.66V49h4.66V30.34h4.68V28Zm28 0v18.66h2.32V49h9.34v-2.34h-7V28Zm11.66 18.66h2.34V28h-2.34zM590.3 28v14h2.32v4.66h2.34V49h4.66v-2.34h-2.32V42h-2.34V28Zm9.32 18.66h2.34V42h-2.34zm2.34-4.66h2.34V28h-2.34zm16.34-14v21h4.66v-4.66h2.34V42h2.32v2.34h2.34V49h2.34V28h-2.34v9.34h-2.34V35h-2.32v2.34h-2.34V28Zm28 0v4.66h2.32V35h2.34v4.66h-2.34V42h-2.32v7h4.66v-7h4.66v2.34h2.34V49h2.34v-7h-2.34v-2.34h-2.34V35h2.34v-2.34h2.34V28h-2.34v2.34h-2.34v2.32h-4.66V28Zm28 0v9.34h2.32v2.32h2.34V49h4.66v-9.34h2.34v-2.32h2.34V28h-2.34v7h-2.34v2.34h-4.66V35h-2.34v-7zm28.17 0v2.34h9.32v2.32h-2.32v4.68h-2.34V42h-2.34v2.34h-2.32V49h14v-2.34h-9.34v-2.32h2.34v-4.68h2.32V35h2.34v-2.34h2.34V28Zm30.17 0v21h7v-2.34h-2.34V30.34h2.34V28Zm55.82 0v2.34h2.33v16.32h-2.33V49h7V28Zm-28 2.34V35h2.33v4.66h2.34v4.68h2.33V49h4.67v-4.66h-2.34v-4.68h-2.33V35h-2.33v-4.66Zm58.5 4.66v2.34h-2.34v2.32h-2.32V42h4.66v7h4.66v-7h4.68v-2.34h-2.34v-2.32h-2.34V35Zm56 0v7h-4.66v2.34h2.32v2.32h2.34V49h4.66v-2.34h2.34v-2.32h2.34V42h-4.68v-7ZM842.3 46.66V49h14v-2.34zM30.3 56v21h11.65v-2.34h-7v-9.32h7V63h-7v-7zm11.65 9.34v9.32h2.34v-9.32ZM95.61 56v7h-7v2.34h7v9.32h-7V77h11.68V56Zm-7 18.66v-9.32H86.3v9.32zM149.3 56v2.34h-2.34V63h-4.66v2.34h4.66V77h4.66V65.34h4.68V63h-4.68v-4.66h2.34V56Zm49.17 0v21h4.66V65.34h7V63h-7v-7zm11.66 9.34V77h2.34V65.34ZM228.96 56v4.66h4.66V56Zm30.16 0v4.66h4.66V56Zm23.17 0v21h4.66v-7h2.34v2.34h2.32v2.32h2.34V77h2.34v-4.66h-2.34V70h-2.34v-2.34h2.34v-2.32h2.34V63h-4.68v2.34h-2.32v2.32h-2.34V56Zm32.83 0v21h4.66V56Zm419.85 0v2.34h-2.34v7h-2.34v2.32h2.34v7h2.34V77h4.66v-2.34h-2.34v-7h-2.32v-2.32h2.32v-7h2.34V56Zm27.81 0v9.34h4.67V56Zm25.67 0v2.34h2.33v7h2.34v2.32h-2.34v7h-2.33V77h4.67v-2.34h2.33v-7h2.33v-2.32h-2.33v-7h-2.33V56Zm-249.5 4.66V63h-2.34v2.34h2.34v9.32h2.34V77h4.66v-2.34h-2.34v-9.32h2.34V63h-2.34v-2.34ZM6.87 63v2.34h7V63Zm7 2.34v7h-2.34v2.32h2.34V77h2.34V65.34Zm-2.34 9.32H6.87v-9.32H4.53v2.32H2.21v7h2.32V77h7zM60.61 63v2.34H58.3v9.32h2.32V77H72.3v-2.34h-9.34v-9.32h9.34V63Zm56 0v2.34h-2.32v9.32h2.32V77h9.34v-2.34h-7V70h9.34v-4.66h-2.34v2.32h-7v-2.32h7V63Zm9.34 11.66h2.34v-2.32h-2.34zM172.78 63v2.34h7v9.32h-7V77h7v4.24h-7v2.01h9.34v-2h2.34V63Zm0 18.24v-2.32h-2.32v2.32zm0-6.58v-9.32h-2.32v9.19zM228.96 63v14h4.66V63Zm30.16 0v18.08h-2.34v2.34h4.68v-2.34h2.32V63Zm79.17 0v14h2.32V65.34h2.34V77h2.34V65.34h2.32V77h4.68V65.34h-2.34V63Zm28.17 0v14h4.66V65.34h7V63Zm11.66 2.34V77h2.34V65.34ZM396.78 63v2.34h-2.32v9.32h2.32V77h9.34v-2.34h-7v-9.32h7V63Zm9.34 2.34v9.32h2.34v-9.32ZM422.3 63v20.25h4.66V77h7v-2.34h-7v-9.32h7V63Zm11.66 2.34v9.32h2.34v-9.32ZM452.78 63v2.34h-2.32v9.32h2.32V77h9.34v6.25h2.34V63Zm25.51 0v14h4.66v-9.34h2.34v-2.32h-2.34V63Zm7 2.34h4.66V63h-4.66zM508.61 63v2.34h-2.32v2.32h2.32V70h9.34v-2.34h-7v-2.32h9.34V63Zm9.34 7v4.66h2.34V70Zm0 4.66H506.3V77h11.66zM562.3 63v11.66h2.32V63Zm2.32 11.66V77h7v-2.34zm7 0h2.34V77h2.34V63h-4.68zM590.3 63v9.34h2.32v2.32h2.34V77h4.66v-2.34h-2.32v-2.32h-2.34V63Zm9.32 11.66h2.34v-2.32h-2.34zm2.34-2.32h2.34V63h-2.34zM618.3 63v11.66h2.32V77h4.68v-2.34h2.32V77h2.34v-2.34h2.34V63h-2.34v9.34h-2.34v-7h-2.32v7h-2.34V63Zm28 0v2.34h2.32v2.32h2.34v4.68h-2.34v2.32h-2.32V77h4.66v-2.34h2.34v-2.32h2.32v2.32h2.34V77h2.34v-4.66h-2.34v-4.68h2.34V63h-2.34v2.34h-2.34v2.32h-2.32v-2.32h-2.34V63Zm28 0v11.53l2.32.13V77h9.34v4.66h2.34V63h-2.34v11.66h-7V63Zm11.66 18.08h-9.34v2.34h9.34zM702.45 63v2.34h7v2.32h-2.33v4.68h-2.34v2.32h-2.32V77h14v-2.34h-7v-2.32h2.32v-4.68h2.34v-2.32h2.34V63Zm111.84 0v4.66h2.32v4.68h2.34V77h4.66v-4.66h2.34v-4.68h2.34V63Zm-359.17 2.34h7v9.32h-7zm307.66 2.32V77h4.67v-9.34z"/>
  </g>
  <g fill="#b87b00">
    <path id="c1" fill="url(#g1)" d="M9.18 0v2.34H6.84V14h4.66V9.34h2.34V0Zm23.4 0v4.66h2.34V7h2.34V0Zm2.34 7h-2.34v2.34h2.34zm4.66-7v4.66h2.34V7h2.34V0Zm2.34 7h-2.34v2.34h2.34zm18.66-7v4.66h-2.32V7h2.32v7h-2.32v2.34h2.32V21h4.68v-4.66h2.32V21h2.34v-4.66h2.34V14h-2.34V7h2.34V4.66h-2.34V0h-2.34v4.66h-2.32V0Zm32.68 0v2.34h-4.68v2.32h-2.32v4.68h2.32v2.32h4.68v4.68h-2.34V14h-4.66v2.34h2.32v2.32h4.68V21h2.32v-2.34h2.34v-2.32h-2.34v-4.68h2.34V9.34h-2.34V4.66h2.34V2.34h-2.34V0Zm4.66 4.66V7h2.34V4.66Zm0 7v4.68h2.34v-4.68ZM116.58 0v2.34h2.34V0Zm2.34 2.34V7h2.34v2.34h-2.34V14h-2.34v2.34h-2.32V21h2.32v-2.34h2.34v-2.32h2.34v2.32h2.32V14h-2.32v-2.34h2.32V7h2.34V4.66h2.34V0h-2.34v2.34h-2.34v2.32h-2.32V2.34Zm4.66 9.32V14h2.34v-2.19Zm2.34 2.34v4.66h2.34V14Zm0 4.66h-2.34V21h2.34zm-7-9.32V7h-2.34v2.19ZM116.58 7V2.34h-2.32V7Zm56.17-7v4.66h2.34V7h2.34V0Zm2.34 7h-2.34v2.34h2.34zm30.34-7v2.34h-2.34v16.32h2.34V21h4.66v-2.34h-2.34V2.34h2.34V0Zm21.16 0v2.34h2.34v16.32h-2.34V21h4.68v-2.34h2.32V2.34h-2.32V0Zm27.84 0v4.66h2.32V0Zm2.32 4.66v4.68h2.34v2.32h-2.34v4.68h2.34V14h2.34v2.34h2.32v-4.68h-2.32V9.34h2.32V4.66h-2.32V7h-2.34V4.66Zm7 0h2.34V0h-2.34zm0 11.68V21h2.34v-4.66zm-7 0h-2.32V21h2.32zM424.58 0v2.34h-2.32v16.32h2.32V21h9.34v-2.34h2.34V2.4l-2.34-.05V0Zm30.51 0v2.34h-2.34v2.32h2.34v14h-2.34V21h9.34v-2.34h-2.34V0Zm25.5 0v2.34h-2.33v7h4.66v-7h4.66v9.32h-2.32V14h-2.34v2.34h-2.34v2.32h-2.32V21h14v-2.34h-7v-2.32h2.32V14h2.34v-2.34h2.34V2.34h-2.34V0Zm28 0v2.34h-2.33V7h4.66V2.34h4.66v7h-2.32v2.32h2.32v7h-4.66V14h-4.66v4.66h2.32V21h9.34v-2.34h2.34v-7h-2.34V9.34h2.34v-7h-2.34V0Zm28 0v4.66h-2.33V14h7v7h4.66v-7h2.34v-2.34h-2.34V2.34h-2.34v2.32h-2.32v7h-2.34v-7h2.34V0Zm25.67 0v11.66h4.66V9.34h4.66v9.32h-4.66v-2.32h-4.66v2.32h2.32V21h9.34v-2.34h2.34V9.47l-2.34-.13V7h-7V2.34h9.34V0Zm30.32 0v2.34h-2.32v16.32h2.32V21h9.34v-2.34h2.34v-7h-2.34V9.34h-7v-7h4.66V7h4.68V2.34h-2.34V0Zm25.68 0v7h4.66V2.34h4.66V7h-2.32v7h-2.34v7h4.66v-7h2.34V7h2.34V0Zm30.32 0v2.34h-2.32v7h2.32v2.32h-2.32v7h2.32V21h9.34v-2.34h2.34v-7h-2.34V9.34h2.34v-7h-2.34V0Zm28 0v2.34h-2.32v7h2.32v2.32h7v7h-4.66V14h-4.66v4.66h2.32V21h9.34v-2.34h2.34V2.34h-2.34V0Zm168 0v2.34h-2.32V7h4.66V2.34h4.66v7h-2.32v2.32h-2.34v4.68h4.66v-4.68h2.34V9.34h2.34v-7h-2.34V0ZM146.92 2.34v2.32h2.34v4.68h-2.34v2.32h-2.34V14h-2.32v4.66h2.32V21h4.68v-2.34h-2.34V14h2.34v4.66h4.66V21h2.34v-4.66h-2.34V14h-2.34V9.34h2.34V4.66h-2.34V2.34Zm7 11.66h2.34v-2.34h-2.34zm-7-4.66V4.66h-2.34v4.68zm254.5-7V7h-2.33v4.66h-2.34v4.68h-2.32V21h4.66v-4.66h2.34v-4.68h2.32V7h2.34V2.34Zm25.5 0h4.66v16.32h-4.66zm224 0h4.66v7h-4.66zm28 0h4.66v7h-4.66zm28.17 0V7h4.66V2.34Zm25.5 0V7h4.67V2.34Zm140 0v2.32h7V2.34Zm7 2.32V7h2.33V4.66ZM881.91 7v11.66h2.34V7Zm0 11.66h-2.34V21h2.34zm-2.34 0V9.34h-2.32v9.32zm-2.32 0h-2.34V9.34h-2.34v2.32h-2.32v7h2.32V21h4.68zm-2.34-9.32h2.34V7h-2.34zm-2.34-4.68h-2.32V7h2.32zm-781.66 0h2.34v4.68h-2.34zm196 0v4.68h-4.66v2.32h4.66v4.68h4.66v-4.68h4.68V9.34h-4.68V4.66ZM65.26 7h2.32v7h-2.32Zm697.5 0v2.34h-2.35v2.32h-2.32v4.68h2.32v2.32h2.34V21h2.34v-4.66h7v-4.68h-7V7Zm23.33 0v2.34h14V7Zm35.17 0v4.66h-7v4.68h7V21h2.32v-2.34h2.34v-2.32h2.34v-4.68h-2.34V9.34h-2.34V7Zm-483 2.34v2.32h14V9.34Zm256.66 2.32h4.66v7h-4.66zm56 0h4.66v7h-4.66zm135.17 0V14h14v-2.34Zm-79 2.34v4.66h4.66V14Zm25.5 0v4.66h2.35V21h2.32v-7zm2.35 7h-2.34v2.34h2.34zM6.84 16.34V21h4.66v-4.66zm303.59 0V21h2.32v2.34h2.34v-7zm2.32 7h-2.32v2.32h2.32zm53.68-7V21h4.66v-4.66zm480.5 2.32V21h4.65v-2.34z"/>
    <path id="c2" fill="url(#g2)" d="M4.53 28v2.34H2.21V49h4.66v-9.34h7V49h2.34V30.34h-2.34v7h-7v-7h7V28Zm25.76 0v21h11.66v-2.34h-7v-7h7v-2.32h-7v-7h7V28Zm11.66 2.34v7h2.34v-7zm0 9.32v7h2.34v-7zM60.61 28v2.34H58.3v16.32h2.32V49h9.34v-2.34h-7V30.34h7V28Zm9.34 2.34V35h2.34v-4.66zm0 16.32h2.34V42h-2.34ZM86.3 28v21h11.66v-2.34h-7V30.34h7V28Zm11.66 2.34v16.32h2.34V30.34ZM114.3 28v21h14v-2.34h-9.34v-7h7v-2.32h-7v-7h9.34V28Zm28 0v21h4.66v-9.34h7v-2.32h-7v-7h9.34V28Zm30.5 0v2.34h-2.33v16.32h2.32V49h11.68v-9.34h-4.68V42h2.34v4.66h-7V30.34h7V28Zm9.33 2.34V35h2.34v-4.66ZM198.46 28v21h4.66v-9.34h7V49h2.34V28h-2.34v9.34h-7V28Zm30.5 0v21h4.66V28Zm34.82 0v18.66h-7V49h9.34v-2.34h2.34V28Zm-7 18.66V42h-2.32v4.66zM282.3 28v21h4.66v-7h2.34v2.34h2.32v2.32h2.34V49h2.34v-4.66h-2.34V42h-2.34v-2.34h-2.32v-2.32h2.32V35h2.34v-2.34h2.34V28h-2.34v2.34h-2.34v2.32h-2.32V35h-2.34v-7zm28.17 0v21h14v-2.34h-9.34V28Zm27.83 0v21h4.66V37.34h2.34V42h2.32v-4.66h2.34V49h2.34V28h-2.34v4.66h-2.34V35h-2.32v-2.34h-2.34V28Zm28.17 0v21h4.66V37.34h2.34V42h2.32v4.66h2.34V49h2.34V28h-2.34v11.66h-2.34V35h-2.32v-4.66h-2.34V28Zm30.32 0v2.34h-2.32v16.32h2.32V49h9.34v-2.34h-7V30.34h7V28Zm9.34 2.34v16.32h2.34V30.34ZM422.3 28v21h4.66v-7h7v-2.34h-7v-9.32h7V28Zm11.66 2.34v9.32h2.34l-.04-9.36zM452.78 28v2.34h-2.32v16.32h2.32V49h7v-2.34h-4.66V30.34h7V28Zm9.34 2.34V42h2.34V30.34Zm0 11.66h-4.66v2.34h2.32v2.32h2.34V49h2.34v-4.66h-2.34zm16.17-14v21h4.66v-9.34h7v-2.32h-7v-7h7V28Zm11.66 2.34v7h2.34v-7zm0 9.32V49h2.34l-.04-9.4zM508.61 28v2.34h-2.32v7h2.32v2.32h9.34v-2.32h-7v-7h7V28Zm9.34 2.34V35h2.34v-4.66zm0 9.32v7h2.34v-7zm0 7h-7V42h-4.66v4.66h2.32V49h9.34zM534.3 28v2.34h4.66V49h4.66V30.34h4.68V28Zm28 0v18.66h2.32V49h9.34v-2.34h-7V28Zm11.66 18.66h2.34V28h-2.34zM590.3 28v14h2.32v4.66h2.34V49h4.66v-2.34h-2.32V42h-2.34V28Zm9.32 18.66h2.34V42h-2.34zm2.34-4.66h2.34V28h-2.34zm16.34-14v21h4.66v-4.66h2.34V42h2.32v2.34h2.34V49h2.34V28h-2.34v9.34h-2.34V35h-2.32v2.34h-2.34V28Zm28 0v4.66h2.32V35h2.34v4.66h-2.34V42h-2.32v7h4.66v-7h4.66v2.34h2.34V49h2.34v-7h-2.34v-2.34h-2.34V35h2.34v-2.34h2.34V28h-2.34v2.34h-2.34v2.32h-4.66V28Zm28 0v9.34h2.32v2.32h2.34V49h4.66v-9.34h2.34v-2.32h2.34V28h-2.34v7h-2.34v2.34h-4.66V35h-2.34v-7zm28.17 0v2.34h9.32v2.32h-2.32v4.68h-2.34V42h-2.34v2.34h-2.32V49h14v-2.34h-9.34v-2.32h2.34v-4.68h2.32V35h2.34v-2.34h2.34V28Zm30.17 0v21h7v-2.34h-2.34V30.34h2.34V28Zm55.82 0v2.34h2.33v16.32h-2.33V49h7V28Zm-28 2.34V35h2.33v4.66h2.34v4.68h2.33V49h4.67v-4.66h-2.34v-4.68h-2.33V35h-2.33v-4.66Zm58.5 4.66v2.34h-2.34v2.32h-2.32V42h4.66v7h4.66v-7h4.68v-2.34h-2.34v-2.32h-2.34V35Zm56 0v7h-4.66v2.34h2.32v2.32h2.34V49h4.66v-2.34h2.34v-2.32h2.34V42h-4.68v-7ZM842.3 46.66V49h14v-2.34z"/>
    <path id="c3" fill="url(#g3)" d="M30.3 56v21h11.65v-2.34h-7v-9.32h7V63h-7v-7zm11.65 9.34v9.32h2.34v-9.32ZM95.61 56v7h-7v2.34h7v9.32h-7V77h11.68V56Zm-7 18.66v-9.32H86.3v9.32zM149.3 56v2.34h-2.34V63h-4.66v2.34h4.66V77h4.66V65.34h4.68V63h-4.68v-4.66h2.34V56Zm49.17 0v21h4.66V65.34h7V63h-7v-7zm11.66 9.34V77h2.34V65.34ZM228.96 56v4.66h4.66V56Zm30.16 0v4.66h4.66V56Zm23.17 0v21h4.66v-7h2.34v2.34h2.32v2.32h2.34V77h2.34v-4.66h-2.34V70h-2.34v-2.34h2.34v-2.32h2.34V63h-4.68v2.34h-2.32v2.32h-2.34V56Zm32.83 0v21h4.66V56Zm419.85 0v2.34h-2.34v7h-2.34v2.32h2.34v7h2.34V77h4.66v-2.34h-2.34v-7h-2.32v-2.32h2.32v-7h2.34V56Zm27.81 0v9.34h4.67V56Zm25.67 0v2.34h2.33v7h2.34v2.32h-2.34v7h-2.33V77h4.67v-2.34h2.33v-7h2.33v-2.32h-2.33v-7h-2.33V56Zm-249.5 4.66V63h-2.34v2.34h2.34v9.32h2.34V77h4.66v-2.34h-2.34v-9.32h2.34V63h-2.34v-2.34ZM6.87 63v2.34h7V63Zm7 2.34v7h-2.34v2.32h2.34V77h2.34V65.34Zm-2.34 9.32H6.87v-9.32H4.53v2.32H2.21v7h2.32V77h7zM60.61 63v2.34H58.3v9.32h2.32V77H72.3v-2.34h-9.34v-9.32h9.34V63Zm56 0v2.34h-2.32v9.32h2.32V77h9.34v-2.34h-7V70h9.34v-4.66h-2.34v2.32h-7v-2.32h7V63Zm9.34 11.66h2.34v-2.32h-2.34zM172.78 63v2.34h7v9.32h-7V77h7v4.24h-7v2.01h9.34v-2h2.34V63Zm0 18.24v-2.32h-2.32v2.32zm0-6.58v-9.32h-2.32v9.19zM228.96 63v14h4.66V63Zm30.16 0v18.08h-2.34v2.34h4.68v-2.34h2.32V63Zm79.17 0v14h2.32V65.34h2.34V77h2.34V65.34h2.32V77h4.68V65.34h-2.34V63Zm28.17 0v14h4.66V65.34h7V63Zm11.66 2.34V77h2.34V65.34ZM396.78 63v2.34h-2.32v9.32h2.32V77h9.34v-2.34h-7v-9.32h7V63Zm9.34 2.34v9.32h2.34v-9.32ZM422.3 63v20.25h4.66V77h7v-2.34h-7v-9.32h7V63Zm11.66 2.34v9.32h2.34v-9.32ZM452.78 63v2.34h-2.32v9.32h2.32V77h9.34v6.25h2.34V63Zm25.51 0v14h4.66v-9.34h2.34v-2.32h-2.34V63Zm7 2.34h4.66V63h-4.66zM508.61 63v2.34h-2.32v2.32h2.32V70h9.34v-2.34h-7v-2.32h9.34V63Zm9.34 7v4.66h2.34V70Zm0 4.66H506.3V77h11.66zM562.3 63v11.66h2.32V63Zm2.32 11.66V77h7v-2.34zm7 0h2.34V77h2.34V63h-4.68zM590.3 63v9.34h2.32v2.32h2.34V77h4.66v-2.34h-2.32v-2.32h-2.34V63Zm9.32 11.66h2.34v-2.32h-2.34zm2.34-2.32h2.34V63h-2.34zM618.3 63v11.66h2.32V77h4.68v-2.34h2.32V77h2.34v-2.34h2.34V63h-2.34v9.34h-2.34v-7h-2.32v7h-2.34V63Zm28 0v2.34h2.32v2.32h2.34v4.68h-2.34v2.32h-2.32V77h4.66v-2.34h2.34v-2.32h2.32v2.32h2.34V77h2.34v-4.66h-2.34v-4.68h2.34V63h-2.34v2.34h-2.34v2.32h-2.32v-2.32h-2.34V63Zm28 0v11.53l2.32.13V77h9.34v4.66h2.34V63h-2.34v11.66h-7V63Zm11.66 18.08h-9.34v2.34h9.34zM702.45 63v2.34h7v2.32h-2.33v4.68h-2.34v2.32h-2.32V77h14v-2.34h-7v-2.32h2.32v-4.68h2.34v-2.32h2.34V63Zm111.84 0v4.66h2.32v4.68h2.34V77h4.66v-4.66h2.34v-4.68h2.34V63Zm-359.17 2.34h7v9.32h-7zm307.66 2.32V77h4.67v-9.34z"/>
  </g>
</svg>
