<svg xmlns="http://www.w3.org/2000/svg" xmlns:xlink="http://www.w3.org/1999/xlink" viewBox="0 0 768 84">
  <defs>
    <linearGradient id="a">
      <stop offset="0" stop-color="#02d0ab"/>
      <stop offset=".4" stop-color="#16ccf7"/>
      <stop offset=".8" stop-color="#fe4c9d"/>
      <stop offset="1" stop-color="#fff120"/>
    </linearGradient>
    <linearGradient xlink:href="#a" id="g1" x1="0" x2="0" y1="-5" y2="23" gradientUnits="userSpaceOnUse"/>
    <linearGradient xlink:href="#a" id="g2" x1="0" x2="0" y1="23" y2="51" gradientUnits="userSpaceOnUse"/>
    <linearGradient xlink:href="#a" id="g3" x1="0" x2="0" y1="51" y2="79" gradientUnits="userSpaceOnUse"/>
    <pattern id="Checkerboard" width="2" height="2" x=".5" fill="#7f0000" patternTransform="scale(24 28)" patternUnits="userSpaceOnUse">
      <path d="M0 0h1v1H0z"/>
      <path d="M1 1h1v1H1z"/>
    </pattern>
    <pattern id="Strips" width="2" height="2" fill="black" patternTransform="scale(24 84)" patternUnits="userSpaceOnUse">
      <path d="M0 0h1v1H0z"/>
    </pattern>
  </defs>
  <g fill-opacity=".4" display="none">
    <rect width="100%" height="100%" fill="url(#Strips)"/>
    <rect width="100%" height="100%" fill="url(#Checkerboard)"/>
  </g>
  <g fill="#1a3949" stroke="#1a3949">
    <path fill-opacity=".5" stroke-opacity=".2" d="M468.85 57.92c-1 0-2.5 1.07-3.35 2.37-1.2 1.82-1.32 2.98-.53 5.06.65 1.96 1 4 1.03 6.07 0 4.84 3.27 6.5 4.24 6.5 2.38 0 7.2-5.49 3.13-8.47-1.5-1.1-1.5-1.4.14-3.9 1.73-2.63 1.71-2.76-.55-5.16-1.27-1.36-3.12-2.47-4.11-2.47zm62.25 4.93c0 1.97 2.68 10.3 3.46 14.27.4 1.98 1.26 2.8 3.3 3.1 8.05 1.18 8.48.04 8.63-.54.51-1.94 3.21-16.23 4.22-19.65 1.86-5.1-19.61.2-19.61 2.82zm30.59-4.75a7 7 0 0 0-3.2.2c-1.2.46-1.19 1.3.1 5.63 1.23 4.13 1.28 5.7.3 8.42-.66 1.83-.92 4.06-.58 4.96.5 1.3 2.1 1.62 7.78 1.62 7.12 0 7.14 0 6.53-2.5l-1.24-5c-.36-1.46.07-3.93 1.06-6 .91-1.94 1.39-3.96 1.05-4.5-.7-1.16-3.9-1.71-6.22 1-.94 1.1-2.04 2-2.43 2-1.22 0-.38-5.3-3.15-5.82zm-434.18.33-.2 9c-.1 4.95.01 9.6.25 10.32 3.32 4.6 9.14-7.07 9.19-7.18 1.58-2-.01-3.9-.2-4.5-.53-1.65-.14-2.2 1.95-2.73 1.94-.48 2.53-1.2 2.3-2.78-.27-1.92-.93-2.13-6.8-2.13zm120.5.5v20.9c4.1 0 8.45 1 12.46-.16.94-2.9-1.36-6.52-2.17-9.42-.7-3.09 2.71-5.92 2.71-8.42-1.97-3.85-9.14-2.9-13-2.9zm198.5 0c-1.07 0-7.05 1.97-4.7 8.3.95 2.5.9 3.38-.32 4.72-.81.9-1.48 2.02-1.48 2.48 0 3.37 9.1 7.78 12.25.47.89-2.6-2.58-6.4-.9-9.12 1.52-2.5-1.8-6.85-4.85-6.85zm236.1 6.46c.58 2.3 2.05 8.25.72 11.58-3.04 5.11 1.83 7.81 5.61 4.03 1.61-1.6 1.86-2.92 1.45-7.75-.77-9.43-1.33-12.22-3.36-13.3-4.07-1.98-9.68-1.38-4.41 5.44zM34.32 59.1c-1.61.32-1.76 1.34-1.45 9.84.2 5.21.56 9.82.81 10.23.5.83 8.23 2.19 9.75-3.74C44.76 69 39.01 68.88 39.01 64c0-2.87-1.6-5.29-4.7-4.89zm54.2.32c-2.76 0-2.98.25-2.75 3.23.2 2.66-.25 3.48-2.63 4.71-5.92 3.07-4.63 9.06-1.9 11.01 4.28 2.55 8.66 1.38 9.41.3 1.33-6.25.87-12.87.87-19.25zm114.83 4.94c-1.87 5.62.38 10.34.97 10.72 1.75.95 3.45-.15 3.86-1.98.91-4.2-1.75-9.82-1.11-10.64 1.55-1.98-1.6-4.21-3.61-1.65-.84 1.15-.3 2.31-.11 3.55zM487 63.9c-.1 5.75-1.17 15 6.49 16.03 7.18-.5 7.34-9.72 7.49-15.25.02-3.8-.32-4.75-3.32-4.75-3 .01.31 4.82-10.66 3.97zm32.42-1.49c-1.3 1.97-2 2.28-3.46 1.5-2.37-1.28-5.96-1.15-5.96-.32 0 1 2.7 9.65 3.48 13.6 1.03 5.08 5.96 1.86 6.24 1.5 1.25-1.64 6.28-15.45 6.28-17.32 0-1.77-4.58-2.3-6.58 1.04zm-192.14-1.28c-2.43 1.88-8.28.57-8.28.57s-1.84 23.99 4.82 17.58c1.82-3.24 6.38 1.77 7.81-.56.54-.87 1.96-23.25-4.35-17.59zm-34.78-.7s-1.11 19.12 1.68 19.49c2.8.37 9.82-10.03 9.82-1.2-.37 4.6 3.28 4.3 7 4.2l-1.24-21.57zm-59.6-.55c-6.64-.17-4.48 2-4.68 5.54-.82.82-.13 12.5-1.88 12.5a4.23 4.23 0 0 0-4.34 4.2c0 3.08 7.73 1.84 9.82.05 1.67-1.43 2.1-3.19 2.36-9.75.23-5.83.7-7.45-.16-8.17-.44-.37.52-4.33-1.12-4.37zm40.1 9c-.03 7.36-1.18 8.6 1.75 8.97 2.93.37 7.3 2.4 8.14-1.34.83-3.74-3.7-1.49-4.28-5.16-.57-3.67.25-8.86-2.19-9.8-4.49-2.11-3.38 4.37-3.42 7.33zm69-.95c0 7.45 13.39 10.3 14 .52.16-9.3-14-9.11-14-.52zm292.41 13.5c2.5 3.83 6.6 2.31 7.07 1.53.33-.53-.3-2.92-1.38-5.3-4.49-9.88 2.82-12.86 1.54-16.22-.75-1.93-3.82-2-6.2-.07-5.04 4.09-2.17 18.33-1.03 20.06zM8.85 63.1c-2.06 2.06-2.08 2.2-.33 3.48 1.52 1.11 1.63 1.73.68 3.83-1.49 3.26-.17 5.53 1.08 7.28 1.25 1.62 5.98 1.59 7.52.05 2.17-2.16 1.25-13.9-2.11-16-2.6-1.42-4.75-.5-6.84 1.36zm408.65-1.66c.17 6.23-.52 12.55.23 18.75.52.99 2.4.95 4.22-.19 3.28-2.1-1.7-7.3 3.7-11.6 2.72-2.16 2.73-2.23 1-4.88-2-3.4-5.85-2.35-9.15-2.08zm-228.23.4-13.77.6-.58 17.5H188c-.22-6.08.3-12.1 1.27-18.1zm-126.67.1c-3.5 0-11.14 8.43-4.6 15a6.48 6.48 0 0 0 7.6 1.24c6.08-4.06 2.36-16.24-3-16.24zm44.9 12.82c3.98 2.24 10.1-1.46 7.44-8.47-4.52-11.92-17.46 2.75-7.44 8.47zm45.29-10.8c-3.1 3.83-1.4 16-1.02 16.57.3.45 4.84 5.18 9.18 2.47 2.76-4.81 1.83-11.54 2.3-17 .22-2.17-.28-2.57-4.2-3.36-3.95-.79-4.65-.69-6.26 1.32zm218.84-1.27c-2.6 1-2.29 14.96-2.27 18.69.56 3.9 6.57 1.79 5.44-1.78.49-5.79 4.2-4.85 4.2-10.99 0-2.92-.56-4.19-2.37-5.37a4.92 4.92 0 0 0-5-.55zm216.24 11c4.64 6.26-3.87 2.59-3.87 4.87 0 .5 1.19 1.86 2.63 3 10.3 7.48 9.4-9.95 9.37-16.03-3.14-1.32-6.27-3.3-9.25-2.76-2.98.54-.9 8.17 1.12 10.91zM608 64.53c.49 2.63 2.41 4.65 4.01 6.7l-5.09 8.7H622c-.13-2.12.88-5.69-2-6-4.75-1.02 2.04-11 2.04-11s-12.36-1.98-14.04 1.6zm52.5-1.1c-4.33 1.08-3.51 22.11 1.3 16.24.56-.67 3.03-17.32-1.3-16.24zM391 69.37c0 8.09 5.97 4.2 6 10.12 0 1.49.74 3.12 1.64 3.62.9.5 2.53.69 3.62.4 1.76-.46 1.91-1.1 1.37-5.62-.63-4.84-.62-9.73-.63-14.6-9.43.02-12 .03-12 6.08zm315.61 1.53c-6.23 6.17 10.37 5.8 10.37.41.01-.76-6.65-3.65-10.37-.4zM272 53.8c7.93-.17 13.76 3.65 14.26-2.54.49-6.2-7.82 1.74-7.72-8.38.03-2.44.25-6.25.5-8.45.46-4-1.06-4.11-7.03-4.62-.02 7.99-.01 16-.01 23.99Zm228.89-23.96-14.37.6s-.93 12.71 2.27 17.8c2.09 2.3 6.81 2.09 9.26-1.3 2.57-5.22 2.84-17.1 2.84-17.1zm-389.69.08c-3.2 0-6.34.54-7 1.2-1.78 1.78-1.26 19.41-.53 20.14.36.36 3.06.66 6 .66 4.5 0 5.33-.28 5.33-1.83 0-1-.34-2.17-.75-2.59-1.05-1.02-.68-6.09-1.7-9.14-.53-1.6-.1-2.32 1.88-3.23 1.53-.7 2.57-1.99 2.57-3.19 0-1.8-.65-2.02-5.8-2.02zm38.34 9.58c-1.73 8.6 4.5 15.18 12.96 15.89 3.6-.3 3.49-17.27 2.38-19.96-4.57-10.43-13.93-3.97-15.34 4.07zm27.04-8.98c-3.32 5.3-1.58 15.09-1.58 21.4h13c-.09-7.37-.19-14.75 1.25-22-4.2.16-8.54-.4-12.67.6zm25.27.65c-.38 6.94.06 13.92.29 20.87 1.79-.2 3.57-.4 5.36-.62l.19-21.5c-1.99.05-4.44-.43-5.84 1.25zm43.65.25c0 5.9-.47 11.83.18 17.7.42 2.47.9 2.73 5.64 3.07 6.04.47 11.07 2.14 7.73-5.88-2.47-4.46-2.1-6.27.54-10.35 1.43-2.16 2.3-4.4 1.95-4.98-1.73-2.79-3.65.21-16.04.44zm213.9.54c0 1.12.75 3.17 1.66 4.57 3.64 5.55-1.53 15.54 5.18 15.2 5.63-.65.7-13.67 4.23-15.87 1.19-.75 10.4-1.71 8.52-4.79-.52-.85-19.59-2.97-19.59.89zM583.46 31c-.86 1.36 1.19 9.3 3.64 11.51 2.75 2.18.37 4.34 1.26 7.91.77 2 3.93 1.3 4.95.22S595 36.72 595 29.92c-3.74.27-8.13-.77-11.54 1.08ZM606 50.94c0 .93 13.35 2.1 14.4-.59.33-.87.6-2.67.6-4 0-6.37-9.15 3.21-2.5-10.62a90.5 90.5 0 0 0 2.5-5.42c0-.24-14.78-.58-15.69.9 6.91 11.8 4.1 5.7.69 19.73zM293.9 30.1c-4.13.3-2.07 3.88-2.59 10.26s-.76 17.87 6.71 9.15c3.13-4.07 6.92 2.8 9.66 2.26 2.74-.53 1.97-3.67 1.55-10.34-.42-6.67 1.43-13.73-5.23-10.25-5.74 3.28-5.97-1.39-10.1-1.08zm33.14 2.57c-1.08 4.5-4.7-2.2-7.68-1.04-1.03.4-1.36 3.17-1.36 11.48 0 10.78.04 10.96 2.24 10.64 1.3-.18 2.39-1.15 2.6-2.32.58-3.21 1.66-3.92 4.48-1.08 1.57 1.57 3.19 2.33 4.16 1.95 1.36-.52 1.52-2.1 1.11-10.74-.27-5.57-.5-10.5-.54-10.95-.06-.86-4.24-1.14-5.01 2.06zM134.4 30.13l-5.9.3c.33 6.9-2.05 14.42-.2 21.2 1.14 1.58 5.16.38 5.51-2.95a8.06 8.06 0 0 1 2.25-4.3c2.65-2.38 2.1-4.88.79-6.2-.87-.87-.52-1.44 1.44-2.33 1.27-.58 9.46-6.42-3.89-5.72zm396.19.7c-.01.33.97 5.2 2.16 10.8 2.01 9.5 2.34 10.23 4.76 10.62 4.5.61 8.14 1.3 9.19-3.82 1.14-5.83 3.3-16.73 3.3-17.64 0-.83-19.39-.75-19.41.04zm227.91 5.65c3.68 1.6 5.24.54 2.97-2.95-2.35-3.6-6.27-3.83-7.39-3.15-1.58.97.89 4.56 4.42 6.1zm-529.12-6.11c-2.49.63-2.6.91-2.02 5.36.7 5.34 0 6.52-3.08 8.07-1.92 1.01-2.08 1.53-1.19 3.88.57 1.5 1.57 3.05 2.22 3.47 1.71 1.06 3.07 1.22 6.29-1.55 2.44-2.1 2.76-3.15 3.18-10.48.53-5.45.94-9.96-5.4-8.75zm329.85 1.39c4.31 9.72 2.8 10.21-.23 18.21-.22 3.04 4.73 2.35 6.04-.1 1.1-2.06 1.12-2.05 3.48.5 3.13 3.38 4.46 1.78 5.54-.42s-2.25-6.37-4.1-10.02c1.36-2.9 3.2-5.66 4.04-8.78 0-.87-14.08-1.52-14.77.61zM33.22 50.68c1.1 1.32 4.2 1.94 7.42-.2 3.77-2.66 2.8-15.73 2.2-16.84-1.25-2.35-5.65-3.9-8.25-3.08-2.61.82-2.3 18.98-1.37 20.12zm356.37-2.12c4.28 5.1 7.65 2.02 8.95 4.15.83 1.35 7.46 4.68 7.46 1.29 0-.88-.88-2.65-1.96-4.04-1.41-1.79-1.94-3.97-1.9-7.76.32-23.46-23.97-7.14-12.55 6.36zm29.02-17.66c-2.3.88-2.4 1.28-2.4 11.02v10.11l6.15-.3c5.51-.26 6.1-.5 5.8-2.29-.66-6.77-.02-14.6-1.47-16.35-1.97-2.01-4.88-3.3-8.08-2.19zM81.26 52.28c10.3 1.78 16.2-14.97 6.76-19.83-2.5-1.38-6.7-3.36-7.97-.9-1.28 2.45-.9 20.37 1.21 20.73Zm260.08-9.66c.8 4.85 5.63 9.32 7.93 9.32 4.2 0 11.85-9.44 5.25-18.98-4.96-4.64-14.73-1.39-13.18 9.66zm27.27-.32c-.26 8.65-.1 9.64 1.47 9.64.97 0 2.48-.27 3.35-.6 1-.4 1.58-1.83 1.58-3.96 0-1.84.6-3.7 1.35-4.14a8.79 8.79 0 0 0 2.5-2.98c1.7-3.23-.3-6.67-2.76-8.25-6.84-3.74-7.26 2.36-7.49 10.29zm-312.4 7.13c6.83 7.9 17.16-6.49 10.34-6.49-3.73 0-4.08 4.38-5.59 3.47-1.23-.76-2.22-14.66 3.01-8.29 1.82 2.2 2 2.24 3.68.58 1.69-1.66 1.68-1.86-.29-4.5-8.02-10.76-17.99 7.32-11.15 15.23Zm601.04-18.31c-1.31-.18-2.49.3-2.83 1.2-.31.81.59 3.2 2 5.3 2.2 2.6 2.8 5.8 4.04 8.85 1.27 3.04 1.9 3.47 5 3.47 4.25 0 4.02-1.1 2.42-2.73-.63-.62-2.77-4.43-4.76-8.45-2.7-5.44-4.2-7.4-5.87-7.64zm-215.38 2.25c-1.23 1.92-2.98 5.36.94 11.17 3.22 4.72 2.75 5.35 1.25 5.87-1.9.69-6.68-.74-8.69.61-1.19.8-1.2 1.23-.12 2.54 1.92 2.35 12.1 1.91 14.84.02 3.8-2.7 1.83-7.67.22-9.72-1.1-1.4-2-2.9-2-3.32 0-.43.9-1.73 1.98-2.9 1.83-1.93 1.86-2.29.45-4.3a5.52 5.52 0 0 0-8.87.03zm76.54 18.57c1.4 0 2.91.5 3.41-1.75.5-2.26 7.45-21.6-.89-17.71-4.6 2.39-4.26-.35-8.6-.49-3.14-.1.15 19.95 6.08 19.95zm190.8-19.99c-3.87 0-15.47 14.7-2.26 7.56 2.14-1.18 2.9-1.12 5.85.47 12.06 6.48 1.13-8.03-3.59-8.03zM6 49.82c0 3.29 3.85 2.2 4.87.37.92-1.64 1.07-1.64 2.88 0 2.33 2.02 6.3 2.56 6.18-.02-.05-.96-.61-5.35-1.26-9.75-1.1-7.46-1.35-8.02-3.3-8.24C7.61 31.95 6.42 44.05 6 49.82Zm674-16.07c0 1.03.9 2.7 2 3.68 3.06 2.77 2.15 8.51 0 11.23-1.1 1.4-2 3.16-2 3.9 0 1.83 7.97 2.07 8.07-.13 0-.05.5-18.3-.44-19.2-.03-.03-7.63-2.95-7.63.52zm-45.12-.82c-1.71 0-1.88.9-1.88 9.83 0 5.41.3 10.14.67 10.5.61.63 7.08 1.46 7.99-.88.95-2.45-3.6-4.15-3.66-9.37 0-5.01 5-8.35 5-10.28 0-1.48-4.88.2-8.12.2zM722 51.87c0 1.05.44 2.07.98 2.25 4.37-.12 20.1 1.1 21.84-2.42.49-2.57-22.82-2.9-22.82.17ZM33 4.3c0 1.91.56 3.7 1.25 3.98 3.15 1.28 8.25.64 7.58-4.53-.28-1.94-1.01-2.36-4.91-2.65C33 .82 33 .82 33 4.3ZM10.18 1.84s1.56 20.88 2.12 21.24c.32.2 3.23 1.9 4.08-3.99.7-5.53.87-11.1 1.12-16.67ZM561 21.92c9.29 8.76 11.52-13.53 7.55-17.95-10.6-8.8-11.97 13.78-7.55 17.95zm22.77-3.96c-1.09 1.8-1 2.3.67 3.52 8.1 6.05 15.81-10.43 9.1-17.09-5.6-5.62-11.54.06-11.54 3.95 0 3.88 4.01 5.99 1.77 9.62zM511 9.42c-3.58 10.88 6.05 16.92 11.46 11.54 3.45-3.78-.9-11.59 1.58-14.58 2.73-3.3-8.9-9.03-13.04 3.04zm216.67-4.26c-1.9 2.56-1.92 2.84-.35 4.58 2.73 3.02 1.1 12.3 2.35 13.52 2.7 2.09 5.13-1.14 5.33-5.26 0-3.17 2.97-1.12 4.99-3.56 3.9-4.7-5.47-18.48-12.32-9.28zM61.75 20.87c4.25.17 4.3-4.34 5.85-7.55 1.7-3.49 4.76-10.54-3.02-11.2-9.6-.82-18.9 18.4-2.83 18.75Zm331.14-10.64c1.58 1.55.78 11.04 1.78 12.04.77.8 4.2 1.11 4.87-.58.26-.7.13-5.3-.29-10.25-.68-8.18-.95-9.03-2.78-9.29-3.74-.53-4.8 6.85-3.58 8.08zm24.5.61c2.57 2.63-3.39 8.5-3.39 11.74 0 1.69 15.04 2.52 14.96-.39-.04-3.63-3.33-4.4-1.69-9.79 4.99-16.33-17.14-8.97-9.88-1.56zm-215.43-.75c2.5 5.55.9 7.54-.57 8.93-1.98 1.66-1.5 3.4-.21 4.69 1.84 1.86 3.97-1.15 5.39-3.91 1.36-2.83 2.53-6.52-.87-12.89-5-9.49-6.33-2.63-3.74 3.18zM485.5 2.6c.65 6.01-2.3 14.52 2.83 18.95 4.26 3.6 11.67 3.9 11.67-6.55 1.42-16.56 3.45-13-14.5-12.4ZM440 6.05c0 3.78 7.35-.2 2 6.61-2.94 3.74-1.94 10-1.25 10.7.95.97 7.28-.07 8.56-1.33.6-.6 2.98-14.68-.11-17.37-4.35-3.48-8.94-3.28-9.2 1.39zm-312.76 15.2c1.12 1.53 6.32 3.67 13.13 4.59 2.66-.19.5-5.1.47-7.12a5.7 5.7 0 0 0-2.38-4.64c-3.98-3.13-1.69-7.47-3.23-9.76-.45-.7-3.58-3.16-6.62-1.04-2.34 1.63-3.13 15.56-1.37 17.97ZM225 7.55c0 8.83 14.67 2.08 7.75-3.34-3.64-2.91-7.3-1.35-7.75 3.34Zm250-4.87c-3.46.55-7 .96-10.23 2.37-3.06 2.24-1.17 8-.11 11.13.71 1.17 3.34.05 3.34 2.59 0 4.81 5.97 3.47 6.62 1.41.3-.96 1.06-2.79 1.67-4.06.83-1.73.8-2.8-.09-4.24-1.44-2.84-1.2-6.1-1.2-9.2zm279.15.83c-7.8 3.27-6.29 21.47 4.08 21.42 8.16 0 9.27-15.56 5.33-19.93-3.26-3.3-7.17-2.43-9.41-1.49zM80.59 13.53c.99 5.2-1.58 2.4-1.58 4.56 0 1.44 4.68 7.84 6.36 7.84.7 0 2.26-1.27 3.4-2.88 4.44-6.33 2.41-14.77-1.47-18.57-4.1-4.43-7.56 4.15-6.71 9.05Zm101.43-10.6c-.6 0-4.35 4.02-5.7 10.46-.45 2.78 0 4.4 2.07 7.54 1.46 2.2 3.1 4 3.66 4 4.08-2.22-.3-7.85-1.94-10.72l2-3.72c2.88-5.4.6-7.56-.09-7.56zm186.18 2.3c-3.32 3.87-4.78 10.31-.16 15.73 7 6.13 17.49-2.46 13.97-11.53-2.45-7.46-10.22-8-13.81-4.2zm-15.36-1.2c-1.01.53-1.84 1.61-1.84 2.4 0 1.98-8 16.32-8 17.05 0 .5 4.3 1.02 6.43-1.12.86-.86 1.57-2.1 1.57-2.77 0-1.65 8-14.69 8-15.15 0-.06-2.95-1.87-6.16-.42zM533 5.86c-.6.32.03 6.4 4.97 5.42 4.46-1.22 2.57 1.67 1.53 4.64-4.94 14.13 4.34 11.1 5.1 9.84 3.08-4.93-3-1.63 5.33-20.84-5.26-.53-11.92-1.34-16.93.94Zm-377.03 5.91c1.04.03 2.43-4.87 1.34-6.58-2.97-3.02-5.22 6.5-1.34 6.58zm-50.03-5.32c-2.88.91-1.97 5.33-.94 6 1.04.6 1.9 2.94-1.22 5.46-1.94 1.57-2.04 2-.8 3.5 2.22 2.51 5.04.31 7.21 1.65 2.37 1.55 3.8.6 4.88-.71 1-1.2 1.05-2.25.2-4.5-.97-2.58-.82-3.13 1.32-4.8 1.82-1.46 3.66-3.78.99-6.05-1.02-.86-1.82-.93-3.51.12-3.82 2.37-3.79-1.58-8.13-.67zm506.56-.02c-3.79 0-1.64 10.7-1.27 11.2 4.54 3.77 4.72-11.2 1.27-11.2zm-365.72 8.13c2.45 5.33 5.65 7.72 10.12 2.85 7.21-8.31-.9-4.28-.9-8.59 0-5.84-9.72 3.41-9.22 5.74zm433.47-6.48c-1.63 1.63-.05 7.25 1.01 8.6.72.92 7.84 2.81 9.79-.85 4.05-9.3-8.2-10.35-10.8-7.75zm21.03.57c-.6 1.58.7 2.96 5.35 5.95 2.24 1.4-8.1 4.6-3.57 7.8.96 0 13.95-4.05 15.34-5.47.74-.74.73-1.57-.02-2.77-.93-1.47-15.97-8.43-17.1-5.51zm-33.71-.8c-2.88.4-13.36 4.1-14.7 5.74-.87 1.05-.95 2-.26 3.1.58.9 15.7 8.98 17.14 4.49.23-.68-.97-2.03-2.66-3-5.43-3.1-1.75-3.79.89-6.23 1.46-1.46 2.67-4.5-.41-4.1zm-369.29 3.07c-7.09.02-2.17 4.19-1.68 4.59 1.77 1.45 7.64.4 9.15-.83 4.53-6.1-4-3.82-7.47-3.76zm337.06 2.94c.94 4.66-2.36 10.8-.13 12.22 3.64 2.34 7.07-5.74 4.39-7.7-1.46-1.07-1.56-1.66-.58-3.48 2.5-4.67-4.92-7.07-3.68-1.04zM322.7 22.6c.54 1.43 4.3 2.4 4.3-.69 0-3.95-5.52-3.46-4.3.69zm-45.45-2.47c-2.3.26-2.8.85-3.06 3.56-.27 2.73.02 3.25 1.77 3.25 2.88-.33 3.68-3.69 4.04-6.13 0-.55-1.24-.86-2.75-.68z"/>
    <path stroke-width="2" d="M35 1.93c-1.3 0-1.3 4 0 4 1.47-.97 1.22-2.99 0-4zm3 0c-1.3 0-1.3 4 0 4 1.47-.97 1.22-2.99 0-4zM561.7 3.2c-3.52 2.69-2.68 7.18-1.9 7.94.62.6.57 2-.12 3.82-.9 2.38-.77 3.22.78 4.92 2.5 2.77 5.08 2.3 6.53.56.7-.83 1.03-2.93.76-4.74-.26-1.78-.1-4.53.34-6.1 1.12-3.86-2.84-8.72-6.39-6.4zM12.02 2.54c-1 .21-1.02 1.73-1.02 7.53 0 6.32.3 7.86 1.5 7.86 1.06 0 1.5-1.1 1.52-3.75.02-2.06.41-5.4.88-7.4.78-3.37.65-3.7-1.53-4.12-.44-.12-.9-.16-1.35-.12ZM59 4.46c0 .83.1 2.6-1.54 2.65-2.65.1-3.6 1.22-2.21 1.55.96.23 2.05-.57 1.75 1.23-.35 2.1-1.01 1.1-2.25 1.44-2.11.6-2.57 2.17-.48 2 2.86-.25 2.51-.14 1.58 2.85-.83 2.63 2.15 2.17 2.15-.25 0-1.1-.33-2.23 1.12-2 1.42.23.88.88.6 1.95-.7 2.68 1.85 3.32 2.09.5.2-2.4-.13-3.68 2.2-3.05 2.07.54 2.8-1.87.74-1.77-1.51.07-2.06-.1-1.75-1.87.13-.78-.42-1.18 2.33-1.32 1.7-.08 1.05-1.22-.55-1.24-2.18-.02-.8-1.1-.5-2.46.57-2.66-1.6-1.9-1.86.25-.13 1.13-.02 2.04-1.23 2.01-1.32-.03-.77-.9-.48-2C61.42 2.27 59 2.47 59 4.46Zm24 .37c0 1.04-.68 2.17-1.5 2.47-.82.31-1.5 1.45-1.5 2.53 0 1.08 1.35 2.93 3 4.1 1.65 1.18 3 2.78 3 3.57 0 .8-.59 1.43-1.3 1.43-.72 0-1.8-.5-2.41-1.1-.61-.62-1.7-.93-2.42-.69-.92.3-.65 1 .91 2.34C82 20.52 83 21.95 83 22.65c0 1.67 2 1.67 2 .02 0-.69.9-1.82 2-2.5 1.1-.7 2-2.17 2-3.3 0-1.2-1.2-2.72-3-3.73-1.64-.94-3-2.47-3-3.4 0-.93.42-1.95.94-2.27.52-.32 1.35.16 1.86 1.07.5.9 1.53 1.45 2.28 1.2 1-.33.77-.96-.86-2.35C86 6.34 85 4.9 85 4.2c0-1.64-2-1.88-2 .63Zm290.1-1.9c-1.1 0-3.25 1.1-4.8 2.41-2.3 1.98-2.8 3.23-2.8 6.9 0 3 .63 5.18 1.9 6.6 1.27 1.3 3 2.04 4.8 2.1 1.74 0 3.87-1 5.34-2.46 1.81-1.8 2.46-3.54 2.46-6.55 0-3-.65-4.74-2.46-6.54-1.35-1.35-3.34-2.46-4.44-2.46zm69.83 0c-4.26 0-3.48 2.8-.26 3.19 1.47.17 2.85.83 3.06 1.47-.58 3.57-2.6 3.94-4.23 5.46-.68.63 2.22 1.7 2.22 1.7 3.3 2.48.99 4.53-1.6 3.72-3.57-1.14-1.71 2.54-1.45 2.79.8.82 2.95.97 5.4-.36 2.95-1.58 1.89-6.9.93-7.47-.63-.39-.44-1.2.5-2.13 3.34-3.53.53-8.37-4.57-8.37zm26.77.56c-1.1.43-1.28 1.4-.7 3.95.42 1.87.52 3.64.22 3.94-2.46 1.29-3.27.09-2.87-2.45.51-2.56.3-3-1.48-3-1.5 0-1.91.45-1.48 1.58.34.87.61 2.67.61 4 0 1.92.52 2.42 2.5 2.42 2 0 2.5.5 2.5 2.5 0 3.4 3 3.4 3 0 0-1.55.57-2.5 1.5-2.5 1.92 0 2-1.85-.1-2.68-1.25-.47-1.47-1.46-1-4.46.74-4.56-.48-4.15-2.7-3.3zm16.91 8.09c.5 1.88.97 2.05 3.62 1.28 1.68-.48 3.44-.63 3.91-.34 1.14.73 1.03 4.9.19 5.75-.37.36-1.4 0-2.29-.8-2.64-2.17-6.04-.17-6.04.35 0 .36 1.24 1.41 2.75 2.35 9.98 6.21 10.43-7.9 7.71-10.63-1.03-1.03-2.52-1.35-4.5-.95-2.38.47-2.96.25-2.96-1.16 0-1.5.72-1.68 5-1.27 4.37.42 5 .25 5-1.37-1.37-3.36-13-1.86-13-1.86s-.01 5.8.61 8.65zm96.4-6.67c-2.3 5.3 2.22 9.72 6.01 8.73 1.5-.4 1.69-.1 1.06 1.6-.98 2.67-3.08 3.2-3.08 1.74 0-.82-.55-.82-2.06 0-1.66.87-1.83 1.38-.88 2.52 2.83 3.48 8.77-.81 9.63-7.3 1.5-11.21-8.95-10.52-10.68-7.29ZM752 4.93c-1.54 1.55-2 3.33-2 7.85 0 4.32.46 6.24 1.75 7.37.96.84 2.42 1.77 3.25 2.07 6.41 2.13 6.53-2.29 2.04-2.29-1.91 0-3.34-.69-4-1.93-.57-1.07-1.04-3.98-1.04-6.48 0-9.54 10-10.27 10 .38 0 6.06-1.79 7.99-2.2.91-.2-3.5-.84-5.5-1.97-6.22-1.2-.76-2.1-.67-3.29.3-1.08.9-1.3 1.7-.62 2.36.66.66 1.46.61 2.38-.15.76-.63 1.68-.86 2.04-.5.36.37.66 1.04.66 1.5 0 .46-.88.83-1.96.83-1.09 0-2.46.9-3.05 2.01-.7 1.31-.74 2.61-.12 3.72.57 1.02 2.38 1.8 4.53 1.93 2.76.17 3.85-.26 4.7-1.86.62-1.15.89-3.86.6-6.02-.3-2.16-1.31-4.8-2.27-5.86-2.81-2.67-6.7-2.35-9.43.08zm-17 2.7c0 1.85-.55 2.3-2.78 2.3-2.63 0-2.75.2-2.4 4 .51 5.13 2.18 4.84 2.18 1.4 0-2.26.35-2.57 2.5-2.16 4.4.87 4.3-2.44 3.5-5.25-2.5-8.67-10.23-4.76-10.82-1.62-.29 4.19 7.93-7.45 7.82 1.33zM228.34 3.69c-.28.7-.87 1.03-1.3.77-.44-.27-1.8.18-.32 1.7-1.52 2.04-.34 1.6.66 1.6-.14.75.3 1.15 1.29.22 1.8 1.27.57-.45 1.07-.57 1.29.53 1.76.08 1.35-.48-.41-.56-.74-.75-.39-1.66.43-1.12.26-1.43-.53-.94-.66.4-1.2.15-1.25-.59-.06-.95-.18-1.07-.58-.05zM393.7 7.44c1.1.31.6 4.36.55 7.24-.08 4.4.2 5.25 1.68 5.25 1.58 0 1.72-.82 1.3-7.75-.25-4.26-.88-8.2-1.39-8.74-1.5-1.6-4.1 3.43-2.14 4zm124.78-4.33c-8.95.76-9.13 12.35-6.06 15.74 4.89 5.36 12.88-.8 8.02-7.69-.85-1.23-2.43-2.23-3.5-2.23-1.07 0-1.93-.33-1.92-.75 0-.4.44-1.42.96-2.25.8-1.24 1.31-1.28 2.99-.24 2.13 1.44 1.95.71 2.66-1.24.53-1.39.03-1.6-3.15-1.34zM420 6.35c0-3.74 2.45-2.16 2.83.47.22 1.53-.81 3.3-3.27 5.62-2.96 2.5-4.06 5.74-4.79 9.34l5.62-.13c4.8-.1 5.61-.4 5.61-2.04 0-1.63-.5-1.8-3.5-1.24-2.67.5-3.5.32-3.5-.78 0-2.06 3-1.22 5.53-5.07 2.71-4.14.48-9.04-2.48-9.35-4.04-.52-6.05 2.96-6.05 4.33 0 1.3 4 3.12 4-1.15zM201.4 3.38c-.3-.14-.37.23-.36 1.05.02 1.1.67 3.13 1.46 4.5.8 1.42 1.3 3 1.46 4.62.02 1.16-.84 3.24-1.93 4.61-1.08 1.38-1.7 2.78-1.36 3.11.34.33 1 .37 1.48.07.47-.3 1.58-1.9 2.45-3.6 1-1.9 1.3-4.1.98-6.18A19.94 19.94 0 0 0 203 5.43c-.82-1.24-1.32-1.9-1.6-2.05zm-70.9.05c-2.8 0-3.02.28-3.23 4-.13 2.2-.51 5.65-.85 7.66-.54 3.18-.28 3.9 1.93 5.34 1.52 1 3.38 1.4 4.6 1.02 1.2-.38 2.05-.2 2.05.41 0 .6.9 1.07 2 1.07s2-.36 2-.8c0-.44-.52-1.32-1.16-1.96-.87-.87-.87-1.5 0-2.54.9-1.09.72-1.78-.78-3.14-1.06-.97-2.39-1.47-2.95-1.13-.55.35-1.47-.24-2.04-1.3-.78-1.44-.65-2.23.5-3.19.84-.7 1.4-2.2 1.23-3.35-.23-1.59-1.02-2.09-3.3-2.09zm223.45.5c-1.42 0-2.4 1.01-3.19 3.25a83.39 83.39 0 0 1-3.95 8.6c-1.54 2.95-2.81 5.53-2.81 5.75 0 .22.68.4 1.51.4.88 0 2.55-2.34 3.97-5.55a61.59 61.59 0 0 1 4.49-8.4C355.09 6.4 356 4.86 356 4.53c0-.33-.92-.6-2.05-.6zm211.47 5.36c-1.85 4.75-4.06-2.47-2.96-4.3 1.75-2.81 4.03.83 2.96 4.3zm24.17-2.84c.36 1.44.1 3.14-.6 4-2 2.39-2.99 1.81-2.99-2.52 0-6.77 3.07-3.55 3.59-1.48zM178.11 8c-1.56 2.76-2.08 4.88-1.65 6.61.35 1.4 1.35 3.63 2.21 4.95.86 1.31 1.97 2.4 2.46 2.4.48 0 .88-.4.88-.87 0-.48-.9-2-2-3.4s-2-3.3-2-4.24c0-.93.96-3.03 2.12-4.67 1.32-1.85 1.77-3.34 1.2-3.91-.58-.58-1.81.61-3.22 3.13zm362.32-3.04c-5.75 0-6.42.2-6.42 2 0 1.1.56 2 1.26 2 .69 0 2.71-.43 4.5-.94 1.78-.5 3.24-.65 3.24-.3 0 .32-.87 2.43-1.94 4.67a37.7 37.7 0 0 0-2.6 7.81c-.65 3.55-.54 3.75 1.93 3.75 2.38 0 2.61-.35 2.61-4.02 0-2.22.87-6.5 1.92-9.5l1.93-5.48zm-386.1.12c-.47.46.45 3.59 1.02 5.25 1.14-7.03-.55-5.71-1.02-5.25zm-48.47 6.86c1.05 0 3.58-2.41 2.79-4.49-.77-1.94-3.51-1.94-4.06-.49-1.31 3.54.7 4.98 1.27 4.98Zm265.13-6c1.08 0 2.72 1.14 3.64 2.54.9 1.4 1.7 4.2 1.77 6.25.1 3.1-.25 3.76-2.08 4.02-1.6.23-2.62-.5-3.75-2.7a16.98 16.98 0 0 1-1.56-6.56c0-2.87.38-3.55 1.98-3.55zm239.52 3c1.05 1.76 2.89-.56 2-2-1.04-1.68-2.86.44-2 2zm-499.08 1.39c-1.84 2.42-4.55 5.27-6.03 6.35-1.68 1.23-2.4 2.42-1.93 3.2.53.86 2.17-.24 5.4-3.6 2.55-2.66 5.54-5.34 6.63-5.94 1.72-.95 1.8-1.34.64-2.75-1.23-1.47-1.7-1.16-4.71 2.74zm140.98-2.38c-.78 0-1.41.9-1.41 2 0 1.34-.67 2-2 2-1.1 0-2 .64-2 1.4 0 .92.7 1.23 2 .9 1.53-.4 2-.04 2 1.6 0 1.15.45 2.1 1 2.1s1-.9 1-2c0-1.33.67-2 2-2 1.1 0 2-.45 2-1s-.95-1-2.12-1c-1.62 0-2-.46-1.6-2 .35-1.3.04-2-.87-2zm432.09 0c-5.88 0-5.88 2 0 2 5.2.04 5.17-1.9 0-2zm-17.73.43c-.24-.23-3.66.76-7.6 2.22-3.95 1.45-7.17 3.14-7.17 3.75 0 .6 3.27 2.3 7.25 3.76 0 0 7.2 2.83 7.52 2.78.43.04.23-.52.23-1.23 0-.7-2.46-2.13-5.46-3.15-6.73-2.28-5.87-2.93-.04-4.56 2.5-.7 4.8-1.69 5.13-2.2.31-.5.37-1.13.14-1.37zm35.46 0c-.23.24-.17.86.14 1.37.83 1.33 9.46 3.13 10.13 4.2.63 1.04-10.5 3.9-10.5 5.62 0 .81 2.46.33 7.5-1.46 4.12-1.46 7.5-3.16 7.5-3.76 0-.6-3.22-2.3-7.17-3.75-3.94-1.46-7.36-2.45-7.6-2.22zM60 8.93c1.36 0 1.32-.02 1.24.94-.08.9-.06 1.66-1.24 1.56-1.15-.1-1.4-.18-1.25-1.34.16-1.22.22-1.15 1.25-1.16Zm575.2 2.93c-.47 1.42 3.08 1.4 2.6 0-.44-1.4-2.15-1.39-2.6 0zm-335.7-.93c-2.48 0-4.5.38-4.5.83 0 .46.3 1.14.67 1.5.36.37 2.39.67 4.5.67 2.74 0 3.83-.43 3.83-1.5 0-1.1-1.17-1.5-4.5-1.5zm218.54 3c.34 1.38.43 3.06.18 3.75-.55 1.6-3.12 1.68-3.83-.18-.3-.78-.4-2.47-.22-3.75.42-2.97 3.04-3.08 3.87.18zm163.24-1.07c-.4-.04-3.65 2.07 3.14 2.07 5.91 0 5.72-2 1.08-2-1.93 0-3.83-.03-4.22-.07zm-71.05 1.88c-.52 1.55 2.77 1.72 2.77-.4 0-2.1-2.27-1.07-2.77.4zm-480.61-.76c.3-.3 1.18.33 1.96 1.4.78 1.06 1.42 2.3 1.42 2.74 0 .45-.62.81-1.38.81-.76 0-1.65-1-1.96-2.2-.32-1.22-.34-2.45-.04-2.75zM565 17.43c0 3.33-1.93 2.84-2.62 1.05-.3-.8-.27-1.92.1-2.5.72-1.19 2.52-1.96 2.52 1.45zm-455.68 1.1c-1.2 3.12 4.68 4.33 4.68.29 0-2.83-3.97-2.12-4.68-.29zm528.13.02c-1.65-.64-3.98 5.4-2.15 5.37 1.17 0 4.36-4.52 2.16-5.37zm-314.86 1.24c-.74 1.19.62 2.14 1.58 2.14 1.77 0 .4-5.02-1.58-2.14zM12.05 19.4c-.6.37-.8 1.13-.45 1.7.42.67.98.65 1.7-.06 1.41-1.43.12-2.49-1.25-1.64zm264.42.53c-.8 0-1.47.42-1.47.92s-.3 1.7-.66 2.64c-.45 1.16-.23 1.57.66 1.28.72-.24 1.68-1.43 2.12-2.64.6-1.64.44-2.2-.65-2.2zm454.59 0c-1.18 0-2.71 2-.62 2 2.07 0 1.81-2 .62-2zM467 59.43c0 .83-.45 1.5-1 1.5-1.3 0-1.31 3 0 3 1.42 0 .67 10.34 1.67 11.34.39.38.9.6 1.43.66.9 0 3.9-2.64 3.9-4.57 0-1.85-2.71-1.96-3.31.32-.37 1.4-1.64-7.75.81-7.75 1.96 0 1.95-3 0-3a1.5 1.5 0 0 1-1.5-1.5c0-2-2-1.91-2 0zm91 .01c0 .8.7 3.18 1.53 5.3 1.38 3.43 1.38 4.13.01 6.76-2.52 4.83-1.3 5.43.39 5.43 1.35 0 2.03-.8 2.25-2.67.4-3.2 2.15-4.5 4.29-.39.87 1.68 2.28 3.06 3.12 3.06 2.64 0-.1-4.69-1.17-6.03-1.13-1.3-1.04-2 .61-4.5 3.57-5.4 1.07-5.47.19-5.47-1.08 0-2.25 1.24-2.97 3.15-.99 2.61-1.44 2.94-2.65 1.93-.81-.67-1.75-2.5-2.1-4.06-.8-3.68-3.5-4.44-3.5-2.5zm-430-.5v8.5c0 7.56.2 8.5 1.83 8.5 1.44 0 1.74-.6 1.4-2.87-.33-2.25.03-2.97 1.68-3.4 1.15-.3 2.09-1.08 2.09-1.74 0-.65-.9-1.42-2-1.7-1.3-.35-2-1.37-2-2.9 0-2.07.48-2.4 3.5-2.4 1.93 0 3.5-.45 3.5-1s-2.25-1-5-1zm120.27 9.5c0 8.6.18 9.5 1.87 9.5 1.52 0 1.86-.78 1.86-4.2 0-2.59.36-3.84.92-3.26.51.52 1.07 2.3 1.25 3.95.25 2.27.9 3.08 2.67 3.33 2.05.3 2.25.04 1.62-2a23.1 23.1 0 0 0-2.67-5.1l-1.95-2.75 2.58-3.07c1.42-1.68 2.58-3.48 2.58-3.99 0-.5-1.16-.92-2.58-.92-1.64 0-2.42.46-2.14 1.25.25.7.05 2.04-.45 3s-1.33 1.75-1.87 1.75c-.53 0-.96-1.57-.96-3.5 0-2.29-.47-3.5-1.44-3.5-.98.01-1.29 2.15-1.29 9.51zm289.44-7.93c-.34.87-.61 2.93-.61 4.56 0 1.73-.42 2.72-1 2.36-.55-.34-1-1.94-1-3.56 0-2.32-.44-2.94-2.1-2.94-1.62 0-1.95.42-1.41 1.75.38.96 1.43 4.8 2.31 8.5 1.25 5.22 2.02 6.75 3.4 6.75 2.62-.43 2.02-4.45 2.12-6.5.42 2.63-.14 6.23 3.24 6.5 2.1 0 2.44-.47 2.44-3.29 0-1.8.68-5.88 1.5-9.05.83-3.16 1.5-5.96 1.5-6.2 0-.25-.9-.46-2-.46-1.7 0-2.02.72-2.14 4.75l-.14 4.75-1.02-4.75c-.75-3.43-1.51-4.75-2.61-4.75-1.1.01-2.15.71-2.48 1.58zm146.65 6.06c.35 2.55.64 6.15.64 8 0 1.85-.45 3.36-1 3.36-1.32 0-1.23 3-.2 3 .45 0 1.65-.6 2.67-1.35 1.64-1.2 1.78-2.3 1.2-9.68-.35-4.59-.98-8.65-1.4-9.04a10.2 10.2 0 0 0-3.02-1.38c-3.65-1.1-2.3 2.45-1.16 2.46 1.14 0 1.87 1.7 2.27 4.63zM446.95 59.4c-1.33-.82-5.95 2.1-5.95 4.13 0 2.28 6 6.72 6 9.48 0 1.06-.51 1.92-1.14 1.92-.63 0-1.68-.74-2.35-1.65-1.37-1.86-4.7-1.33-1.88 1.8 2.66 2.9 6.64 1.4 7.67-.25.97-1.53 1.05-5.68-2.77-7.88-3.7-1.99-2.75-6.02-1.03-6.02 2.16 0 .83 3 3.04 3 1.2 0 1.31-.4.49-1.94-.5-1-1.22-1.88-2.08-2.59zm-412.17.53c-1.56 0-1.78 1.02-1.78 8.42 0 5.8.39 8.57 1.25 8.92 1.57.9 2.62.26 4.24-.34 2.29-.86 2.6-1.48 2.32-4.75-.25-3.06-.74-3.8-2.66-4.08-2.08-.3-2.3-.77-1.97-4.25.3-3.23.06-3.92-1.4-3.92zm52.72 0c-1.09 0-1.5 1.12-1.5 4.1 0 3.1-.34 3.98-1.38 3.58-1.44-.54-7.42 1.4-5.02 7.74.43 1.11 1.92 1.58 5 1.58H89v-8.5c0-6.89-.28-8.5-1.5-8.5zm330.51.9v8.55c0 6.94.28 8.56 1.5 8.56 1.2 0 1.5-1.5 1.5-7.5 0-4.33.42-7.5 1-7.5 1.45 0 .52 3 2.07 3 1.08 0 1.87-5.7-2.98-4.44zm-125 5.5c0 2.94-.28 6.77-.63 8.5-.55 2.74-.35 3.11 1.62 3.11 2.14 0 2.22-.3 1.81-6.72-.7-11.06.44 1.38 4.67 1.72 4.68-.73 4.95-11.62 4.55 3.25-.15 4.28.05 4.75 2.03 4.75 1.93 0 2.12-.38 1.58-3.12-.35-1.72-.63-6.22-.63-10 0-6.69-.07-6.88-2.53-6.88-2 0-2.64.62-3.12 3-.33 1.65-.96 3-1.4 3-.43 0-1.09-1.35-1.45-3-.55-2.5-1.15-3-3.8-3-2.65.01-2.7.11-2.7 5.38zm201.79 1.35c-.24 5.63-.6 6.8-2.14 7.1-1.65.3-1.82-.23-1.5-4.73.24-3.58-.05-5.24-.98-5.6a7.65 7.65 0 0 0-2-.5c-.37 0-.66 2.51-.64 5.6.02 4.33.46 5.91 1.94 7 1.05.76 2.45 1.4 3.11 1.4.66 0 2.1-.8 3.21-1.76 1.53-1.32 2.13-3.38 2.5-8.5.43-6.06.3-6.75-1.32-6.74-1.61 0-1.92.96-2.18 6.73zm26.7-6.73c-2.07 0-2.49.47-2.49 2.84 0 1.57-.53 4.36-1.17 6.2-1.02 2.93-1.26 3.1-1.93 1.4-.42-1.07-.8-3.19-.83-4.7-.05-2.1-.56-2.75-2.19-2.75-1.71 0-2 .43-1.48 2.25.61 2.32 1.18 4.66 1.7 7 1.92 8.54 5 3.96 5.96 1 .67-2.06 2.05-5.89 3.06-8.5l1.85-4.75zm-193.7 3c.26 1.75.6 5.16-3.79.5-1.3-1.38-2.83-2.5-3.42-2.5-.68 0-1.1 3.14-1.15 8.5-.06 6.76.22 8.5 1.36 8.5 1.17 0 1.3-1.08.74-5.62-1.31-8.14 1.3-4.49 3.5-.33 1.1 2.17 2.66 3.94 3.45 3.94 1.15 0 1.4-1.6 1.23-8-.32-11.96-2.36-7.97-1.92-4.99zM10.01 61.93c-3.54 1.93-1.82 4.4.71 1.9 1.4-1.42 3.29-.49 3.29 2.59 0 1.7-.64 2.46-2.25 2.7-3.58.49-2.77 5.1-1.82 6.22.6.73 2.2 1.1 3.58.84 2.34-.45 2.49-.86 2.49-6.83 0-9.47-3.7-8.77-6-7.42zm627.03-1.3c-2.74.74-3.9 2.17-3.97 6.84-.04 4.5.75 12.67 2.31 13.7.62.4.91.8 2.88.75 1.97-.05 1.3-2.93-.23-2.69-1.53.24-1.96-1.3-1.81-8.4.12-5.77.52-7.9 1.48-7.9 1.51 0 2.28-3.03-.66-2.3zM104.01 66.7c0 2.6 1.31 6.23 3.95 6.23 6.03 0 5.6-4 4.17-4-.48 0-1.45.7-2.16 1.55-1.02 1.24-1.45 1.3-2.1.25-1.48-2.19-.83-2.8 2.14-2.8 2.22 0 3-.47 3-1.8 0-5.35-9-6.05-9 .57zm72.5-4.77c-1.2 0-1.5 1.56-1.5 8 0 7.43.15 8 2.08 8 1.79 0 2.03-.5 1.75-3.75-.24-2.8.05-3.75 1.17-3.75 1.02 0 1.6 1.24 1.81 3.81.25 2.95.7 3.74 2 3.5 1.38-.27 1.74-1.75 1.98-8.07.28-7.22.16-7.74-1.75-7.74-1.37 0-2.04.66-2.04 2 0 1.34-.67 2-2 2s-2-.66-2-2c0-1.1-.67-2-1.5-2zm98 0c-1.19 0-1.5 1.44-1.5 6.94v6.94l3.75.4c2.57.1 4.16 1.68 4.25-1.28 0-6.33-5 4.5-5-7.5 0-4.22-.35-5.5-1.5-5.5zm72.98.18c-3.3.27-4.1.78-4.94 3.18-.88 2.5-.66 3.14 1.79 5.25 1.53 1.31 3.33 2.4 4 2.4.68 0 2.22-.7 3.45-1.56 1.22-.86 2.22-2.57 2.22-3.8 0-1.25-.58-3.06-1.29-4.03-.94-1.29-2.35-1.68-5.23-1.44zm-143.8.32c-.47 0-.45 1.98-.55 5-.15 4.53.11 5.5 1.48 5.5 1.35 0 1.54-.67 1.03-3.75-.42-2.33-.6-4.69-.68-7.05 0-.05-1.28.3-1.28.3zm-50.79 1.61c-5.07 5.07 2.95 7.89 3.17 7.89 1.5 0 1.94.7 1.94 3.03 0 1.73-.63 3.27-1.45 3.6-.94.35-4.26.58-2.57-2.59 1.26-2.14-.87-2.64-2.56-3.04-.23 0-.42 1.34-.42 2.97.01 3.72 3.68 5.54 7 5.74 2.43-.37 2.96-15.2 3.14-16.62.18-1.43-5.18-4-8.25-.98zm461.11 2.49c.74.17-3.29 6.5-5 10.73 0 .21 2.48.4 5.5.4 9.34 0 5.07-2.73 2.43-2.73-3.66 0-3.92-.03 2.17-12.11-13.53.57-13.68 1.74-5.1 3.71zM57.66 64.76c-5.8 6.42 2.55 14.74 6.79 11.22.86-.7 1.56-1.9 1.56-2.67 0-1.8-3-1.87-3 .19 0 2.18-3.41 1.56-3.83-1.43-.19-1.29-.07-3.42.27-4.74.79-3.14 3.56-2.97 3.56-.4 0 1.34.67 2 2 2 1.1 0 2-.6 2-1.34 0-2.25-5.4-7.21-9.35-2.83zm529.23-2.13c-1.7 0-2 .44-1.51 2.25.33 1.24.6 2.86.62 3.6 0 .73 1.17 3.23 3.01 4.15 3 1.5 4.45 6.61-1.38 5.5 0 0-1.74-1-2.6-.24-.13.98 4.68 3.73 5.62 3.73.78 0 1.6-.56 1.8-1.25.22-.68.63-4.5.92-8.5.43-5.89.25-7.25-.92-7.25-.93 0-1.44 1.06-1.44 3 0 1.65-.45 3-1 3s-1-1.8-1-4c0-3.4-.31-4-2.12-4zm71.12 8.3c0 10.63 2 10.63 2 0s-2-10.63-2 0zm-285.92-7.99c-2.56.3-2.6.41-2.8 9.55-.21 8.7-.1 9.25 1.8 9.25 1.82 0 1.97-.44 1.4-4.25-.56-3.79-.38-4.36 1.69-5.25a4.51 4.51 0 0 0 2.64-3.8c.18-1.55-.23-3.49-.91-4.3-.68-.83-2.4-1.36-3.82-1.2zm-25.45.3c1.02-.38 2.18.1 3.04 1.28a6.1 6.1 0 0 1 1.1 3.84c-.15 1.06-.8 2.1-1.41 2.3-.63.2-1.87-.36-2.75-1.24a5.94 5.94 0 0 1-1.62-3.58c0-1.08.74-2.25 1.64-2.6zm-114.42.43c-.22-.15-2.86.7-2.86.7-2.01.45-1.56 1.14-1.2 6.07.1 2.48.21 5.3.26 6.25.05 1.22-.68 1.76-2.41 1.77-1.56.01-2.61.67-2.82 1.75-.6 3.06 5.83 1.37 6.8.76 1.07-.68 1.6-3.28 1.86-9.12 0 0 .6-8.03.37-8.18zM107.5 63.5c1.96 0 1.96 2.8 0 2.8s-1.96-2.8 0-2.8zm293.5-.14c0-2.99-5.99.54-8.43 1.7-2.45 1.15-1.99 9.38 3.43 7.95 1.78-.46 2-.03 2 3.89 0 3.82.28 4.4 2.12 4.4 1.7 0 2-.43 1.51-2.25-.82-5.18-.62-10.46-.63-15.69zm-244.37 1.57c2.25 0 1.05 4.28-.38 4.76-2.26.72-3.35-4.76.38-4.76zm216.37.3c.55.34 1 1.47 1 2.5 0 1.04-.45 2.16-1 2.5-.58.36-1-.67-1-2.5 0-1.82.41-2.86 1-2.5zm24 2.8c0 3.4-3 3.92-3-.06 0-2.37 3-2.49 3 .06zm-384.43 1.9c2.37 0 1.08 4.28-.32 4.77-1.64.5-1.92-4.77.32-4.77zm24.43 0c1.66.15 1.99 4.99 0 5-2.12.01-1.32-5.12 0-5zm668.64 1.5c-.77 2 1.07 1.85 1.65.25.37-1 .72-1 1.78 0 1.72 1.62 4.64 1.53 5.47.2.84-1.41-.38-2.86-1.55-.93-.72 1.17-1.16 1.21-2.15.22-1.68-1.53-4.28-1.7-5.2.26zM86 73c0 1.08-.68 1.94-1.53 1.94-5.8 0 1.53-9.48 1.53-1.94Zm116.89-12.03c.1.9 2.08.8 2.45-.25.71-2.03-2.69-1.58-2.45.25zm25.27-.35c-.07.2-1.05 3.83 3.29 1.66.57-.28.6-1.28.63-1.86.08-1.6-3.61-.63-3.92.2zM203.5 29.93c-1.23 0-1.5 1.78-1.5 10 0 9.54.1 10 2.13 10 1.9 0 2.07-.4 1.51-3.75a78.8 78.8 0 0 1-.63-10c0-4.88-.34-6.25-1.51-6.25zm68.5 21.9 4.25.37 6.07.56c1.35.13 1.74-.4 1.5-2.08-.28-2-.8-2.2-4.72-1.9l-4.4.32.68-5.83c.38-3.2.95-7.53 1.28-9.59.56-3.53 1.63-3.94-4.9-3.72zM114.24 30.11c-1.32-.33-5.67.78-8.49.81-1.54.01-1.75 1.14-1.75 9.51v9.5h4.5c3.33 0 4.5-.39 4.5-1.5 0-1-1-1.5-3-1.5-2.53 0-3-.39-3-2.5 0-1.83.53-2.5 2-2.5 1.33 0 2-.66 2-2 0-1.33-.67-2-2-2-1.3 0-2-.66-2-1.9 0-1.46.96-2.08 4-2.6 2.65-.44 4-1.2 4-2.22 0-.6-.2-.96-.76-1.1zm362.13.62c-.26-.18-4.18-.17-8.72.02-6.31.25-8.25.67-8.25 1.76 0 .8.96 1.42 2.14 1.42 2.05 0 2.12.33 1.59 7.42-.31 4.08-.3 7.68.02 8 .32.32 1.43.58 2.47.58 1.75 0 1.84-.6 1.2-8.5l-.7-8.5h3.9c2.13-.02 4.54-.45 5.35-.96.81-.5 1.26-1.07 1-1.24zM33 30.93v8.92c0 10.61.89 10.8 5.44 9.1 3.54-1.31 2.7-4.66 1.56-7.02-.67-1.26-.67-2.08 0-2.5 1.28-.79 1.37-5.73-.2-7.3-1.98-1.44-4.47-1.2-6.8-1.2zm56.02 4.04c-1.19-2.2-8.1-4.13-8.17-4.03-1.23.76-.85 12.96-.85 18.99 9.46.87 11.5-7.42 9.02-14.96ZM128 30.93v9.5c0 7.78.27 9.5 1.5 9.5 1.08 0 1.5-1.1 1.5-4 0-3.33.33-4 2-4 1.33 0 2-.66 2-2 0-1.33-.67-2-2-2-1.29 0-2-.67-2-1.87 0-1.4.99-2.03 4-2.5 2.2-.36 4-1.1 4-1.64 0-.54-2.48-.99-5.5-.99zm48.75 0c-.91 0-1.26 2.6-1.28 9.5-.03 8.46.16 9.5 1.75 9.5 1.41 0 1.78-.83 1.78-4 0-5.22 2-5.22 2 0 0 3.6.25 4 2.5 4 2.5 0 2.5-.03 2.5-9.5 0-8.83-.14-9.5-2-9.5-1.56 0-2 .67-2 3 0 2.34-.44 3-2 3s-2-.66-2-3c0-1.73-.53-3-1.25-3zm52.84 0c-2.38 0-2.4.07-1.85 8 .39 5.66.21 8-.6 8-.63 0-1.14-.67-1.14-1.5 0-1.99-3-1.8-3-.43 0 .58.47 1.93 1.04 3 .56 1.06 1.44 1.93 1.94 1.93s2.03-1 3.4-2.25c2.1-1.88 2.54-3.24 2.68-8.25.1-3.3.13-6.56.06-7.25-.07-.69-1.2-1.25-2.53-1.25zm17.91 0c-1.23 0-1.5 1.72-1.5 9.5 0 8.84.14 9.5 2 9.5 1.68 0 2-.67 2-4.17 0-2.29.28-3.89.62-3.55.33.34.91 2.1 1.28 3.92.54 2.64 1.21 3.37 3.39 3.62 1.74.2 2.7-.15 2.68-1-.02-.73-1.12-3.09-2.45-5.25l-2.41-3.93 2.94-3.35c1.62-1.85 2.95-3.8 2.95-4.32 0-.53-1.09-.97-2.42-.97-1.87 0-2.68.78-3.55 3.41-.62 1.88-1.78 3.66-2.58 3.97-1.12.43-1.45-.35-1.45-3.4 0-2.87-.42-3.98-1.5-3.98zm81.5 0c-.55 0-1 1.9-1 4.2v4.2l-3.8-3.7c-2.08-2.03-4.33-3.7-5-3.7-.86 0-1.2 2.86-1.2 10 0 8.58.23 10 1.63 10 1.42 0 1.54-.9.94-7-.38-3.85-.46-7-.17-7 .29 0 2 2.7 3.81 6 2.2 4.01 3.91 5.98 5.18 6 1.67 0 1.81-.53 1.25-4.64a84.7 84.7 0 0 1-.64-9.5c0-2.67-.45-4.86-1-4.86zm58 8.77c0 2.64.8 4.74 2.66 6.95 2.06 2.44 3.29 3.08 5.38 2.77 1.85-.27 3.08.18 3.85 1.41.62 1 2.05 1.81 3.18 1.81 1.35 0 1.8-.42 1.34-1.25a24.9 24.9 0 0 0-2.25-3.04c-1.03-1.2-1.45-3.4-1.28-6.66.16-2.98-.36-6.08-1.34-7.96-1.22-2.37-2.26-3.09-4.35-3.09s-3.73.87-5.1 2.69A10.53 10.53 0 0 0 387 39.7Zm30.15-8.77c-.03 6.07-.9 12.2-.36 18.25.18.41 1.02.75 1.87.75 1.2 0 1.46-.9 1.17-4-.27-2.77 0-4 .9-4 .81 0 1.27 1.42 1.27 4 0 3.34.33 4 2 4 1.35 0 2-.67 2-2.05 0-1.13-.66-3.33-1.48-4.9-1.3-2.5-1.3-3 0-4.07a4.52 4.52 0 0 0 1.48-3.03c0-1-.7-2.5-1.57-3.38-2.06-1.77-7.28-1.57-7.28-1.57zm71.99 0c-1.98 0-2.14.52-2.14 6.93 0 4.97.45 7.37 1.57 8.5a5.6 5.6 0 0 0 3.31 1.57c.96 0 2.6-.62 3.64-1.39 1.48-1.08 2-2.97 2.3-8.5.39-6.79.3-7.1-1.8-7.1-2.11 0-2.18.27-1.54 5.84.56 4.81.38 6.15-1.04 7.57-1.26 1.26-1.93 1.4-2.46.55-.4-.65-.5-4.06-.22-7.58.48-6.02.39-6.39-1.62-6.39zm44.35 0c-1.82 0-2.04.45-1.6 3.25.29 1.8 1.11 6.06 1.84 9.5 1 4.68 1.75 6.25 3.01 6.25.93 0 1.92-.56 2.2-1.25.36-.89.75-.93 1.33-.15a5.6 5.6 0 0 0 2.33 1.6c1.16.37 1.75-1 2.62-6.1.62-3.63 1.47-8.1 1.9-9.95.68-2.95.55-3.3-1.13-3-1.45.3-2.03 1.53-2.48 5.36-.38 3.17-.66 3.9-.77 2-.1-1.66-.44-4.02-.77-5.26-.34-1.28-1.38-2.25-2.41-2.25-1.4 0-2.03 1.2-2.76 5.25l-.96 5.25-.12-5.25c-.1-4.63-.37-5.25-2.23-5.25zm27.52 0c-1.97 0-1.99.12-.43 3.75l2.09 4.92c.26.64-.18 2.22-.99 3.5a22.92 22.92 0 0 0-2.17 4.67c-.57 1.9-.37 2.28 1.08 2 1.03-.2 2.14-1.7 2.62-3.59.47-1.79 1.2-3.25 1.62-3.25.42 0 1.31.54 1.97 1.2.66.66 1.2 2.24 1.2 3.5 0 1.63.58 2.3 2 2.3 1.1 0 2-.6 2-1.36 0-.75-1.08-2.95-2.4-4.88l-2.38-3.53 1.89-4.22c.72-1.5 1.35-3.05 1.89-4.62 0-.2-.86-.39-1.92-.39-1.32 0-2.13.94-2.58 3-.36 1.65-1.02 3-1.46 3-.43 0-1.06-1.35-1.39-3-.43-2.15-1.17-3-2.64-3zm24.05 0c-1.8 0-1.85.3-.71 4.25.76 2.68 2.03 4.62 3.43 5.24 1.29.57 2.02 1.61 1.76 2.5-.24.83-.73 2.72-1.08 4.2-.56 2.35-.39 2.6 1.45 2.12 1.77-.46 2.1-1.3 2.1-5.67.01-2.83.3-6.83.63-8.89.56-3.37.4-3.75-1.55-3.75-1.95 0-2.11.37-1.52 3.5.4 2.11.25 3.5-.35 3.5-.55 0-1.28-.7-1.61-1.58a11.5 11.5 0 0 1-.61-3.5c0-1.23-.7-1.92-1.94-1.92zm26.47 0c-4.32 0-5.35.3-4.92 1.43.4 1.03 1.56 1.26 4.22.85 3.63-.57 3.65-.56 1.87 1.46-1 1.12-2.68 4.34-3.75 7.16-1.07 2.82-1.95 5.8-1.95 6.61 0 1.14 1.28 1.5 5.38 1.5 4.74 0 5.46-.28 5.99-2.26.92-3 .74-3.55-2.42-2.58-1.68.6-3.29.83-3.57.54-.29-.28.64-3.4 2.05-6.94 1.41-3.53 2.57-6.73 2.57-7.1 0-.37-2.46-.67-5.47-.67zm144.97 2c2.34 2.57 4.41 2.65 2 0-2.34-2.57-4.41-2.65-2 0zM158.25 50.57c1.4-.72 1.75-.5 1.75 1.13 0 1.14.66 2.05 1.5 2.03 2.21-.04 1.64-10.88 1.5-15-2.36.28-7.63-1.28-8 2 0 1.48.67 2 2.57 2 5.45 0-.01 8.26-3.13 4.56-1.7-2.27-2.76-15.06 2.6-15.06 4.2 0 1.97 4.5 4.53 4.5 1.95 0 1.76-2-.22-4.17-10.07-7.91-14.11 8.1-10.29 15.29 2.03 3.33 5.54 3.6 7.19 2.72zm147.88-19.46c-.31-.12-.73-.08-1.28 0a2.84 2.84 0 0 0-2.56 2.5 6.07 6.07 0 0 1-1.7 3.33c-1.12.93-1.55.52-2.25-2.18-.67-2.6-1.44-3.4-3.55-3.64-2.36-.28-2.69.03-2.7 2.5 0 1.55-.3 5.85-.64 9.56-.56 5.94-.83 7.27 2.54 7.27s.36-12.07.09-15.02c4.33 12.97 6.16 12.4 9.91 1 .29 3.59-.72 13.58 1.51 13.48 2.24-.1 1.6-1.71 1.6-9.55 0-7-.03-8.88-.97-9.25zm40.31.25c-1.7.42-3.08 1.85-4.06 4.21-.88 2.1-1.23 4.75-.86 6.44.34 1.58 1.98 4 3.63 5.4 1.65 1.38 3.42 2.52 3.93 2.52.5 0 1.8-.89 2.9-1.97a11.58 11.58 0 0 0 2.6-4.5c.35-1.4.34-4.1-.02-6.04-.4-2.12-1.62-4.14-3.1-5.1a6.4 6.4 0 0 0-5.02-.96zM57.82 48.89c2.13 1.24 4.44 1.53 6.38-.7 4.38-5.18 1.12-7.4-1.02-2.76-1.51 3.37-3.95 2.65-4.7 1.48-.75-1.23-1.04-11.63.58-13.54 1.69-2.07 2.84-1.78 4.12 1.06 2.37 5.19 4.8.86.44-2.01-1.63-1.28-3.2-1.1-5-.36-6.05 2.76-4.63 14.62-.8 16.83zM369 31.93V41c0 8.1.19 9.04 1.75 8.74 1.33-.25 1.67-1.15 1.44-3.82-.24-2.83.14-3.68 2-4.49 1.27-.55 2.45-1.82 2.64-2.83.2-1 .07-2.92-.26-4.25-.9-3.28-4.87-2.42-7.57-2.42zm142.69 0c-.53 0-.61 2.02-.21 4.72a45.8 45.8 0 0 0 2.2 8.44c.97 2.42 2.25 3.85 3.66 4.07 1.19.2 2.24.33 2.34.3.1-.03.82-3.76 1.6-8.3 1.33-7.69 1.31-8.23-.31-8.23-.96 0-2 1.01-2.34 2.25a37.24 37.24 0 0 0-.7 6.75l-.1 4.5-1.37-3a18.08 18.08 0 0 1-1.42-6.05c-.02-1.68-.58-3.59-1.24-4.25-.66-.66-1.61-1.2-2.11-1.2zm144.32 0c-1.98 0-1.97.1.4 3.75a36.2 36.2 0 0 1 3.67 8c1.02 3.51 1.66 4.25 3.7 4.25 2.45 0 2.45 0 .64-2.75a58.1 58.1 0 0 1-3.05-5.25 68.5 68.5 0 0 1-2.28-5.25c-.67-1.76-1.77-2.75-3.08-2.75zm47.99 3.5c-5.18 5.34-.46 3.66 1.5 1.5 2.26-2.49 3.26-2.57 6.18.17 3.07 2.9 4.49 1.64.81-2.18-3.57-3.7-4.25-3.85-8.49.51zm-262.29 4.7c.57 2.64 6.36 7.86 3.6 10.08-2.15 1.45-10-.43-10 .78 0 .44.3 1.1.67 1.47.55.56 9.65 1.59 12.5-.98 2.37-2.13 2.65-3.7-1.67-9.78-7.22-10.16-1.09-9.47.31-6.94 1.4 2.48 2.67-.35 1.11-2.22-2.8-2.9-10.03.11-6.52 7.59zM6.57 46.19c-.88 3.81 2.38 3.5 3.09-.25s4.5-3.87 4.26.45c-.25 4.32 2.98 3.54 3.41 2.8.6-1-2.04-16.85-2.27-16.85-4.34-.06-5.58 1.75-8.49 13.85Zm342.36 1.3c-2.9 1.85-3.96-14.6-.85-14.54 1.82 0 4.08 12.58.85 14.54zm47.99-11.7c.58 1.61.94 3.3 1.09 5 0 1.02-.45 1.85-1 1.85a1 1 0 0 1-1-1c0-.55-.93-1-2.07-1h-2.07l2.07 2.64c1.14 1.45 2.07 3.02 2.07 3.5 0 .47-.66.86-1.46.86-.81 0-1.94-.87-2.5-1.93-.57-1.07-1.04-3.73-1.04-5.92 0-2.2.27-4.7.6-5.57a2.7 2.7 0 0 1 2.45-1.56c1.07 0 2.17 1.18 2.86 3.13zm237.09-2.84v9.5c0 9.46.01 9.5 2.5 9.5 1.63 0 2.5-.57 2.5-1.6 0-1.03-.55-1.4-1.5-1.05-1.25.48-1.5-.66-1.5-6.89 0-5.83.32-7.47 1.44-7.47.8 0 1.72-.45 2.06-1 .36-.58-.66-1-2.44-1zm49 0c-1.65 0-3 .44-3 1 0 .54.92 1 2.04 1 1.9 0 2.03.51 1.75 7.24-.22 5.45-.64 7.25-1.7 7.25-.79 0-1.61.56-1.84 1.25-.27.82.64 1.25 2.67 1.25h3.08v-19zm-261.9.55c1 .6 1.59 5.43-.6 5.43-.82 0-1.5-.64-1.5-1.42 0-.78.27-2.12.6-2.99.34-.87 1.01-1.33 1.5-1.02zm-48.4 1c2.17-.08 1.89 4.98 0 5-1.9.02-2.18-4.92 0-5zm-288.67.6c5.22.78 3.5 10.51.21 11.61-2 .64-.93-7.15-1.89-10.27-.4-1.33-.14-1.6 1.68-1.34zm648.52 14.83c-14.66 0-13.47 2-.62 2 12.54 0 15.59-2 .62-2zM37.01 32.44c2.32-.21 1.8 5.94 0 6-1.8.06-2.32-5.79 0-6zM37 42.93c2.08-.03 1.71 4.26 0 4.5-1.71.24-2.08-4.47 0-4.5zm-24.15-8.1c1.48-.35 1.6 3.93-.69 3.73-2.3-.2-.8-3.39.69-3.73z"/>
  </g>
  <g>
    <path fill="url(#g1)" d="M35 1.93c-.55 0-1 .9-1 2s.45 2 1 2 1-.9 1-2-.45-2-1-2zm3 0c-.55 0-1 .9-1 2s.45 2 1 2 1-.9 1-2-.45-2-1-2zM561.7 3.2c-3.52 2.69-2.68 7.17-1.9 7.94.62.6.57 2-.12 3.82-.9 2.38-.77 3.22.78 4.92 2.5 2.77 5.08 2.3 6.53.56.7-.83 1.03-2.93.76-4.74-.26-1.78-.1-4.53.34-6.1 1.12-3.86-2.84-8.72-6.39-6.4zM11 10.07c0 4.21.3 7.86 1.5 7.86 1.06 0 1.5-1.1 1.52-3.75.02-2.06.41-5.4.88-7.4.78-3.37.65-3.7-1.53-4.12C9.8 1.89 11 5.86 11 10.07Zm48-5.61c0 .83.1 2.6-1.54 2.65-2.65.1-3.6 1.22-2.21 1.55.96.23 2.05-.57 1.75 1.23-.35 2.1-1.01 1.1-2.25 1.44-2.11.6-2.57 2.17-.48 2 2.86-.25 2.51-.14 1.58 2.85-.83 2.63 2.15 2.17 2.15-.25 0-1.1-.33-2.23 1.12-2 1.42.23.88.88.6 1.95-.7 2.68 1.85 3.32 2.09.5.2-2.4-.13-3.68 2.2-3.05 2.07.54 2.8-1.87.74-1.77-1.51.07-2.06-.1-1.75-1.87.13-.78-.42-1.18 2.33-1.32 1.7-.08 1.05-1.22-.55-1.24-2.18-.02-.8-1.1-.5-2.46.57-2.66-1.6-1.9-1.86.25-.13 1.13-.02 2.04-1.23 2.01-1.32-.03-.77-.9-.48-2C61.42 2.27 59 2.47 59 4.46Zm24 .37c0 1.04-.68 2.15-1.5 2.46-.82.32-1.5 1.46-1.5 2.54s1.35 2.93 3 4.1c5.73 4.1 1.86 6.43-.71 3.9-1.15-1.16-5-1.34-1.51 1.65C82 20.52 83 21.95 83 22.65c0 1.67 2 1.67 2 .02 0-.69.9-1.82 2-2.5 1.93-1.23 3.55-4.48-1-7.03-1.64-.94-3-2.47-3-3.4 0-2.08 1.56-3.4 2.8-1.2.5.9 1.53 1.45 2.28 1.2 1-.33.77-.96-.86-2.35C86 6.34 85 4.9 85 4.2c0-1.64-2-1.88-2 .63Zm290.1-1.9c-1.1 0-3.25 1.1-4.8 2.41-2.3 1.98-2.8 3.23-2.8 6.9 0 3 .63 5.18 1.9 6.6a7.07 7.07 0 0 0 4.8 2.1c1.74 0 3.87-.99 5.34-2.46 1.81-1.8 2.46-3.54 2.46-6.55 0-3-.65-4.74-2.46-6.54-1.35-1.35-3.34-2.46-4.44-2.46zm69.83 0c-4.26 0-3.48 2.8-.26 3.19 1.47.17 2.85.83 3.06 1.47-.58 3.57-2.6 3.94-4.23 5.46-.68.63 2.22 1.7 2.22 1.7 3.3 2.48.99 4.53-1.6 3.72-3.57-1.14-1.71 2.54-1.45 2.79.8.82 2.95.97 5.4-.36 2.95-1.58 1.89-6.9.93-7.47-.63-.39-.44-1.2.5-2.13 3.34-3.53.53-8.37-4.57-8.37zm26.77.56c-1.1.43-1.28 1.4-.7 3.95.42 1.87.52 3.64.22 3.94-2.46 1.29-3.27.09-2.87-2.45.51-2.56.3-3-1.48-3-1.5 0-1.91.45-1.48 1.58.34.87.61 2.67.61 4 0 1.92.52 2.42 2.5 2.42 2 0 2.5.5 2.5 2.5 0 3.4 3 3.4 3 0 0-1.55.57-2.5 1.5-2.5 1.92 0 2-1.85-.1-2.68-1.25-.47-1.47-1.46-1-4.46.74-4.56-.48-4.15-2.7-3.3zm16.91 8.09c.5 1.88.97 2.05 3.62 1.28 1.68-.48 3.44-.63 3.91-.34 1.14.73 1.03 4.9.19 5.75-.37.36-1.4 0-2.29-.8-2.65-2.18-6.04-.17-6.04.35 0 .36 1.24 1.41 2.75 2.35 10 6.23 10.41-7.93 7.71-10.63-1.03-1.03-2.52-1.35-4.5-.95-2.38.47-2.96.25-2.96-1.16 0-1.5.72-1.68 5-1.27 4.37.42 5 .25 5-1.37-1.37-3.36-13-1.86-13-1.86s-.01 5.8.61 8.65zm96.4-6.67c-2.3 5.34 2.24 9.71 6.01 8.73 1.5-.4 1.69-.1 1.06 1.6-.98 2.67-3.08 3.2-3.08 1.74 0-.82-.55-.82-2.06 0-1.66.87-1.83 1.38-.88 2.52 2.83 3.48 8.77-.81 9.63-7.3 1.5-11.21-8.95-10.52-10.68-7.29ZM752 4.93c-1.54 1.55-2 3.33-2 7.85 0 4.32.46 6.24 1.75 7.37.96.84 2.42 1.77 3.25 2.07a13 13 0 0 0 3.25.63c.96.05 1.75-.6 1.75-1.42 0-1-1-1.5-2.96-1.5-1.91 0-3.34-.69-4-1.93-.57-1.07-1.04-3.98-1.04-6.48 0-9.54 10-10.27 10 .38 0 6.06-1.79 7.99-2.2.91-.2-3.5-.84-5.5-1.97-6.22-1.2-.76-2.1-.67-3.29.3-1.08.9-1.3 1.7-.62 2.36.66.66 1.46.61 2.38-.15.76-.63 1.68-.86 2.04-.5.36.37.66 1.04.66 1.5 0 .46-.88.83-1.96.83-1.09 0-2.46.9-3.05 2.01-.7 1.31-.74 2.61-.12 3.72.57 1.02 2.38 1.8 4.53 1.93 2.76.17 3.85-.26 4.7-1.86.62-1.15.89-3.86.6-6.02-.3-2.16-1.31-4.8-2.27-5.86-2.82-2.67-6.7-2.35-9.43.08ZM727.18 6.3c-.29 4.19 7.73-7.4 7.82 1.33 0 1.85-.55 2.3-2.78 2.3-2.63 0-2.75.2-2.4 4 .51 5.13 2.18 4.84 2.18 1.4 0-2.26.35-2.57 2.5-2.16 4.4.87 4.3-2.44 3.5-5.25-2.5-8.67-10.23-4.76-10.82-1.62ZM228.34 3.69c-.28.7-.87 1.03-1.3.77-.44-.27-1.8.18-.32 1.7-1.52 2.04-.34 1.6.66 1.6-.14.75.3 1.15 1.29.22 1.8 1.27.57-.45 1.07-.57 1.29.53 1.76.08 1.35-.48-.41-.56-.74-.75-.39-1.66.43-1.12.26-1.43-.53-.94-.66.4-1.2.15-1.25-.59-.06-.95-.18-1.07-.58-.05zm165.64.25c-.51.82-1.87 3.04-.28 3.5 1.1.31.6 4.36.55 7.24-.08 4.4.2 5.25 1.68 5.25 1.58 0 1.72-.82 1.3-7.75-.25-4.26-.88-8.2-1.39-8.74-.75-.8-1.4-.22-1.86.5zm124.5-.83c-8.95.76-9.13 12.35-6.06 15.74 4.89 5.36 12.87-.8 8.02-7.69-.85-1.23-2.43-2.23-3.5-2.23-1.07 0-1.93-.33-1.92-.75 0-.4.44-1.42.96-2.25.8-1.24 1.31-1.28 2.99-.24 2.13 1.44 1.95.71 2.66-1.24.53-1.39.03-1.6-3.15-1.34zM416 7.5c0 1.3 4 3.12 4-1.15 0-3.74 2.45-2.16 2.83.47.22 1.53-.81 3.3-3.27 5.62-2.96 2.5-4.06 5.74-4.79 9.34l5.62-.13c4.8-.1 5.61-.4 5.61-2.04 0-1.63-.5-1.8-3.5-1.24-2.67.5-3.5.32-3.5-.78 0-2.06 3-1.22 5.53-5.07 2.71-4.14.48-9.04-2.48-9.35C418.04 2.66 416 6.1 416 7.5ZM201.4 3.38c-.3-.14-.37.23-.36 1.05.02 1.1.67 3.13 1.46 4.5.8 1.42 1.3 3 1.46 4.62.02 1.16-.84 3.24-1.93 4.61-1.08 1.38-1.7 2.78-1.36 3.11.34.33 1 .37 1.48.07.47-.3 1.58-1.9 2.45-3.6a9.93 9.93 0 0 0 .98-6.18A20.21 20.21 0 0 0 203 5.43c-.82-1.24-1.32-1.9-1.6-2.05zm-70.9.05c-2.8 0-3.02.28-3.23 4 0 4.19-.02 4.16-.85 7.66-.54 3.18-.28 3.9 1.93 5.34 1.52 1 3.38 1.4 4.6 1.02 1.2-.38 2.05-.2 2.05.41 0 .6.9 1.07 2 1.07s2-.36 2-.8c0-.44-.52-1.32-1.16-1.96-.87-.87-.87-1.5 0-2.54.9-1.09.72-1.78-.78-3.14-1.06-.97-2.39-1.47-2.95-1.13-.55.35-1.47-.24-2.04-1.3-.78-1.44-.65-2.23.5-3.19.84-.7 1.4-2.2 1.23-3.35-.23-1.59-1.02-2.09-3.3-2.09zm223.45.5c-1.42 0-2.4 1.01-3.19 3.25a82.28 82.28 0 0 1-3.95 8.6c-1.54 2.95-2.81 5.53-2.81 5.75 0 .22.68.4 1.51.4.88 0 2.55-2.34 3.97-5.55a60.6 60.6 0 0 1 4.49-8.4C355.09 6.4 356 4.86 356 4.53c0-.33-.92-.6-2.05-.6zm211.47 5.36c-1.85 4.75-4.06-2.47-2.96-4.3 1.74-2.8 4.03.82 2.96 4.3zm24.17-2.84c.36 1.44.1 3.14-.6 4-2 2.39-2.99 1.81-2.99-2.52 0-6.77 3.07-3.55 3.59-1.48zm-458.84.16c-.41 1.75-.47 1.75-1.2.04-.44-.99-.5-2.08-.16-2.42.79-.79 1.94.03 1.36 2.38zM178.11 8c-1.56 2.76-2.08 4.88-1.65 6.61.35 1.4 1.35 3.63 2.21 4.95.86 1.31 1.97 2.4 2.46 2.4.48 0 .88-.4.88-.87 0-.48-.9-2-2-3.4s-2-3.3-2-4.24c0-.93.96-3.03 2.12-4.67 1.32-1.85 1.77-3.34 1.2-3.91-.58-.58-1.81.61-3.22 3.13zm362.32-3.04c-5.75 0-6.42.2-6.42 2 0 1.1.56 2 1.26 2 .69 0 2.71-.43 4.5-.94 1.78-.5 3.24-.65 3.24-.3 0 .32-.87 2.43-1.94 4.67a37.68 37.68 0 0 0-2.6 7.81c-.65 3.55-.54 3.75 1.93 3.75 2.38 0 2.61-.35 2.61-4.02 0-2.22.87-6.5 1.92-9.5l1.93-5.48zm-385.69-.08c-1.57.32.04 3.79.61 5.45.48-3.06.96-5.77-.61-5.45zm-48.88 7.06c1.05 0 3.58-2.41 2.79-4.49-.77-1.94-3.51-1.94-4.06-.49-1.31 3.54.7 4.98 1.27 4.98Zm265.13-6c1.08 0 2.72 1.14 3.64 2.54.9 1.4 1.7 4.2 1.77 6.25.1 3.1-.25 3.76-2.08 4.02-1.6.23-2.62-.5-3.75-2.7a16.98 16.98 0 0 1-1.56-6.56c0-2.87.38-3.55 1.98-3.55zm239.52 3c1.05 1.76 2.89-.56 2-2-1.04-1.68-2.86.44-2 2zm-499.08 1.39c-5.18 6.8-9.06 7.73-7.96 9.55 1.21 1.97 8.46-7.58 12.03-9.54 1.72-.95 1.8-1.34.64-2.75-1.23-1.47-1.7-1.16-4.71 2.74zm-4.77-2.63c.28.7.28 1.82 0 2.5-1.23 1.18-1.05-4.06 0-2.5zm145.75.25c-.78 0-1.41.9-1.41 2 0 1.34-.67 2-2 2-1.1 0-2 .64-2 1.4 0 .92.7 1.23 2 .9 1.53-.4 2-.04 2 1.6 0 1.15.45 2.1 1 2.1s1-.9 1-2c0-1.33.67-2 2-2 1.1 0 2-.45 2-1s-.95-1-2.12-1c-1.62 0-2-.46-1.6-2 .35-1.3.04-2-.87-2zm432.09 0c-5.88 0-5.88 2 0 2 5.2.04 5.17-1.9 0-2zm-17.73.43c-.24-.23-3.66.76-7.6 2.22-3.95 1.45-7.17 3.14-7.17 3.75 0 .6 3.27 2.3 7.25 3.76l7.5 2.75c.02 0 .25-.49.25-1.2 0-.7-2.46-2.13-5.46-3.15-6.73-2.28-5.87-2.93-.04-4.56 2.5-.7 4.8-1.69 5.13-2.2.31-.5.37-1.13.14-1.37zm35.46 0c-.23.24-.17.86.14 1.37.83 1.33 9.46 3.13 10.13 4.2.63 1.04-10.5 3.9-10.5 5.62 0 .81 2.46.33 7.5-1.46 4.12-1.46 7.5-3.16 7.5-3.76 0-.6-3.22-2.3-7.17-3.75-3.94-1.46-7.36-2.45-7.6-2.22zM60 8.93c1.36 0 1.32-.02 1.24.94-.08.9-.06 1.66-1.24 1.56-1.15-.1-1.4-.18-1.25-1.34.16-1.22.22-1.15 1.25-1.16Zm575.2 2.93c-.47 1.42 3.08 1.4 2.6 0-.44-1.4-2.15-1.39-2.6 0zm-335.7-.93c-2.48 0-4.5.38-4.5.83 0 .46.3 1.14.67 1.5.36.37 2.39.67 4.5.67 2.74 0 3.83-.43 3.83-1.5 0-1.1-1.17-1.5-4.5-1.5zm218.54 3c.34 1.38.43 3.06.18 3.75-.55 1.6-3.12 1.68-3.83-.18-.3-.78-.4-2.47-.22-3.75.42-2.97 3.04-3.08 3.87.18zm239.96.44c0 3.35-2 3.14-2 .62 0-2.44 2-4.09 2-.62zm-76.72-1.51c-.4-.04-3.65 2.07 3.14 2.07 5.91 0 5.72-2 1.08-2-1.93 0-3.83-.03-4.22-.07zm-71.05 1.88c-.52 1.55 2.77 1.72 2.77-.4 0-2.1-2.27-1.07-2.77.4zm-480.61-.76c.3-.3 1.18.33 1.96 1.4.78 1.06 1.42 2.3 1.42 2.74 0 .45-.62.81-1.38.81-.76 0-1.65-1-1.96-2.2-.32-1.22-.34-2.45-.04-2.75zM565 17.43c0 3.33-1.93 2.84-2.62 1.05-.3-.8-.27-1.92.1-2.5.72-1.19 2.52-1.96 2.52 1.45zm-455.68 1.1c-.82 2.12 1.63 3.76 2.9 3.01 1.27-.74 1.78-1.67 1.78-2.72 0-2.83-3.97-2.12-4.68-.29zm3.43-.18c.72.72-1.2 3.28-2.15 1.74-.84-1.34 1.37-2.54 2.15-1.74zm524.7.2c-1.65-.64-3.98 5.4-2.15 5.37 1.17 0 4.36-4.52 2.16-5.37zm-313.4.38a2 2 0 0 0-1.46.86c-.3.48-.25 1.15.1 1.5.36.35 1.02.64 1.48.64 1.07 0 1.13-3-.11-3zm-312 .47c-.6.37-.8 1.13-.45 1.7.42.67.98.65 1.7-.06 1.41-1.43.12-2.49-1.25-1.64zm264.42.53c-.8 0-1.47.42-1.47.92s-.3 1.7-.66 2.64c-.45 1.16-.23 1.57.66 1.28.72-.24 1.68-1.43 2.12-2.64.6-1.64.44-2.2-.65-2.2zm454.59 0c-1.18 0-2.71 2-.62 2 2.07 0 1.81-2 .62-2z"/>
    <path fill="url(#g2)" d="M203.5 29.93c-1.23 0-1.5 1.78-1.5 10 0 9.54.1 10 2.13 10 1.9 0 2.07-.4 1.51-3.75a79.68 79.68 0 0 1-.63-10c0-4.88-.34-6.25-1.51-6.25zm68.5 21.9 10.32.93c1.35.13 1.74-.4 1.5-2.08-.28-2-.8-2.2-4.72-1.9l-4.4.32c.6-5.15 1.19-10.3 1.96-15.42.56-3.53.83-3.96-4.87-3.82zM114.24 30.11c-1.32-.33-5.67.78-8.49.81-1.54.01-1.75 1.14-1.75 9.51v9.5c2.45-.35 7.84 1.25 9-1.5 0-3.22-6 .88-6-4 0-1.83.53-2.5 2-2.5 2.78 0 2.77-4 0-4-1.3 0-2-.66-2-1.9 0-1.46.96-2.08 4-2.6 5.64-.94 3.94-3.14 3.24-3.32zm362.13.62c-.26-.18-4.18-.17-8.72.02-6.31.25-8.25.67-8.25 1.76 0 .8.96 1.42 2.14 1.42 2.05 0 2.12.33 1.59 7.42-.31 4.08-.3 7.68.02 8 .32.32 1.43.58 2.47.58 1.75 0 1.84-.6 1.2-8.5l-.7-8.5h3.9c2.13-.02 4.54-.45 5.35-.96.81-.5 1.26-1.07 1-1.24zM33 30.93v8.92c0 6.2.38 9.07 1.25 9.42 1.56.9 2.58.28 4.19-.32 3.49-1.3 2.75-4.56 1.56-7.02-.67-1.26-.67-2.08 0-2.5 1.28-.79 1.37-5.73-.2-7.3-1.98-1.44-4.47-1.2-6.8-1.2zm47 19c13.77 1.04 9.48-14.1 9-14.96-1.19-2.2-6-3.74-8.17-4-1.3.87-.83 12.68-.83 18.96Zm48-19c.03 4.54-.88 19.15 1.04 19.13 1.92-.01 1.9-1.1 1.96-4.13.06-3.33.33-4 2-4 2.78 0 2.77-4 0-4-1.29 0-2-.67-2-1.87 0-3.67 8.1-1.5 7.97-4.39-.07-1.5-7.66-.75-10.97-.74Zm48.75 0c-.91 0-1.26 2.6-1.28 9.5-.03 8.46.16 9.5 1.75 9.5 3.2 0 .87-8 2.78-8 2.37 0-1.38 8 3.5 8 2.5 0 2.5-.03 2.5-9.5 0-8.83-.14-9.5-2-9.5-4.05 0 .05 6-4 6-3.61 0-.9-6-3.25-6zm52.84 0c-2.38 0-2.4.07-1.85 8 .39 5.66.21 8-.6 8-.63 0-1.14-.67-1.14-1.5 0-2-3-1.8-3-.43 0 .58.47 1.93 1.04 3 1.22 2.31 2.13 2.6 5.34-.32 2.1-1.88 2.54-3.24 2.68-8.25.1-3.3.13-6.56.06-7.25-.07-.7-1.2-1.25-2.53-1.25zm16.41 9.5c0 8.84.14 9.5 2 9.5 1.68 0 2-.67 2-4.17 0-2.29.28-3.89.62-3.55.33.34.91 2.1 1.28 3.92.54 2.64 1.21 3.37 3.39 3.62 1.74.2 2.7-.15 2.68-1-.02-.73-1.12-3.09-2.45-5.25l-2.41-3.93 2.94-3.35c1.62-1.85 2.95-3.8 2.95-4.32 0-.53-1.09-.97-2.42-.97-1.87 0-2.68.78-3.55 3.41-.62 1.88-1.78 3.66-2.58 3.97-1.12.43-1.45-.35-1.45-3.4 0-2.87-.42-4-1.58-3.99-1.15.01-1.42 1.73-1.42 9.51Zm83-9.5c-.55 0-1 1.9-1 4.2v4.2l-3.8-3.7c-2.08-2.03-4.33-3.7-5-3.7-.86 0-1.2 2.86-1.2 10 0 8.58.23 10 1.63 10 1.42 0 1.54-.9.94-7-.38-3.85-.46-7-.17-7 .29 0 2 2.7 3.81 6 2.2 4.01 3.91 5.98 5.18 6 1.67 0 1.81-.53 1.25-4.64-.4-3.15-.6-6.32-.64-9.5 0-2.67-.45-4.86-1-4.86zm66.04 18.49c1.85-.27 3.08.18 3.85 1.41.62 1 2.05 1.81 3.18 1.81 3.13-.13.09-3.12-.91-4.29-1.03-1.2-1.45-3.4-1.28-6.66.73-11.93-6.72-13.79-10.79-8.35-5.2 6.74.5 16.89 5.95 16.08zm22.07.36c1.54.83 3.35.96 2.72-3.85-.76-5.75 2.17-5.43 2.17 0 0 3.34.33 4 2 4 4.15 0 .53-6.93.52-6.95-1.3-2.5-1.3-3 0-4.07a4.5 4.5 0 0 0 1.48-3.03c0-4.64-6.05-5.02-8.85-4.95-.03 4.25-1.59 18-.04 18.85zm72.03-18.85c-1.98 0-2.14.52-2.14 6.93 0 4.97.45 7.37 1.57 8.5.9.88 2.06 1.43 3.31 1.57.96 0 2.6-.62 3.64-1.39 1.48-1.08 2-2.97 2.3-8.5.39-6.79.3-7.1-1.8-7.1-2.11 0-2.18.27-1.54 5.84.56 4.81.38 6.15-1.04 7.57-1.26 1.26-1.93 1.4-2.46.55-.4-.65-.5-4.06-.22-7.58.48-6.02.39-6.39-1.62-6.39zm44.35 0c-1.82 0-2.04.45-1.6 3.25.29 1.8 1.11 6.06 1.84 9.5 1 4.68 1.75 6.25 3.01 6.25.93 0 1.92-.56 2.2-1.25.36-.89.75-.93 1.33-.15a5.66 5.66 0 0 0 2.33 1.6c1.16.37 1.75-1 2.62-6.1.62-3.63 1.47-8.1 1.9-9.95.68-2.95.55-3.3-1.13-3-1.45.3-2.03 1.53-2.48 5.36-.38 3.17-.66 3.9-.77 2-.1-1.66-.44-4.02-.77-5.26-.34-1.28-1.38-2.25-2.41-2.25-1.4 0-2.02 1.2-2.76 5.25l-.96 5.25-.12-5.25c-.1-4.63-.37-5.25-2.23-5.25zm27.52 0c-1.97 0-1.99.12-.43 3.75l2.09 4.92c.26.64-.18 2.22-.99 3.5-1 1.5-1.62 3-2.17 4.67-.57 1.9-.37 2.28 1.08 2 1.03-.2 2.14-1.7 2.62-3.59.47-1.79 1.2-3.25 1.62-3.25.42 0 1.31.54 1.97 1.2.66.66 1.2 2.24 1.2 3.5 0 1.63.58 2.3 2 2.3 1.1 0 2-.6 2-1.36 0-.75-1.08-2.95-2.4-4.88l-2.38-3.53 1.89-4.22c.72-1.5 1.35-3.05 1.89-4.62 0-.2-.86-.39-1.92-.39-1.32 0-2.13.94-2.58 3-.36 1.65-1.02 3-1.46 3-.43 0-1.06-1.35-1.39-3-.43-2.15-1.17-3-2.64-3zm24.05 0c-1.8 0-1.85.3-.71 4.25.76 2.68 2.03 4.62 3.43 5.24 1.29.57 2.02 1.61 1.76 2.5-.24.83-.73 2.72-1.08 4.2-.56 2.35-.39 2.6 1.45 2.12 1.77-.46 2.1-1.3 2.1-5.67.01-2.83.3-6.83.63-8.89.56-3.37.4-3.75-1.55-3.75-1.95 0-2.11.37-1.52 3.5.4 2.11.25 3.5-.35 3.5-.55 0-1.28-.7-1.61-1.58-.4-1.13-.6-2.31-.61-3.5 0-1.23-.7-1.92-1.94-1.92zm26.47 0c-4.32 0-5.35.3-4.92 1.43.4 1.03 1.56 1.26 4.22.85 3.63-.57 3.65-.56 1.87 1.46-1 1.12-2.68 4.34-3.75 7.16-1.07 2.82-1.95 5.8-1.95 6.61 0 1.14 1.28 1.5 5.38 1.5 4.74 0 5.46-.28 5.99-2.26.92-3 .74-3.55-2.42-2.58-1.68.6-3.29.83-3.57.54-.29-.28.64-3.4 2.05-6.94 1.41-3.53 2.57-6.73 2.57-7.1 0-.37-2.46-.67-5.47-.67zm144.16 0c-.55 0-.19.9.81 2s2.26 2 2.81 2c.55 0 .19-.9-.81-2s-2.26-2-2.81-2zM158.25 50.57c3.24-1.47.33 2.9 3.26 3.3 2.56.35 1.49-10.98 1.49-15.14-2.36.28-7.63-1.28-8 2 0 4.04 5.44-.15 4.82 4.15a5.22 5.22 0 0 1-2.13 3.25c-5.45 3.33-6.88-15.9-.65-15.9 1.79 0 2.55.62 2.78 2.25.56 3.84 5.6 2.55 1.53-1.92-13.82-11.07-15.58 23.68-3.1 18.01zm147.88-19.46c-.63-.25-3.53-.04-3.84 2.5a6.07 6.07 0 0 1-1.7 3.33c-3.11 2.58-.36-5.2-5.8-5.82-2.36-.28-2.69.03-2.7 2.5 0 1.55-.3 5.85-.64 9.56-.56 5.94-.9 6.94 2.29 6.94 3.17 0 1.05-8.86.71-12.62 4.56 9.94 5.18 9.98 9.4-.27.47 10.13-.62 12.6 1.75 12.7 2.37.1 1.5-1.73 1.5-9.57 0-7-.03-8.88-.97-9.25zm35.39 10.9c1.14 5.24 6.54 7.92 7.56 7.92 4.82-.03 9.05-13.29 2.38-17.61-6.62-4.41-11.08 4.45-9.94 9.69zm-282.9-9.95c-6.05 2.76-4.63 14.62-.8 16.83 2.13 1.24 4.44 1.53 6.38-.7 4.38-5.18 1.12-7.4-1.02-2.76-1.51 3.37-3.95 2.65-4.7 1.48-.75-1.23-1.04-11.63.58-13.54 1.69-2.07 2.84-1.78 4.12 1.06 2.37 5.19 4.8.86.44-2.01-1.63-1.28-3.2-1.1-5-.36zM369 31.93V41c0 8.1.19 9.04 1.75 8.74 1.33-.25 1.67-1.15 1.44-3.82-.24-2.83.14-3.68 2-4.49 1.23-.53 3.67-1.87 2.38-7.08-.9-3.28-4.87-2.42-7.57-2.42zm142.69 0c-.53 0-.61 2.02-.21 4.72.5 2.9 1.2 5.7 2.2 8.44.97 2.42 2.25 3.85 3.66 4.07 1.19.2 2.24.33 2.34.3.1-.03.82-3.76 1.6-8.3 1.33-7.69 1.31-8.23-.31-8.23-.96 0-2 1.01-2.34 2.25-.44 2.22-.67 4.5-.7 6.75l-.1 4.5-1.37-3c-.8-2-1.3-4-1.42-6.05-.02-1.68-.58-3.59-1.24-4.25-.66-.66-1.61-1.2-2.11-1.2zm144.72 3.75a36.2 36.2 0 0 1 3.67 8c1 3.51 1.66 4.25 3.7 4.25 2.45 0 2.45 0 .64-2.75-1.1-1.7-2-3.45-3-5.25-.8-1.7-1.6-3.5-2.28-5.25-.67-1.76-1.77-2.75-3.45-2.75-1.68 0-1.65.1.72 3.75zm52.1-3.75c-.61 0-2.64 1.58-4.51 3.5-2.28 2.35-2.89 3.5-1.85 3.5.85 0 2.35-.9 3.35-2s2.27-2 2.84-2c.57 0 2.07.98 3.34 2.17 1.27 1.2 2.62 1.87 3 1.5.37-.38-.61-2.04-2.19-3.68-1.58-1.64-3.37-2.99-3.98-2.99zm-266.8 8.2c.9 1.93 2.41 4.75 3.37 6.28 1.52 2.44 1.55 2.9.23 3.8-.82.55-3.4.77-5.75.48-2.34-.29-4.25-.15-4.25.3 0 .44.3 1.1.67 1.47.36.37 2.92.67 5.67.67 3.26 0 5.65-.58 6.84-1.65 1-.9 1.83-2.38 1.83-3.26 0-.87-1.57-3.8-3.5-6.52-1.92-2.7-3.5-5.74-3.5-6.74s.65-1.83 1.45-1.83c.8 0 1.86.73 2.36 1.63.65 1.16 1.12 1.3 1.64.46.4-.65.16-1.85-.53-2.68-2.2-2.28-5.27-1.04-6.62 1.36-1.35 2.41-1.33 3.19.1 6.23zM8.7 38.28c-.8 2.6-1.5 5.25-2.13 7.91-.45 2.07-.22 2.75.95 2.75 2.6 0 1.46-6 4.62-6 3.11 0 1.17 5 2.54 6.33.8.82 2.07.92 2.65-.08.6-1-2.27-16.85-2.27-16.85-4.08.38-4.83.78-6.36 5.94zm28.31-5.84c1.7.36 1.47 5.09 0 6-1.47.91-1.7-6.36 0-6zm311.92 15.05c-2.9 1.85-3.96-14.6-.85-14.54 1.82 0 4.08 12.58.85 14.54zm47.99-11.7c.58 1.61.94 3.3 1.09 5 0 2.47-2 2.1-2 .85-.79-1.65-2.81-1.09-4.14-1 1.04 1.51 6.3 6.56 2.68 7-4.45 0-3.7-11.43-2.94-13.42.73-1.58 3.66-3.09 5.31 1.57zm237.09-2.84v9.5c0 9.46.01 9.5 2.5 9.5 1.63 0 2.5-.57 2.5-1.6 0-1.03-.55-1.4-1.5-1.05-1.25.48-1.5-.66-1.5-6.89 0-5.83.32-7.47 1.44-7.47.8 0 1.72-.45 2.06-1 .36-.58-.66-1-2.44-1zm49 0c-1.65 0-3 .44-3 1 0 .54.92 1 2.04 1 1.9 0 2.03.51 1.75 7.24-.22 5.45-.64 7.25-1.7 7.25-.79 0-1.61.56-1.84 1.25-.27.82.64 1.25 2.67 1.25h3.08v-19zm-261.9.55c1 .6 1.59 5.43-.6 5.43-.82 0-1.5-.64-1.5-1.42 0-1.57.87-4.79 2.1-4.01zM12.7 35.16c.8-.01 1.15 2.97-.58 3-1.73.04-.22-2.98.58-3zm360-.66c1.67.01 1.63 4.97 0 5-1.62.03-1.66-5.01 0-5zm-288.66.6c5.22.78 3.5 10.52.21 11.61-2 .64-1-7.07-1.89-10.27-.37-1.34-.14-1.6 1.68-1.34zM37 42.93c1.3 0 1.32 3.69 0 4.5s-1.3-4.5 0-4.5zm695.56 7c-6.37 0-10.56.4-10.56 1s3.98 1 9.94 1c5.55 0 10.21-.44 10.56-1 .4-.64-3.16-1-9.94-1z"/>
    <path fill="url(#g3)" d="M467 59.43c0 .83-.45 1.5-1 1.5-1.3 0-1.31 3 0 3 1.42 0 .67 10.34 1.67 11.34.39.38.9.6 1.43.66.9 0 3.9-2.64 3.9-4.57 0-1.85-2.71-1.96-3.31.32-.37 1.4-1.64-7.75.81-7.75 1.96 0 1.95-3 0-3a1.5 1.5 0 0 1-1.5-1.5c0-2-2-1.91-2 0zm91 .01c0 .8.7 3.18 1.53 5.3 1.38 3.43 1.38 4.13.01 6.76-2.52 4.83-1.3 5.43.39 5.43 1.35 0 2.03-.8 2.25-2.67.4-3.2 2.15-4.5 4.29-.39.87 1.68 2.28 3.06 3.12 3.06 2.64 0-.1-4.69-1.17-6.03-1.13-1.3-1.04-2 .61-4.5 3.57-5.4 1.07-5.47.19-5.47-1.08 0-2.25 1.24-2.97 3.15-.99 2.61-1.44 2.94-2.65 1.93-.81-.67-1.75-2.5-2.1-4.06-.8-3.68-3.5-4.44-3.5-2.5zm-430-.5v8.5c0 7.56.2 8.5 1.83 8.5 1.44 0 1.74-.6 1.4-2.87-.33-2.25.03-2.97 1.68-3.4 1.15-.3 2.09-1.08 2.09-1.74 0-.65-.9-1.42-2-1.7-1.3-.35-2-1.37-2-2.9 0-2.07.48-2.4 3.5-2.4 1.93 0 3.5-.45 3.5-1s-2.25-1-5-1zm120.27 9.5c0 8.6.18 9.5 1.87 9.5 1.52 0 1.86-.78 1.86-4.2 0-2.59.36-3.84.92-3.26.51.52 1.07 2.3 1.25 3.95.25 2.27.9 3.08 2.67 3.33 2.05.3 2.25.04 1.62-2a23.1 23.1 0 0 0-2.67-5.1l-1.95-2.75 2.58-3.07c1.42-1.68 2.58-3.48 2.58-3.99 0-.5-1.16-.92-2.58-.92-1.64 0-2.42.46-2.14 1.25.25.7.05 2.04-.45 3s-1.33 1.75-1.87 1.75c-.53 0-.96-1.57-.96-3.5 0-2.29-.47-3.5-1.44-3.5-.98.01-1.29 2.15-1.29 9.51zm289.44-7.93c-.34.87-.61 2.93-.61 4.56 0 1.73-.42 2.72-1 2.36-.55-.34-1-1.94-1-3.56 0-2.32-.44-2.94-2.1-2.94-1.62 0-1.95.42-1.41 1.75.38.96 1.43 4.8 2.31 8.5 1.25 5.22 2.04 6.75 3.4 6.75 1.35 0 1.84-.85 1.96-3.25l.16-3.25.4 3.25c.33 2.67.79 3.25 2.84 3.25s2.44-.47 2.44-3.29c0-1.8.68-5.88 1.5-9.05.83-3.16 1.5-5.96 1.5-6.2 0-.25-.9-.46-2-.46-1.7 0-2.02.72-2.14 4.75l-.14 4.75-1.02-4.75c-.75-3.43-1.51-4.75-2.61-4.75-1.1.01-2.15.71-2.48 1.58zm146.65 6.06c.35 2.55.64 6.15.64 8 0 1.85-.45 3.36-1 3.36-1.32 0-1.23 3-.2 3 .45 0 1.65-.6 2.67-1.35 1.64-1.2 1.78-2.3 1.2-9.68-.35-4.59-.98-8.65-1.4-9.04a10.2 10.2 0 0 0-3.02-1.38c-3.65-1.1-2.3 2.45-1.16 2.46 1.14 0 1.87 1.7 2.27 4.63zM446.95 59.4c-1.33-.82-5.95 2.1-5.95 4.13 0 2.28 6 6.72 6 9.48 0 1.06-.51 1.92-1.14 1.92-.63 0-1.68-.74-2.35-1.65-1.37-1.86-4.7-1.33-1.88 1.8 2.66 2.9 6.64 1.4 7.67-.25.97-1.53 1.05-5.68-2.77-7.88-3.7-1.99-2.75-6.02-1.03-6.02 2.16 0 .83 3 3.04 3 1.2 0 1.31-.4.49-1.94-.5-1-1.22-1.88-2.08-2.59zm-412.17.53c-1.56 0-1.78 1.02-1.78 8.42 0 5.8.39 8.57 1.25 8.92 1.57.9 2.62.26 4.24-.34 2.29-.86 2.6-1.48 2.32-4.75-.25-3.06-.74-3.8-2.66-4.08-2.08-.3-2.3-.77-1.97-4.25.3-3.23.06-3.92-1.4-3.92zm52.72 0c-1.09 0-1.5 1.12-1.5 4.1 0 3.1-.34 3.98-1.38 3.58-1.44-.54-7.42 1.4-5.02 7.74.43 1.11 1.92 1.58 5 1.58H89v-8.5c0-6.89-.28-8.5-1.5-8.5zm330.51.9v8.55c0 6.94.28 8.56 1.5 8.56 1.2 0 1.5-1.5 1.5-7.5 0-4.33.42-7.5 1-7.5 1.45 0 .52 3 2.07 3 1.08 0 1.87-5.7-2.98-4.44zm-125 5.5c0 2.94-.28 6.77-.63 8.5-.55 2.74-.35 3.11 1.62 3.11 2.14 0 2.22-.3 1.81-6.72-.4-11.7.3 1.37 4.67 1.72 4.68-.73 4.95-11.62 4.55 3.25-.15 4.28.05 4.75 2.03 4.75 1.93 0 2.12-.38 1.58-3.12-.35-1.72-.63-6.22-.63-10 0-6.69-.07-6.88-2.53-6.88-2 0-2.64.62-3.12 3-.33 1.65-.96 3-1.4 3-.43 0-1.09-1.35-1.45-3-.55-2.5-1.15-3-3.8-3-2.65.01-2.7.11-2.7 5.38zm201.79 1.35c-.24 5.63-.6 6.8-2.14 7.1-1.65.3-1.82-.23-1.5-4.73.24-3.58-.05-5.24-.98-5.6a7.65 7.65 0 0 0-2-.5c-.37 0-.66 2.51-.64 5.6.02 4.33.46 5.91 1.94 7 1.05.76 2.45 1.4 3.11 1.4.66 0 2.1-.8 3.21-1.76 1.53-1.32 2.13-3.38 2.5-8.5.43-6.06.3-6.75-1.32-6.74-1.61 0-1.92.96-2.18 6.73zm26.7-6.73c-2.07 0-2.49.47-2.49 2.84 0 1.57-.53 4.36-1.17 6.2-1.02 2.93-1.26 3.1-1.93 1.4-.42-1.07-.8-3.19-.83-4.7-.05-2.1-.56-2.75-2.19-2.75-1.71 0-2 .43-1.48 2.25.61 2.32 1.18 4.66 1.7 7 1.92 8.54 5 3.96 5.96 1 .67-2.06 2.05-5.89 3.06-8.5l1.85-4.75zm-193.7 3c.24 1.64.01 3-.5 3-.52 0-2-1.13-3.29-2.5-1.3-1.38-2.83-2.5-3.42-2.5-.68 0-1.1 3.14-1.15 8.5-.06 6.76.22 8.5 1.36 8.5 1.17 0 1.3-1.08.74-5.62-.5-3.98-.38-5.4.4-4.93.6.37 2 2.45 3.1 4.6 1.1 2.17 2.66 3.94 3.45 3.94 1.15 0 1.4-1.6 1.23-8-.32-11.96-2.36-7.97-1.92-4.99zM10.01 61.93c-3.54 1.93-1.82 4.4.71 1.9 1.4-1.42 3.29-.49 3.29 2.59 0 1.7-.64 2.46-2.25 2.7-3.58.49-2.77 5.1-1.82 6.22.6.73 2.2 1.1 3.58.84 2.34-.45 2.49-.86 2.49-6.83 0-9.47-3.7-8.77-6-7.42zm627.03-1.3c-2.74.74-3.9 2.17-3.97 6.84-.04 4.5.75 12.67 2.31 13.7.62.4.91.8 2.88.75 1.97-.05 1.3-2.93-.23-2.69-1.53.24-1.96-1.3-1.81-8.4.12-5.77.52-7.9 1.48-7.9 1.51 0 2.28-3.03-.66-2.3zM104.01 66.7c0 2.6 1.31 6.23 3.95 6.23 6.03 0 5.6-4 4.17-4-.48 0-1.45.7-2.16 1.55-1.02 1.24-1.45 1.3-2.1.25-1.48-2.19-.83-2.8 2.14-2.8 2.22 0 3-.47 3-1.8 0-5.35-9-6.05-9 .57zm72.5-4.77c-1.2 0-1.5 1.56-1.5 8 0 7.43.15 8 2.08 8 1.79 0 2.03-.5 1.75-3.75-.24-2.8.05-3.75 1.17-3.75 1.02 0 1.6 1.24 1.81 3.81.25 2.95.7 3.74 2 3.5 1.38-.27 1.74-1.75 1.98-8.07.28-7.22.16-7.74-1.75-7.74-1.37 0-2.04.66-2.04 2 0 1.34-.67 2-2 2s-2-.66-2-2c0-1.1-.67-2-1.5-2zm98 0c-1.19 0-1.5 1.44-1.5 6.94v6.94l3.75.4c2.57.1 4.3 1.33 4.25-1.28 0-6.33-5 4.5-5-7.5 0-4.22-.35-5.5-1.5-5.5zm72.98.18c-3.3.27-4.1.78-4.94 3.18-.88 2.5-.66 3.14 1.79 5.25 1.53 1.31 3.33 2.4 4 2.4.68 0 2.22-.7 3.45-1.56 1.22-.86 2.22-2.57 2.22-3.8 0-1.25-.58-3.06-1.29-4.03-.94-1.29-2.35-1.68-5.23-1.44zm-142.52.02-1.28.3c-.47 0-.45 1.98-.55 5-.15 4.53.11 5.5 1.48 5.5 1.35 0 1.54-.67 1.03-3.75-.23-1.4-.43-2.98-.54-4.16-.07-.96-.12-1.92-.14-2.89zm-52.07 1.91c-5.07 5.07 2.95 7.89 3.17 7.89 1.5 0 1.94.7 1.94 3.03 0 1.73-.63 3.27-1.45 3.6-.94.35-4.26.58-2.57-2.59 1.26-2.14-.87-2.64-2.56-3.04-.23 0-.42 1.34-.42 2.97.01 3.72 3.68 5.54 7 5.74 2.43-.37 3.16-15.01 3.14-16.62-.02-1.6-5.18-4-8.25-.98zm466.21-1.22-5.3.3c-6.7.39-6.25 2.19-2.55 2.63 1.51.17 2.75.53 2.75.78 0 .76-3.29 6.5-5 10.73 0 .21 2.48.4 5.5.4 9.34 0 5.07-2.73 2.43-2.73-3.66 0-3.92-.03 2.17-12.11zM57.66 64.76c-5.8 6.42 2.55 14.74 6.79 11.22.86-.7 1.56-1.9 1.56-2.67 0-1.8-3-1.87-3 .19 0 2.18-3.41 1.56-3.83-1.43-.19-1.29-.07-3.42.27-4.74.79-3.14 3.56-2.97 3.56-.4 0 1.34.67 2 2 2 1.1 0 2-.6 2-1.34 0-2.25-5.4-7.21-9.35-2.83zm529.23-2.13c-1.7 0-2 .44-1.51 2.25.33 1.24.6 2.86.62 3.6 0 .73 1.17 3.23 3.01 4.15 3 1.5 4.45 6.61-1.38 5.5 0 0-1.74-1-2.6-.24-.13.98 4.68 3.73 5.62 3.73.78 0 1.6-.56 1.8-1.25.22-.68.63-4.5.92-8.5.43-5.89.25-7.25-.92-7.25-.93 0-1.44 1.06-1.44 3 0 1.65-.45 3-1 3s-1-1.8-1-4c0-3.4-.31-4-2.12-4zm71.12 8.3c0 10.63 2 10.63 2 0s-2-10.63-2 0zm-285.92-7.99c-2.56.3-2.6.41-2.8 9.55-.21 8.7-.1 9.25 1.8 9.25 1.82 0 1.97-.44 1.4-4.25-.56-3.79-.38-4.36 1.69-5.25a4.51 4.51 0 0 0 2.64-3.8c.18-1.55-.23-3.49-.91-4.3-.68-.83-2.4-1.36-3.82-1.2zm-25.45.3c1.02-.38 2.18.1 3.04 1.28a6.1 6.1 0 0 1 1.1 3.84c-.15 1.06-.8 2.1-1.41 2.3-.63.2-1.87-.36-2.75-1.24a5.94 5.94 0 0 1-1.62-3.58c0-1.08.74-2.25 1.64-2.6zm-114.42.43-2.86.7c-2.01.45-1.56 1.14-1.2 6.07.1 2.48.21 5.3.26 6.25.05 1.22-.68 1.76-2.41 1.77-1.56.01-2.61.67-2.82 1.75-.6 3.06 5.83 1.37 6.8.76 1.07-.68 1.6-3.28 1.86-9.12zM109 64.94c0 1.3-3 1.3-3 0s3-1.3 3 0zm292-1.58c0-2.99-5.99.54-8.43 1.7-2.45 1.15-1.99 9.38 3.43 7.95 1.78-.46 2-.03 2 3.89 0 3.82.28 4.4 2.12 4.4 1.7 0 2-.43 1.51-2.25-.82-5.18-.62-10.46-.63-15.69zm-244.37 1.57c2.25 0 1.05 4.28-.38 4.76-2.26.72-3.35-4.76.38-4.76zm216.37.3c.55.34 1 1.47 1 2.5 0 1.04-.45 2.16-1 2.5-.58.36-1-.67-1-2.5 0-1.82.41-2.86 1-2.5zm24 2.8c0 3.4-3 3.92-3-.06 0-2.37 3-2.49 3 .06zm-384.43 1.9c2.37 0 1.08 4.28-.32 4.77-1.64.5-1.92-4.77.32-4.77zm24.43 0c1.3 0 1.3 5 0 5s-1.3-5 0-5zm668.64 1.5c-.77 2 1.07 1.85 1.65.25.37-1 .72-1 1.78 0 1.72 1.62 4.64 1.53 5.47.2.84-1.41-.38-2.86-1.55-.93-.72 1.17-1.16 1.21-2.15.22-1.68-1.53-4.28-1.7-5.2.26zM86 73c0 1.08-.68 1.94-1.53 1.94-5.8 0 1.53-9.48 1.53-1.94Zm116.89-12.03c.1.9 2.08.8 2.45-.25.71-2.03-2.69-1.58-2.45.25zm25.27-.35c-.07.2-1.05 3.83 3.29 1.66.57-.28.6-1.28.63-1.86.08-1.6-3.61-.63-3.92.2z"/>
  </g>
</svg>
