<svg xmlns="http://www.w3.org/2000/svg" xmlns:xlink="http://www.w3.org/1999/xlink" viewBox="0 0 768 84">
  <defs>
    <linearGradient id="a">
      <stop offset="0" stop-color="#02d0ab"/>
      <stop offset=".17" stop-color="#16ccf7"/>
      <stop offset=".65" stop-color="#fe4c9d"/>
      <stop offset="1" stop-color="#fff120"/>
    </linearGradient>
    <linearGradient id="b">
      <stop offset="0" stop-color="#ffff3b"/>
      <stop offset="1" stop-color="#f5a700"/>
    </linearGradient>
    <pattern id="v" fill="#b20000" width="2" height="2" patternTransform="scale(24 84)" patternUnits="userSpaceOnUse">
      <path d="M0 0h1v1H0z"/>
    </pattern>
    <pattern id="h" fill="#004ebd" width="2" height="2" patternTransform="matrix(0 28 -28 0 0 0)" patternUnits="userSpaceOnUse">
      <path d="M0 0h1v11H0z"/>
    </pattern>
    <linearGradient xlink:href="#a" id="g1" x1="0" x2="0" y1="0" y2="44" gradientUnits="userSpaceOnUse"/>
    <linearGradient xlink:href="#a" id="g2" x1="0" x2="0" y1="28" y2="72" gradientUnits="userSpaceOnUse"/>
    <linearGradient xlink:href="#a" id="g3" x1="0" x2="0" y1="56" y2="100" gradientUnits="userSpaceOnUse"/>
    <linearGradient xlink:href="#b" id="h1" x1="0" x2="0" y1="0" y2="20" gradientUnits="userSpaceOnUse"/>
    <linearGradient xlink:href="#b" id="h2" x1="0" x2="0" y1="28" y2="48" gradientUnits="userSpaceOnUse"/>
    <linearGradient xlink:href="#b" id="h3" x1="0" x2="0" y1="56" y2="76" gradientUnits="userSpaceOnUse"/>
  </defs>
  <g fill-opacity=".4">
    <rect width="100%" height="100%" fill="url(#h)" display="none"/>
    <rect width="100%" height="100%" fill="url(#v)" display="none"/>
    <path transform="translate(1.5 1.3)" d="M463.5 59.3c-2.52 3.82.38 4.3.5 11.12 0 1.85.7 4.07 1.57 4.93 1.9 1.88 3.21 2.1 5.6-.08 2.35-2.14 2.27-5.3.2-6.82-1.5-1.1-1.5-1.4.14-3.9 1.73-2.63 1.71-2.76-.55-5.16-2.08-2.23-4.98-3.9-7.46-.1zm85.96-2.3c-1.69-.54-19.46 1.61-19.46 4.84 0 1.98 2.68 10.3 3.46 14.28.4 1.98 1.26 2.8 3.3 3.1 1.5.22 4 .48 5.52.56 1.53.08 2.93-.4 3.11-1.1.51-1.94 3.21-16.23 4.22-19.65.35-1.2.53-1.8-.15-2.03zm7.03.3c-1.2.46-1.19 1.3.1 5.63 1.23 4.13 1.28 5.7.3 8.42-.66 1.83-.92 4.06-.58 4.96.5 1.3 2.1 1.62 7.78 1.62 7.12 0 7.14 0 6.53-2.5l-1.24-5c-.36-1.46.07-3.93 1.06-6 .91-1.94 1.39-3.96 1.05-4.5-.7-1.16-3.9-1.71-6.22 1-2.37 2.78-3.1 2.4-3.45-.74-.2-1.7-1.01-2.87-2.1-3.07a6.83 6.83 0 0 0-3.23.18zm-430.98.13c.18 6.4-.27 13.7.05 19.32 3.98 4.18 7.96-4.65 9.19-7.18 1.58-2-.01-3.9-.2-4.5-.53-1.65-.14-2.2 1.95-2.73 1.94-.48 2.53-1.2 2.3-2.78-.27-1.92-.93-2.13-6.8-2.13zm120.5.5v20.9c4.1 0 8.45 1 12.46-.16.94-2.9-1.36-6.52-2.17-9.42-.7-3.09 2.71-5.92 2.71-8.42-2.4-3.78-8.8-2.9-13-2.9zm194.34 2.6c-1.42 2.17-1.5 3.12-.54 5.7.95 2.5.9 3.38-.32 4.72-.81.9-1.48 2.02-1.48 2.48 0 2.64 6.22 6.46 10.17 3.25 5.3-4.4-1.05-8.28 1.18-11.9 2.07-3.4-4.8-10.68-9.01-4.25zm240.1 3.91c3.05 4.49 3.16 7.65.88 11.53-1.39 2.34-1.45 3.1-.37 4.4 1.99 2.4 4.04 1.57 5.98-.37 1.61-1.6 1.86-2.92 1.45-7.75-.26-3.2-.7-7.28-.98-9.06-.27-1.78-1.34-3.69-2.38-4.25-2.79-1.35-10.03-2.56-4.58 5.5zM32.31 58.11c-1.61.32-1.76 1.34-1.45 9.84.2 5.21.56 9.82.81 10.23.25.42 1.59.75 2.96.75 8.2 0 8.83-8.4 3.73-12.3-.74-.44-1.35-2.07-1.35-3.63 0-2.87-1.6-5.29-4.7-4.89zm51.45 3.55c.2 2.66-.25 3.48-2.63 4.71-6.73 3.5-5.38 12.36 3.48 12.56 1.73 0 3.55-.56 4.03-1.25.48-.68.87-5.3.87-10.25v-9c-3.13.03-6.02-.83-5.75 3.23zm117.69-1.84c-1.16 1.48.09 3.02-.11 3.55-1.87 5.62.38 10.34.97 10.72.7.37 1.5.44 2.25.18 4.01-1.53-.12-12.01.5-12.8 1.55-1.98-1.6-4.21-3.61-1.65zM485 62.9c.27 4.64-1.2 10.26 2.19 14 3.33 3.1 6.47 1.89 8.17.76 3.53-2.58 5.07-18.74 2.17-18.72-5.03.02-1.53 4.82-12.53 3.96Zm32.42-1.49c-1.3 1.97-2 2.28-3.46 1.5-2.37-1.28-5.96-1.15-5.96-.32 0 1 2.7 9.65 3.48 13.6.42 2.06 1.14 2.74 2.92 2.74 2.8 0 3.51-.37 6.94-9.8 3.63-10.02 3.01-10.24.08-10.15-1.6.05-3.13.98-4 2.43zm-192.14-1.28c-2.43 1.88-5.5 1-8.28.57.38 6.12-.75 12.54.67 18.55.69.7 2.88 1.31 4.15-.97 1.82-3.24 6.38 1.77 7.81-.56.49-.79 2.02-23.3-4.35-17.59zm-34.78-.7-.29 9.74c-.28 9.53-.23 9.75 1.97 9.75 1.23 0 3.2-1.2 4.37-2.67 4.99-5.77 4.8 1.83 6.12 5 1.94.91 4.22.67 6.33.67-.9-7.02-.33-14.72-1.24-21.57-5.44-.75-11.53-.83-17.26-.93zm-59.6-1.15c-6.64-.17-4.48 2-4.68 5.54-.82.82-.13 12.5-1.88 12.5a4.23 4.23 0 0 0-4.34 4.2c0 1.43.81 1.8 3.89 1.8 2.26 0 4.74-.73 5.93-1.75 1.67-1.43 2.1-3.19 2.36-9.75.23-5.83.7-7.45-.16-8.17-.44-.37.52-4.33-1.12-4.37zm40.1 9.6c-.03 7.36.1 8.1 1.75 8.97.98.53 2.93 1.03 4.38 1.05 5.4.08 6.05-5.96 2.01-5.96-1.06 0-2.2-.72-2.53-1.59-1.13-2.88.25-8.86-2.19-9.8-.87-.34-2-.6-2.5-.61-.5 0-.9 3.57-.92 7.94zm71.63 3.98c8.17 6.43 15.7-4.36 8.74-9.86-7.72-6.01-15.4 4.62-8.74 9.86zM633 60.53c-3.16 2.56-4.63 21.17 3.46 22.2 3.13 0 4.09-.87 1.64-6.27a13.22 13.22 0 0 1 .91-13.24c2.43-2.9-1.08-6.7-6.01-2.69zM6.85 62.1c-2.06 2.06-2.08 2.2-.33 3.48 1.52 1.11 1.63 1.73.68 3.83-1.6 3.5-.16 8.53 4.72 8.53 3.64 0 5.08-1.6 5.08-6.63 0-10.1-5.1-14.3-10.15-9.2zm408.65-1.66c.17 6.23-.52 12.55.23 18.75.52.99 2.4.95 4.22-.19 3.28-2.1-1.7-7.3 3.7-11.6 2.72-2.16 2.73-2.23 1-4.88-2-3.4-5.85-2.35-9.15-2.08zm-228.23.4-13.77.6-.58 17.5H186c-.22-6.08.3-12.1 1.27-18.1zM56.64 63.18c-7.74 7.06-.18 17.43 6.96 14 1.93-1.3 6.06-8.67.94-13.79-3.04-3.04-4.73-3.1-7.9-.2zm50.68-2.23c-5.31-.04-8.25 9.14-1.82 12.8 2.56 1.44 3.06 1.71 6.04-1.27 2.96-2.96 2.77-3.6 1.4-7.2-1.27-3.35-2.68-4.3-5.62-4.33zm41.7 10.44c-.12 4.28-.27 7.64 3.48 9.95 2.29 1.32 4.45 1.5 6.45.25 2.76-4.81 1.83-11.54 2.3-17 .22-2.17-.28-2.57-4.2-3.36-4.45-.89-8.08-1.18-8.03 10.16zm220.61-9.6c-2.6 1-2.63 1.1-2.63 11.1v9.71c3.38-.23 5.44-.08 5.8-3.9.17-2.03 1.17-4.44 2.25-5.4 4.3-3.9 1.33-14.49-5.42-11.52zm214.6-.42c-2.46.94-.38 8.57 1.64 11.3 2.42 3.28 1.63 3.96-1.54 3.96-3.87 0-1.93 2.17.3 3.93 1.86 1.46 6.41 4.31 8.27-1.08 1.35-4.86 1.1-9.96 1.1-14.95-3.14-1.32-6.27-3.3-9.77-3.16zm28.79.56c-5.75 0-7.02.3-7.02 1.6.49 2.63 2.41 4.65 4.01 6.7l-5.09 8.7H620c-.13-2.12.88-5.68-2-6-1.13 0-2-.67-2-1.54.66-3.38 2.49-6.42 4.04-9.46zm45.48.5c-1.8 0-2.03.77-2.3 7.4-.35 9.02.4 10.1 1.65 10.1 2.17 0 2.99-3.1 2.82-10-.15-6.77-.36-7.5-2.17-7.5zM389 68.57c0 3.41.45 4.27 3 5.72 2.15 1.23 2.99 2.45 3 4.4 0 1.12.34 5.02 5.26 3.71 1.76-.46 1.91-.79 1.37-5.31-.63-4.84-.62-9.73-.63-14.6-9.58 0-12 .08-12 6.08zm315.61 1.33c-.06.06-5.35 5.32 4.06 4.27 5-.54 6.31-1.7 6.31-3.86.01-.8-7.07-3.67-10.37-.4zM270 28.82V52.8c3.1.62 6.24.8 9.4.76 2.5-.08 3.97.25 4.9-2.06.93-2.31-2.16-3.9-4.46-4.47-5.49-1.06-3.24-9.38-2.8-13.6.46-4 .45-4-3.29-4.3zm228.89.02-14.37.6c.8 5.67-.93 12.71 2.27 17.8 2.09 2.3 6.81 2.09 9.26-1.3 2.57-5.22 2.42-11.4 2.84-17.1zm-389.69.08c-3.2 0-6.34.54-7 1.2-1.78 1.78-1.26 19.41-.53 20.14.36.36 3.06.66 6 .66 4.5 0 5.33-.28 5.33-1.83 0-1-.34-2.17-.75-2.59-1.05-1.05-.69-6.12-1.7-9.14-.53-1.6-.1-2.32 1.88-3.23 1.53-.7 2.57-1.99 2.57-3.19 0-1.8-.65-2.02-5.8-2.02zm38.34 9.78c-.42 2.5-.23 5.62.47 7.76.9 2.74 2.26 4.12 5.84 5.93 2.56 1.3 5.55 2.28 6.65 2.2 1.76-.15 2.1-1.17 2.77-8.66.53-5.8.4-9.38-.39-11.3-4.34-9.9-13.77-4.89-15.34 4.07zm27.04-9.18c-3.32 5.3-1.58 15.09-1.58 21.4h13c-.09-7.37-.19-14.75 1.25-22-4.2.16-8.54-.4-12.67.6zm25.27.65c-.38 6.94.06 13.92.29 20.87 1.79-.2 3.57-.4 5.36-.62l.19-21.5c-1.99.05-4.44-.43-5.84 1.25zm55.76-1.25c-1.8 0-3.58.3-3.96.68-.37.37-2.36.71-4.41.75l-3.74.07c0 5.9-.47 11.83.18 17.7.42 2.47.9 2.73 5.64 3.07 6.46.56 11.12 2.04 7.73-5.88-2.47-4.46-2.1-6.27.54-10.35 3.22-4.87 2.23-6.04-1.98-6.04zm211.83 0c-8.83 0-9.44.13-9.44 2.04 0 3.47 3.43 4.76 3.14 11.7 0 3.32-.83 8.3 3.7 8.07 2.6-.3 2.66-.46 2.73-7.64.06-6.64.35-9.1 4.99-9.15 3.44-.26 5.8-2.6 5.03-3.87-.45-.73-4.1-1.15-10.15-1.15zM581.46 30c-1.12.47 1.19 9.3 3.64 11.51a3.8 3.8 0 0 1 1.28 4.05c-1.55 5.95 3.32 6.26 5.42 4.16.77-.77 1.2-4.7 1.2-11v-9.8c-3.74.27-8.36-.24-11.54 1.08zm21.88.2c-.36.58.54 2.1 2 3.35 3.17 2.74 3.24 3.36.66 10.14-1.1 2.9-2 5.7-2 6.25 0 .93 13.35 2.1 14.4-.59.33-.87.6-2.67.6-4 0-1.9-.52-2.42-2.5-2.42-1.56 0-2.5-.56-2.5-1.5.98-4.27 3.28-8.11 5-12.12 0-.24-14.78-.58-15.66.9zM293.8 29.1c-2.2.32-2.31.75-2.59 10.26-.16 5.46-.06 10.52.22 11.25.71 1.86 3.18 2.2 6.49-2.1 1.51-1.97 2.06-1.65 4.88.43 1.62 1.2 3.78 2.03 4.78 1.83 1.64-.3 1.8-1.34 1.55-10.34-.16-5.5-.72-10.44-1.25-11-.64-.65-2-.4-3.98.75-2.75 1.57-3.22 1.6-5.4.16a8.07 8.07 0 0 0-4.7-1.24zm31.24 2.57c-.54 2.24-.54 2.24-3.43.34-1.6-1.05-3.5-1.67-4.25-1.38-1.03.4-1.36 3.17-1.36 11.48 0 10.78.04 10.96 2.24 10.64 1.3-.18 2.39-1.15 2.6-2.32.58-3.21 1.66-3.92 4.48-1.08 6.54 6.16 5.45-4.62 5.27-8.79-.27-5.57-.5-10.5-.54-10.95-.06-.86-4.24-1.14-5.01 2.06zM126.5 29.43l-.52 10c-.3 5.5-.15 10.54.32 11.2 1.14 1.58 5.16.38 5.51-2.95.83-4.63 6.66-6.82 3.04-10.5-.87-.87-.52-1.44 1.44-2.33 3.47-1.58 3.95-4.08 2.89-5.14-4.03-1.17-8.52-.5-12.68-.28zm403.49.4c-.01.33.97 5.2 2.16 10.8 2.01 9.5 2.34 10.23 4.76 10.62 1.42.24 3.94.37 5.59.3 2.67-.1 3.09-.56 3.8-4.12 1.14-5.83 3.71-16.73 3.71-17.64 0-.83-20-.75-20.02.04zm222.28 2.27c1.63 2.73 7.01 4.9 8.07 3.87.47-.46.07-2-.87-3.44-2.86-4.38-9.85-4.9-7.2-.43zm-520.64-2.76c-.9-.34-2.81-.33-4.25.03-2.49.63-2.6.91-2.02 5.36.7 5.34 0 6.52-3.08 8.07-1.92 1.01-2.08 1.53-1.19 3.88 1.79 4.83 4.86 4.84 8.51 1.92 2.44-2.1 2.76-3.15 3.18-10.48.4-6.9.22-8.25-1.15-8.78zm325.6 1.42c-.25.74.35 3.12 1.32 5.3 1.68 3.7 1.69 4.15.12 7.44-.92 1.92-1.67 4.38-1.67 5.47 0 3.04 4.73 2.35 6.04-.1 1.1-2.06 1.12-2.05 3.48.5 1.4 1.5 3.55 3.66 5.37 2.05 1.77-3.86-2.14-8.96-3.93-12.49 1.36-2.9 3.2-5.66 4.04-8.78 0-.87-14.08-1.52-14.77.61zM33.01 29.43c-3.03.95-2.72 19.11-1.79 20.25 1.1 1.32 4.2 1.94 7.42-.2 3.77-2.66 2.8-15.73 2.2-16.84-1.25-2.35-5.65-3.9-7.83-3.2zM386.6 33.1c-3.55 5.05-1.16 17.84 6.43 17.84 1.57 0 3.15.48 3.51 1.07 1.65 2.68 11.76 5.25 5.5-2.75-1.41-1.79-1.94-3.97-1.9-7.76.19-13.9-9.33-14.36-13.54-8.4zm30.01-3.2c-2.3.88-2.4 1.28-2.4 11.02v10.11l6.15-.3c5.51-.26 6.1-.5 5.8-2.29-.61-6.63 1.93-21.72-9.55-18.54zm-338.6.04v10.42c0 7.4-.99 10.55 1.25 10.92 13.32 1.53 14.2-16 6.76-19.83-2.5-1.38-5.24-1.5-8.01-1.5zm265.08.96c-3.52 1.87-6.32 11.03-.43 17.2 3.45 3.58 5.7 3.63 9.55-.2 2.8-2.8 3-3.47 2.59-8.49-.99-11.79-8.55-9.86-11.71-8.5zm23.91-.2c-.89.57-.2 4-.39 10.58-.26 8.66-.1 9.65 1.47 9.65 3.31 0 4.74-1.23 4.93-4.56 0-4.87 9.26-10.12 1.09-15.37-1.17-.64-4.92-1.35-7.1-.3zm-306.44-.59c-10.37-.98-11.45 20.1-1 20.82 1.4 0 3.65-1.1 5-2.45 1.84-1.83 4.53-6.55-.01-6.55-3.73 0-4.08 4.38-5.59 3.47-1.23-.75-1.27-9.16.08-9.99.56-.34 1.88.42 2.93 1.7 1.82 2.2 2 2.24 3.68.58 1.69-1.66 1.68-1.86-.29-4.5-1.18-1.58-3.22-2.9-4.8-3.08zm594.69 0c-5.6-.71-2.62 3.58-.79 6.35 2.2 2.6 2.76 5.94 4 9 1.27 3.04 1.9 3.47 5 3.47 1.95 0 3.55-.36 3.55-.8 0-1.35-.54.43-5.89-10.38-2.7-5.44-4.2-7.4-5.87-7.64zm-213.69 2.05c-1.23 1.92-2.98 5.36.94 11.17 3.55 4.58 2.61 6.5-3 5.92-1.17-.16-7.34-.27-4.56 3.1 2.69 3.29 23.21 2.54 15.06-9.7-2.52-3.2-2.43-3.6-.02-6.22 1.83-1.93 1.86-2.29.45-4.3a5.52 5.52 0 0 0-8.87.03zm67.72 4.2c.08.62 1.85 14.57 7.13 14.57 1.4 0 2.92-.78 3.41-1.75 1.13-2.17 3.5-16.9 2.7-18.23-.4-.65-1.69-.47-3.59.52-2.16 1.12-3.46 1.25-4.87.5a8.5 8.5 0 0 0-3.73-.99c-1.37-.04-1.53.71-1.05 5.38zm197.93-5.42c-2.2 0-9.21 7.23-9.21 8.2 0 .87 3.36 1.3 6.95-.64 2.14-1.18 2.9-1.12 5.85.47 6.02 3.22 8.2.5 1.15-5.43-1.7-1.43-3.84-2.6-4.74-2.6zm-694.26.18c-7.12.25-8.47 11.9-8.95 17.7 0 3.29 3.85 2.2 4.87.37 1.88-3.35 1.9 1.28 6.96 1.73 1.43 0 2.15-.6 2.1-1.75-.05-.96-.61-5.35-1.26-9.75-1.1-7.46-1.35-8.02-3.72-8.3zm668.55.1c-2.88-.29-3.5-.02-3.5 1.52 0 1.03.9 2.7 2 3.68 3.06 2.77 2.15 8.51 0 11.23-1.1 1.4-2 3.16-2 3.9 0 .93 1.29 1.37 4 1.37 2.86 0 4.02-.43 4.07-1.5 0-.05.5-18.3-.44-19.2-.35-.35-2.2-.8-4.13-1zm-48.62.7c-1.71 0-1.88.9-1.88 9.83 0 5.41.3 10.14.67 10.5.36.37 2.18.67 4.03.67 5.47 0 4.37-3.29 2.43-5.36-2.87-3.28-2.86-7.97.37-11.82 1.38-1.63 2.5-3.44 2.5-4.02 0-1.48-4.88.2-8.12.2zm98.69 17.02c-10.73 0-11.57.14-11.57 1.92 0 1.05.44 2.07.98 2.25.53.18 5.6.1 11.24-.17 8.74-.42 9.48-.76 9.78-2.25.3-1.58.06-1.75-10.43-1.75zM31 3.3c0 1.91.56 3.7 1.25 3.98 3.15 1.28 8.25.65 7.58-4.53C39.55.81 38.82.39 34.92.11 31-.18 31-.18 31 3.3ZM8.18.81c1.29 6.7-.87 14.94 2.12 21.27.32.2 3.23 1.9 4.08-3.99.7-5.53.87-11.1 1.12-16.67L8.18.82Zm550.65 1.77c-2.5 2.25-2.89 15.28.17 18.34 3.01 2.9 6.67 2.1 8.03.47 1.1-1.33 2.75-14.83-.48-18.42-3.54-3.88-7.12-.93-7.72-.39zm22.69 9.38c3.33 6.43-3.45 5.33.92 8.52 7.97 5.96 15.91-10.33 9.1-17.1-5.42-5.42-14.86-.76-10.02 8.58zM509 8.41c-3.61 10.94 6.09 16.88 11.46 11.55 3.45-3.78-.9-11.59 1.58-14.58 4.65-5.65-9.69-6.75-13.04 3.03zm216.67-4.25c-1.9 2.56-1.92 2.84-.35 4.58 2.73 3.02 1.1 12.3 2.35 13.52 2.83 2.19 5.14-1.41 5.33-5.26 0-1.36.65-2.07 1.88-2.07 4.86 0 5.24-7.16.71-11.92-4.42-4.14-8.61-.61-9.92 1.15zM55.45 4.11c-7.59 7.42-3.26 13.96-1.07 14.84 1.17.47 3.58.88 5.37.92 4.25.17 4.3-4.34 5.85-7.55 2.07-4.23 2.4-5.87 1.67-8.1-.76-2.3-1.59-2.84-4.7-3.1-3.1-.27-4.29.24-7.12 3zm338.9-2.98c-1.7-.24-2.41.46-3.36 3.34-.88 2.67-.9 3.95-.1 4.76 1.58 1.55.78 11.04 1.78 12.04.77.8 4.2 1.11 4.87-.58.26-.7.13-5.3-.29-10.25-.68-8.18-.95-9.03-2.9-9.3zm19.85 5.5a3.89 3.89 0 0 0 1.19 3.21c1.3 1.08 1.17 1.81-.95 5.81-1.34 2.52-2.44 5.2-2.44 5.93 0 1.02 1.87 1.36 7.5 1.36 6.49 0 7.5-.24 7.46-1.75-.04-3.63-3.33-4.4-1.69-9.79.55-1.8.7-4.44.34-5.9-2.43-7.66-10.77-2.97-11.41 1.12zM200.33 1.2c-1.26-.42-2.78 2.48-.37 7.88 2.5 5.56.9 7.55-.57 8.93-2.08 1.75-1.38 3.52-.21 4.7.89.88 1.51.9 2.56.01 8.64-7.07.66-20.83-1.41-21.52zm290.84.13-7.67.26v8.3c0 7.85.14 8.4 2.83 10.65 1.48 1.25 5.8 4.24 9.67.38 3.3-3.3 1.16-9.6 2.97-14.43.54-1.4.73-3.2.42-3.98-.42-1.1-2.31-1.37-8.22-1.18zM438 5.05c0 1.21.71 1.88 2 1.88 1.55 0 3.36.46 0 4.73-2.94 3.74-1.94 10-1.25 10.7.95.97 7.28-.07 8.56-1.33.6-.6 2.98-14.68-.11-17.37-4.86-3.93-8.97-2.57-9.2 1.4zM126.69 2.17c-2.5 1.85-3.17 15.72-1.45 18.08 1.8 2.47 11.25 4.5 13.13 4.6 1.5.06 1.72-.36 1.13-2.17-.4-1.23-.7-3.47-.66-4.96a5.7 5.7 0 0 0-2.38-4.64c-3.98-3.13-1.69-7.47-3.23-9.76-.47-.72-3.54-3.08-6.54-1.15zm99.51 8.2c4.49 1.9 5.8.8 5.8-2.92 0-12.32-16.25-1.43-5.8 2.92zM473 1.68c-3.46.55-7 .96-10.23 2.37-1.7.92-1.87 1.7-1.27 5.72.38 2.56.9 5 1.16 5.41.25.41 1.1.75 1.9.75 2 0 1.07 3.3 2.11 4.34.66.66 5.16 1.42 5.95-1.09.3-.96 1.06-2.79 1.67-4.06.83-1.73.8-2.8-.09-4.24-1.44-2.84-1.2-6.1-1.2-9.2zm274.93 6.08c-2.38 8.02 1.52 16.2 8.3 16.17 2.88 0 3.62-.57 5.69-4.35 1.88-3.45 2.27-5.32 1.85-9.04-1.44-12.38-13.37-10.97-15.84-2.78ZM78.59 12.53c.42 2.21.25 3.4-.47 3.4-.61 0-1.11.52-1.11 1.16 0 1.44 4.68 7.84 6.36 7.84 5.34 0 9.6-18.62-.28-23-2.46.66-5.36 5.62-4.5 10.6zm101.43-10.6c-.6 0-4.35 4.02-5.7 10.46-1.07 6.61 5.68 11.54 5.73 11.54.78 0 3.31-1.58.18-7.03l-2.12-3.69 2-3.72c2.88-5.4.6-7.56-.09-7.56zm186.02 18.03c9.84 8.6 20.4-9.7 10.67-16.53-10.6-6.29-17.99 8.7-10.67 16.53zM354.84 2.6c-3.38-.74-5.84 1.32-5.84 2.82 0 2-8 16.33-8 17.06 0 .25 1.1.45 2.43.45 3.3 0 5.57-2.96 5.57-4.34 0-1.65 8-14.69 8-15.15 0-.15-.97-.53-2.16-.84zM531 4.87c0 .51.44 2.08.97 3.48.83 2.18 1.4 2.46 4 1.94 1.67-.34 3.03-.38 3.03-.1 0 .75-5.28 13.65-1.75 15.08.95.39 4.3 1.24 5.35-.5 3.09-4.95-3.07-1.48 5.33-20.84-5.35.68-11.92-1.34-16.93.94Zm-376.81 6.06c.92 0 3.38-4.82 1.91-6.29-3.44-3.5-6.18 6.3-1.91 6.3zm-42.11-4.82c-1.7 1.06-2.46 1.07-4.14.02-5.64-3.4-7.27 3.83-4.94 5.31 1.06.64 1.87 2.96-1.22 5.47-1.94 1.57-2.04 2-.8 3.5a3.9 3.9 0 0 0 3.64 1.25c1.24-.23 2.84-.05 3.57.4 2.37 1.55 3.8.6 4.88-.7 1-1.22 1.05-2.26.2-4.5-.97-2.59-.82-3.14 1.32-4.8 1.8-1.45 3.67-3.8.99-6.07-1.05-.88-1.86-.9-3.5.12zm498.42-.68c-1.72 0-2.01.7-2.09 5-.06 3.24.22 7.93 3.06 6.88.9-.35 1.27-2.3 1.17-6.2-.12-4.96-.4-5.68-2.14-5.68zm-363 3.68c-3.6 3.82-3.16 4.9-.22 8.25 2.8 3.2 3.78 3.4 7.62-.96 3.93-4.5 3.6-5.54 1.1-6.18-1.1-.29-2-1.36-2-2.4 0-2.63-2.82-2.61-6.5 1.3zm430.75-2.03c-1.63 1.63-.05 7.25 1.01 8.6.72.92 7.84 2.81 9.79-.85 1.76-4.04-.6-7.62-1.38-8.13-1.43-.9-7.89-1.15-9.42.38zm22.84-.3c-2.46-.32-2.57 2.33-.38 4.06a57.6 57.6 0 0 0 3.92 2.76c3.53 2.22-3.91 2.04-5.05 5-.8 2.05.41 3.33 1.33 3.33.96 0 14.1-4.58 15.49-6 4.08-4.08-14.32-9.01-15.31-9.15zm-50.22 5.81c-.87 1.05-.95 2-.26 3.1 1 1.56 12.98 6.3 14.77 6.03 2.25-.33 3.89-2.14-.29-4.54-5.38-3.12-1.87-3.68.89-6.23 1.08-1.08 1.73-2.62 1.43-3.4-1-2.59-15.52 3.8-16.54 5.04zM302.75 9.3a33 33 0 0 1-6.47.62c-3.58.01-4.12.28-3.6 1.76 1.34 3.9 4.63 3.72 6.53 3.46 4.39-.6 5.79-2.07 5.79-4.45 0-1.53-.45-1.88-2.25-1.39zm330.59 3.56c.3 1.48.1 4.65-.45 7.04-.74 3.33-.67 4.55.32 5.18 2.53 1.82 3.3-.58 4.42-2.78 1.64-3.45 1.64-3.7-.03-4.92-1.46-1.07-1.56-1.66-.58-3.48.95-1.77.88-2.5-.33-3.7-1.75-1.77-4.12-1.09-3.35 2.66zm-309.94 5.4c-3.12-1.17-4.3 4.68-.3 4.68 2.84 0 2.14-3.95.3-4.68zm-48.15.87c-2.3.26-2.8.85-3.06 3.56-.27 2.73.02 3.25 1.77 3.25 2.88-.32 3.68-3.69 4.04-6.13 0-.55-1.24-.86-2.75-.68z"/>
  </g>
  <g>
    <path fill="url(#g1)" d="M31 3.3c0 1.91.56 3.7 1.25 3.98 3.15 1.28 8.25.65 7.58-4.53C39.55.81 38.82.4 34.92.11 31-.18 31-.18 31 3.3ZM8.18.81l.56 10.3c.3 5.68 1 10.6 1.56 10.97.32.2 3.23 1.9 4.08-3.99.7-5.53.87-11.1 1.12-16.67L8.18.82Zm550.65 1.77c-1.46 1.31-1.83 3.15-1.83 9 0 6 .36 7.7 2 9.34 3.01 2.9 6.67 2.1 8.03.47.76-.92 1.29-4.49 1.32-8.95.04-5.87-.34-7.85-1.8-9.47-3.54-3.88-7.12-.93-7.72-.39zm22.69 9.38c1.25 2.41 1.3 3.3.25 5-1.09 1.8-1 2.3.67 3.52 2.25 1.68 3.98 1.83 6.62.41 3.78-2.01 7.72-12.3 2.48-17.5-5.43-5.44-14.85-.75-10.02 8.57zm-68.17-9.1c-7.1 4.57-7.53 18.55 2.71 19.06a6.8 6.8 0 0 0 4.4-1.96c3.45-3.78-.9-11.59 1.58-14.58 2.88-3.5-2.28-6.45-8.69-2.53zm212.32 1.3c-1.9 2.56-1.92 2.84-.35 4.58 2.73 3.02 1.1 12.3 2.35 13.52 2.83 2.19 5.14-1.41 5.33-5.26 0-1.36.65-2.07 1.88-2.07 4.86 0 5.24-7.16.71-11.92-4.42-4.14-8.61-.61-9.92 1.15zM55.45 4.11c-7.59 7.42-3.26 13.96-1.07 14.84 8.74 2.95 8.06-.07 11.22-6.63 1.7-3.49 4.76-10.54-3.02-11.2-3.11-.27-4.3.24-7.13 3zm338.9-2.98c-1.7-.24-2.41.46-3.36 3.34-.88 2.67-.9 3.95-.1 4.76 1.58 1.55.78 11.04 1.78 12.04.77.8 4.2 1.11 4.87-.58.26-.7.13-5.3-.29-10.25-.68-8.18-.95-9.03-2.9-9.3zm19.85 5.5a3.89 3.89 0 0 0 1.19 3.21c1.3 1.08 1.17 1.81-.95 5.81-1.34 2.52-2.44 5.2-2.44 5.93 0 1.02 1.87 1.36 7.5 1.36 6.49 0 7.5-.24 7.46-1.75-.01-.97-.63-2.83-1.36-4.15-.98-1.77-1.06-3.24-.33-5.64C429-.8 415.32-.6 414.2 6.62ZM200.33 1.2c-1.26-.42-2.78 2.48-.37 7.88 2.5 5.56.9 7.55-.57 8.93-2.08 1.75-1.38 3.52-.21 4.7.89.88 1.51.9 2.56.01.77-.63 2.04-2.4 2.83-3.93 1.37-2.85 2.52-6.54-.87-12.89-1.26-2.39-2.77-4.5-3.37-4.7zm283.17.4v8.28c0 7.86.14 8.4 2.83 10.66 1.48 1.25 5.8 4.24 9.67.38 3.3-3.3 1.16-9.6 2.97-14.43.54-1.4.73-3.2.42-3.98-3.82-2.68-11.27-1.08-15.89-.92ZM438 5.04c0 1.21.71 1.88 2 1.88 1.55 0 3.36.46 0 4.73-2.94 3.74-1.94 10-1.25 10.7.95.97 7.28-.07 8.56-1.33.6-.6 2.98-14.68-.11-17.37-4.79-3.87-8.97-2.66-9.2 1.4zM126.69 2.17c-1.24.92-1.84 3.3-2.22 8.78-.56 8.07-.53 10.37 7.05 12.44 2.08.28 9.17 3.46 7.98-.89-1.27-3.9.37-6.97-3.04-9.42-3.98-3.13-1.69-7.47-3.23-9.76-.47-.72-3.54-3.08-6.54-1.15zM223 6.55c0 1.84.82 2.83 3.2 3.82 4.49 1.9 5.8.8 5.8-2.92 0-1.8-.56-3.7-1.25-4.24-3.64-2.91-7.3-1.35-7.75 3.34ZM473 1.7c-3.46.53-7 .94-10.23 2.35-1.7.92-1.87 1.7-1.27 5.72.38 2.56.9 5 1.16 5.41.25.41 1.1.75 1.9.75.8 0 1.44.83 1.44 1.84 0 1 .3 2.13.67 2.5.66.66 5.16 1.42 5.95-1.09.3-.96 1.06-2.79 1.67-4.06.83-1.73.8-2.8-.09-4.24-1.44-2.84-1.2-6.1-1.2-9.18Zm279.15.81c-4.74 2.26-5.28 8.27-4.72 12.94.7 3.18 3.19 8.5 8.8 8.48 2.88 0 3.62-.57 5.69-4.35 5.18-9.5-.07-21.16-9.77-17.07zM78.59 12.53c.42 2.21.25 3.4-.47 3.4-3.62 0 3.41 9 5.25 9 .7 0 2.26-1.27 3.4-2.88C92 14.6 88.26 4.22 83.09 1.93c-2.46.66-5.36 5.62-4.5 10.6Zm101.43-10.6c-.6 0-4.35 4.02-5.7 10.46-1.07 6.61 5.68 11.54 5.73 11.54.56 0 1.31-.75 1.67-1.67.3-3.28-2.04-6.32-3.61-9.05l2-3.72c2.88-5.4.6-7.56-.09-7.56zM363.4 9.7c-.34 1.74-.34 4.32.02 5.73 2.74 9 13.76 8.63 16.59.01a9.68 9.68 0 0 0 0-7C377.13-.35 365.93-.68 363.4 9.7zM349 5.42c0 2-8 16.33-8 17.06 0 .25 1.1.45 2.43.45 3.3 0 5.57-2.96 5.57-4.34 0-1.65 8-14.69 8-15.15 0-1.09-8-1.8-8 1.98zm182-.55c0 .51.44 2.08.97 3.48.83 2.18 1.4 2.46 4 1.94 1.67-.34 3.03-.38 3.03-.1 0 .27-.67 2.4-1.5 4.74-1.91 5.46-1.85 9.7-.25 10.34.95.39 4.3 1.24 5.35-.5 1.15-1.84.35-9.31 3.27-16.09l2.06-4.75c-5.35.68-11.92-1.34-16.93.94Zm-377.43-.6c-2.25.85-2.2 6.66.62 6.66 1.65 0 4.35-8.57-.62-6.66zm-45.63 1.86c-5.64-3.4-7.27 3.83-4.94 5.31 1.06.64 1.87 2.96-1.22 5.47-4.23 3.43 1.33 5.03 2.84 4.75 1.24-.23 2.84-.05 3.57.4 2.37 1.55 3.8.6 4.88-.7 1-1.22 1.05-2.26.2-4.5-.97-2.59-.82-3.14 1.32-4.8C115.9 11 117 9.46 117 8.65c-.22-1.93-1.8-3.38-2.99-3.32-2.27.1-2.73 2.88-6.07.8zm502.56-.7c-1.72 0-2.01.7-2.09 5-.05 2.75.32 5.54.82 6.2 3.53 2.93 3.44-3.45 3.41-5.52-.12-4.96-.4-5.68-2.14-5.68zm-358.25.5c-2.3 0-7.82 6-7.47 7.63.37 1.6 4.34 6.33 5.87 6.35 1.51.02 7.35-6.75 7.35-8.1 0-.59-.9-1.3-2-1.59-1.1-.29-2-1.36-2-2.4 0-1.13-.7-1.89-1.75-1.89zm426 1.15c-1.63 1.63-.05 7.25 1.01 8.6.72.92 7.84 2.81 9.79-.85 1.76-4.04-.6-7.62-1.38-8.13-1.43-.9-7.89-1.15-9.42.38zm22.84-.3c-1.16-.15-1.54.17-1.81.87-.6 1.58.7 2.96 5.35 5.95 1.72 1.08 1.62 1.26-1.3 2.32-5.82 2.1-4.1 6.01-2.42 6.01.96 0 14.1-4.58 15.49-6 .74-.74.73-1.57-.02-2.77-1.22-1.93-12.6-6-15.29-6.38zm-35.52.07c-2.88.4-13.36 4.1-14.7 5.74-.87 1.05-.95 2-.26 3.1 1.07 1.67 13.08 6.28 14.77 6.03 2.25-.33 3.89-2.14-.29-4.54-5.38-3.12-1.87-3.68.89-6.23 1.46-1.46 2.67-4.5-.41-4.1zM302.75 9.3a33 33 0 0 1-6.47.62c-3.58.01-4.12.28-3.6 1.76 1.34 3.9 4.63 3.72 6.53 3.46 4.39-.6 5.79-2.07 5.79-4.45 0-1.53-.45-1.88-2.25-1.39zm330.59 3.56c.3 1.48.1 4.65-.45 7.04-.74 3.33-.67 4.55.32 5.18 2.53 1.82 3.3-.58 4.42-2.78 1.64-3.45 1.64-3.7-.03-4.92-1.46-1.07-1.56-1.66-.58-3.48.95-1.77.88-2.5-.33-3.7-1.75-1.77-4.12-1.09-3.35 2.66zm-309.94 5.4c-3.12-1.17-4.3 4.68-.3 4.68 2.84 0 2.14-3.95.3-4.68zm-48.15.87c-2.3.26-2.8.85-3.06 3.56-.27 2.73.02 3.25 1.77 3.25 1.32 0 2.45-.94 3.07-2.56.53-1.4.97-3.02.97-3.57 0-.55-1.24-.86-2.75-.68z"/>
    <path fill="url(#g2)" d="M270 28.82V52.8c2.67.54 12.97 1.56 13.82.2.79-1.23 1.04-3.3.22-4.13-.62-.62-2.36-1.46-4.2-1.84-3.2-.66-3.34-.9-3.3-5.15.03-2.44.25-6.25.5-8.45.46-4 .45-4-3.29-4.3zm228.89.02-14.37.6c.8 5.67-.93 12.71 2.27 17.8 2.09 2.3 6.81 2.09 9.26-1.3 2.57-5.22 2.42-11.4 2.84-17.1zm-389.69.08c-3.2 0-6.34.54-7 1.2-1.78 1.78-1.26 19.41-.53 20.14.19.19 11.33 2.22 11.33-1.17 0-1-.34-2.17-.75-2.59-1.05-1.05-.69-6.12-1.7-9.14-.53-1.6-.1-2.32 1.88-3.23 1.53-.7 2.57-1.99 2.57-3.19 0-1.8-.65-2.02-5.8-2.02zm38.34 9.78c-.42 2.5-.23 5.62.47 7.76 1.74 4.74 7.62 7.72 12.49 8.13 1.76-.15 2.1-1.17 2.77-8.66.53-5.8.4-9.38-.39-11.3-4.36-9.93-13.78-4.87-15.34 4.07zm27.04-9.18c-1.3.5-1.58 2.45-1.58 11v10.4h13c-.07-7.37-.19-14.75 1.25-22-4.2.16-8.54-.4-12.67.6zm25.27.65c-.38 6.94.06 13.92.29 20.87 1.79-.2 3.57-.4 5.36-.62l.19-21.5c-1.99.05-4.44-.43-5.84 1.25zm51.8-.57c-2.53 1-5.45.77-8.15.82 0 5.9-.47 11.83.18 17.7.42 2.47.9 2.73 5.64 3.07 6.46.56 11.12 2.04 7.73-5.88-2.47-4.46-2.1-6.27.54-10.35 1.43-2.16 2.3-4.4 1.95-4.98-.87-1.4-7.04-1.23-7.89-.38zm215.79-.68c-8.83 0-9.44.13-9.44 2.04 0 3.47 3.43 4.76 3.14 11.7 0 3.32-.83 8.3 3.7 8.07 2.6-.3 2.66-.46 2.73-7.64.06-6.64.35-9.1 4.99-9.15 11.98-3.73.57-4.98-5.12-5.02zM581.46 30c-.86 1.36 1.19 9.3 3.64 11.51a3.8 3.8 0 0 1 1.28 4.05c-1.55 5.95 3.32 6.26 5.42 4.16 2.01-6.5 1.2-14 1.2-20.8-3.74.27-8.13-.77-11.54 1.08zm21.88.2c-.36.58.54 2.1 2 3.35 3.17 2.74 3.24 3.36.66 10.14-1.1 2.9-2 5.7-2 6.25 0 .93 13.35 2.1 14.4-.59.33-.87.6-2.67.6-4 0-1.9-.52-2.42-2.5-2.42-2.46 0-3.8-.3 0-8.2a90.5 90.5 0 0 0 2.5-5.42c0-.24-14.78-.58-15.66.9zM293.8 29.1c-2.2.32-2.31.75-2.59 10.26-.16 5.46-.06 10.52.22 11.25.71 1.86 3.18 2.2 6.49-2.1 1.51-1.97 2.06-1.65 4.88.43 1.62 1.2 3.78 2.03 4.78 1.83 1.64-.3 1.8-1.34 1.55-10.34-.16-5.5-.72-10.44-1.25-11-.64-.65-2-.4-3.98.75-2.75 1.57-3.22 1.6-5.4.16a8.07 8.07 0 0 0-4.7-1.24zm31.24 2.57c-.54 2.24-.54 2.24-3.43.34-1.6-1.05-3.5-1.67-4.25-1.38-1.03.4-1.36 3.17-1.36 11.48 0 10.78.04 10.96 2.24 10.64 1.3-.18 2.39-1.15 2.6-2.32.58-3.21 1.66-3.92 4.48-1.08 1.57 1.57 3.19 2.33 4.16 1.95 1.36-.52 1.52-2.1 1.11-10.74-.27-5.57-.5-10.5-.54-10.95-.06-.86-4.24-1.14-5.01 2.06zM126.5 29.43c.33 6.9-2.05 14.42-.2 21.2 4.83 2.85 5.45-4.66 7.76-7.25 2.65-2.38 2.1-4.88.79-6.2-.87-.87-.52-1.44 1.44-2.33 3.47-1.58 3.95-4.08 2.89-5.14-4.03-1.17-8.52-.5-12.68-.28zm403.49.4c-.01.33.97 5.2 2.16 10.8 2.01 9.5 2.34 10.23 4.76 10.62 1.42.24 3.94.37 5.59.3 2.67-.1 3.09-.56 3.8-4.12 1.14-5.83 3.71-16.73 3.71-17.64 0-.83-20-.75-20.02.04zm225.44-.5c-1.27-.32-2.78-.3-3.35.05-1.58.97.89 4.56 4.42 6.1 1.65.72 3.38.94 3.84.5 1.07-1.05-1.85-5.88-4.91-6.65zm-523.8.01c-.9-.34-2.81-.33-4.25.03-2.49.63-2.6.91-2.02 5.36.7 5.34 0 6.52-3.08 8.07-1.92 1.01-2.08 1.53-1.19 3.88.4 1.04 1.61 4.2 4.6 4.24.66 0 2.42-1.04 3.91-2.32 2.44-2.1 2.76-3.15 3.18-10.48.4-6.9.22-8.25-1.15-8.78zm325.6 1.42c-.25.74.35 3.12 1.32 5.3 1.68 3.7 1.69 4.15.12 7.44-.92 1.92-1.67 4.38-1.67 5.47 0 3.04 4.73 2.35 6.04-.1 1.1-2.06 1.12-2.05 3.48.5 3.13 3.38 5.42 2.85 6.08 1.16-.3-4.14-2.79-7.95-4.64-11.6 1.36-2.9 3.2-5.66 4.04-8.78 0-.87-14.08-1.52-14.77.61zM32 29.7c-1.43.45-.82 1.93-1.26 9.51-.33 5.62-.14 9.71.48 10.47 1.1 1.32 4.2 1.94 7.42-.2 3.77-2.66 2.8-15.73 2.2-16.84-1.25-2.35-6.66-3.63-8.84-2.94Zm354.6 3.4c-3.55 5.04-1.16 17.83 6.43 17.83 1.57 0 3.15.48 3.51 1.07 1.65 2.68 11.76 5.25 5.5-2.75-3.32-4.21-.76-10.95-3.4-16.04-3.07-5.93-9.3-4-12.04-.12zm30.01-3.2c-2.3.87-2.4 1.27-2.4 11.01v10.11l6.15-.3c5.51-.26 6.1-.5 5.8-2.29-.66-6.77-.02-14.6-1.47-16.35-1.97-2.01-4.88-3.3-8.08-2.19zm-338.6.03v10.42c0 7.4-.99 10.55 1.25 10.92.06.02 3.4.45 6.34-.95 6.52-3.09 5.1-11.49 4.47-13.6-1.56-5.64-6.97-6.77-12.06-6.79zm265.08.96c-3.52 1.87-6.32 11.03-.43 17.2 3.45 3.58 5.7 3.63 9.55-.2 2.8-2.8 3-3.47 2.59-8.49-.13-7.03-4.95-11.4-11.71-8.5zm24.11.11c-.89.57-.4 3.7-.59 10.28-.26 8.66-.1 9.65 1.47 9.65 3.31 0 4.74-1.23 4.93-4.56 0-1.84.6-3.7 1.35-4.14 4.65-3.53 3.64-8.73-.26-11.23-1.81-1-4.92-1.25-6.9 0zm-311.74.98c-5.8 5.86-2.74 14.65-.4 17.01 5.97 5.52 11.95-2.4 11.95-5 0-1.52-.65-2.06-2.46-2.06-1.46 0-2.92.83-3.56 2.03-.6 1.12-1.5 1.76-2.03 1.44-1.23-.75-1.27-9.16.08-9.99.56-.34 1.88.42 2.93 1.7 1.82 2.2 2 2.24 3.68.58 1.69-1.66 1.68-1.86-.29-4.5-2.58-3.46-6.97-4.2-9.9-1.2zm599.79-1.48c-3.1-.43-3.96 1.43-.83 6.1 2.2 2.6 2.8 5.8 4.04 8.86 1.27 3.04 1.9 3.47 5 3.47 4.25 0 4.02-1.1 2.42-2.73-2.53-2.49-6.88-15.16-10.63-15.7ZM442.5 43.33c3.55 4.58 2.61 6.5-3 5.92-1.17-.16-7.34-.27-4.56 3.1 1.92 2.35 12.1 1.91 14.84.02 3.79-2.7 1.83-7.67.22-9.72-2.52-3.2-2.43-3.6-.02-6.22 1.83-1.93 1.86-2.29.45-4.3-4.2-5.86-15.13.54-7.93 11.2zm73.91 7.6c1.4 0 2.92-.78 3.41-1.75 1.13-2.17 3.5-16.9 2.7-18.23-.4-.65-1.69-.47-3.59.52-2.16 1.12-3.46 1.25-4.87.5a8.5 8.5 0 0 0-3.73-.99c-3.19-.1.24 19.95 6.08 19.95zm190.8-19.99c-2.2 0-9.21 7.23-9.21 8.2 0 .87 3.36 1.3 6.95-.64 2.14-1.18 2.9-1.12 5.85.47 3.35 1.8 6.87 2.1 5.2-1.03-1.16-2.2-6.6-7-8.79-7zm-694.26.18a5.1 5.1 0 0 0-4.17 1.5C6.59 35.11 4 46.32 4 48.82c0 3.29 3.85 2.2 4.87.37.92-1.64 1.07-1.64 2.88 0a7.2 7.2 0 0 0 4.08 1.73c1.43 0 2.15-.6 2.1-1.75-.05-.96-.61-5.35-1.26-9.75-1.1-7.46-1.35-8.02-3.72-8.3zM678 32.74c0 1.03.9 2.7 2 3.68 3.06 2.77 2.15 8.51 0 11.23-1.1 1.4-2 3.16-2 3.9 0 1.83 7.97 2.07 8.07-.13 0-.05.5-18.3-.44-19.2-.03-.03-7.63-2.95-7.63.52Zm-45.12-.82c-1.71 0-1.88.9-1.88 9.83 0 5.41.3 10.14.67 10.5 1.14 1.18 12.25 1.49 6.46-4.69-2.87-3.28-2.86-7.97.37-11.82 5.64-6.3-1.18-4-5.62-3.82zm98.69 17.02c-10.73 0-11.57.14-11.57 1.92 0 1.05.44 2.07.98 2.25.53.18 5.6.1 11.24-.17 8.74-.42 10.3-.76 10.6-2.25.3-1.58-.76-1.75-11.25-1.75z"/>
    <path fill="url(#g3)" d="M463.5 59.3c-1.2 1.81-1.32 2.97-.53 5.05 1.68 5.1.44 8.86 2.6 11 1.9 1.88 3.21 2.1 5.6-.08 2.35-2.14 2.27-5.3.2-6.82-1.5-1.1-1.5-1.4.14-3.9 1.73-2.63 1.71-2.76-.55-5.16-2.08-2.23-4.98-3.9-7.46-.1zm85.96-2.3c-1.69-.54-19.46 1.61-19.46 4.84 0 1.98 2.68 10.3 3.46 14.28.4 1.98 1.26 2.8 3.3 3.1 8.05 1.18 8.48.04 8.63-.54.51-1.94 3.21-16.23 4.22-19.65.35-1.2.53-1.8-.15-2.03zm7.03.3c-1.2.46-1.19 1.3.1 5.63 1.23 4.13 1.28 5.7.3 8.42-.66 1.83-.92 4.06-.58 4.96.5 1.3 2.1 1.62 7.78 1.62 7.12 0 7.14 0 6.53-2.5-1.28-3.9-1.76-7.14-.18-11 1.78-3.8 1.5-5.5-1.51-5.5-2.73 0-4.97 4-6.09 4-.39 0-.85-1.23-1.02-2.74-.44-3.75-3.46-3.45-5.33-2.89zm-430.98.13c.18 6.4-.88 12.95.05 19.32.24.73 1.4 1.18 2.58 1 3.65-1.05 5.1-5.1 6.61-8.18 1.58-2-.01-3.9-.2-4.5-.53-1.65-.14-2.2 1.95-2.73 1.94-.48 2.53-1.2 2.3-2.78-.27-1.92-.93-2.13-6.8-2.13zm120.5.5v20.9c4.1 0 8.45 1 12.46-.16.94-2.9-1.36-6.52-2.17-9.42-.7-3.09 3.56-6.07 2.71-8.42-1.14-3.14-9.3-2.9-13-2.9zm194.34 2.6c-1.42 2.17-1.5 3.12-.54 5.7.95 2.5.9 3.38-.32 4.72-1.84 2.04-1.9 2.87.17 5.15 3.26 3.11 7.48 1.42 8.52.58 2.06-1.71 2.9-3.61 1.38-7.28-.85-2.06-.91-3.47-.2-4.62.73-1.2.55-2.35-.7-4.25-2.23-3.43-6.04-3.46-8.31 0zm238.07-1.23c-.29.76.63 3.07 2.03 5.14 3.05 4.49 3.16 7.65.88 11.53-1.39 2.34-1.45 3.1-.37 4.4 1.99 2.4 4.04 1.57 5.98-.37 1.61-1.6 1.86-2.92 1.45-7.75-.77-9.43-1.33-12.22-3.36-13.3-3.14-1.53-6.05-1.1-6.61.35zM32.31 58.11c-1.61.32-1.76 1.34-1.45 9.84.2 5.21.56 9.82.81 10.23.57.95 4.9 1.05 7.29-.22 2.73-1.47 4.4-7.51-.6-11.33-.74-.44-1.35-2.07-1.35-3.63 0-2.87-1.6-5.29-4.7-4.89zm54.2.32c-2.76 0-2.98.25-2.75 3.23.2 2.66-.25 3.48-2.63 4.71-6.73 3.5-5.38 12.36 3.48 12.56 1.73 0 3.55-.56 4.03-1.25.48-.68.87-5.3.87-10.25v-9zm114.94 1.4c-1.16 1.47.09 3.01-.11 3.54-.67 2-.88 4.14-.63 6.24.75 4.76 2.15 5.25 3.85 4.66 1.55-.6 1.8-2.5 1.14-8.27-.68-2.45-1.32-3.66-.64-4.53 1.55-1.98-1.6-4.21-3.61-1.65zm291.83 1.31c-2.34 2.34-5.3 2-8.28 1.76.27 4.64-1.2 10.26 2.19 14 3.33 3.1 6.47 1.89 8.17.76 2.52-1.84 3.58-8.95 3.62-13.98.5-5.32-2.18-5.49-5.7-2.54zm24.14.27c-1.3 1.97-2 2.28-3.46 1.5-2.37-1.28-5.96-1.15-5.96-.32 0 1 2.7 9.65 3.48 13.6 1.03 5.08 5.96 1.86 6.24 1.5 1.25-1.64 6.28-15.45 6.28-17.32 0-1.77-4.58-2.3-6.58 1.04zm-192.14-1.28c-2.43 1.88-5.5 1-8.28.57.38 6.12.04 13.16.44 16.72.41 3.71 3.11 3.14 4.38.86 1.82-3.24 6.38 1.77 7.81-.56.67-1.08 1-15.55-1.16-17.73-1.19-1.2-1.63-1.26-3.19.14zm-34.78-.7-.29 9.74c-.28 9.53-.23 9.75 1.97 9.75 1.23 0 3.2-1.2 4.37-2.67 3.31-4.14 5.45-1.57 5.45 1.47 0 1.58.3 3.17.67 3.53 1.94.91 4.22.67 6.33.67l-.3-10.47c-.18-5.76-.6-10.76-.94-11.1-5.63-1.05-11.53-.83-17.26-.93zm-59.6-1.15c-6.64-.17-4.48 2-4.68 5.54-.82.82-.13 12.5-1.88 12.5a4.23 4.23 0 0 0-4.34 4.2c0 1.43.81 1.8 3.89 1.8 2.26 0 4.74-.73 5.93-1.75 1.67-1.43 2.1-3.19 2.36-9.75.23-5.83.7-7.45-.16-8.17-.44-.37.52-4.33-1.12-4.37zm40.1 9.6c-.03 7.36.1 8.1 1.75 8.97 2.32 1.26 6.61 1.55 8.24-.4 1.54-1.85.7-4.5-1.85-4.5-1.06 0-2.2-.73-2.53-1.6-.34-.87-.61-3.3-.61-5.4.2-3.24-1.05-4.53-4-4.95-.5 0-.98 3.51-1 7.88zM342.63 62c-3.55 2.82-3.5 7.1 0 9.86 2.41 1.9 5.47 3.07 9.15.52 2.62-1.84 3.65-7.17-.41-10.38-3.35-2.6-5.4-2.6-8.74 0zM633 60.53c-1.95 1.58-2.22 2.75-2.22 9.5 0 5.45.48 8.45 1.63 10.2 2.5 3.83 6.67 2.19 7.07 1.53.4-.65-.3-2.92-1.38-5.3-1.53-3.37-1.79-5.18-1.14-8.07 1.22-5.42 3.49-6.03 2.68-8.15-.75-1.93-3.82-2-6.64.3zm-622.25-.58c-.96 0-2.72.95-3.9 2.14-2.06 2.06-2.08 2.2-.33 3.48 1.52 1.11 1.63 1.73.68 3.83-3.23 7.08 4.99 10.41 8.3 7.1 1.66-1.66 3.07-16.37-4.75-16.55zm408.44.18-3.69.3c.17 6.23-.52 12.55.23 18.75.52.99 2.4.95 4.22-.19.97-.62 1.37-2.33 1.2-5.16-.21-3.59.17-4.58 2.5-6.44 2.72-2.16 2.73-2.23 1-4.88-1.48-2.24-2.38-2.64-5.46-2.38zm-231.92.7-13.77.6-.58 17.5H186c-.22-6.08.3-12.1 1.27-18.1zM60.6 61.6c-4.1 0-6.75 4.89-7.13 6.21-.91 3.2 2.07 10.15 6.78 10.11 6.58.05 6.75-8.12 6.75-8.97 0-3.97-3.48-7.35-6.4-7.35Zm46.72-.65c-2.53-.02-5.33 1.98-5.3 6.3.02 3.82.82 4.98 3.48 6.5 2.56 1.44 3.06 1.71 6.04-1.27 2.96-2.96 2.77-3.6 1.4-7.2-1.27-3.35-2.68-4.3-5.62-4.33zm43.47 1.6c-3.1 3.83-1.4 16-1.02 16.57.3.46 4.83 5.19 9.18 2.47 2.76-4.81 1.83-11.54 2.3-17 .22-2.17-.28-2.57-4.2-3.36-3.97-.8-4.66-.68-6.26 1.32zm218.84-.77c-2.6 1-2.63 1.11-2.63 11.1v10.1l2.75-.33c2.37-.27 2.8-.82 3.05-3.96.17-2.02 1.17-4.43 2.25-5.4 2.01-1.83 3.53-8.38-.42-10.96a4.92 4.92 0 0 0-5-.55zm214.6-.4c-2.46.93-.38 8.56 1.64 11.3 1.11 1.5 1.75 3 1.4 3.34-.9.92-5.27.23-5.27 1.54 0 1.1 4.47 5.07 7.53 5.07 1.65 0 2.58-.86 3.37-3.15 1.35-4.86 1.1-9.96 1.1-14.95-3.14-1.32-6.27-3.3-9.77-3.16zm28.79.55c-5.75 0-7.02.3-7.02 1.6.49 2.63 2.41 4.65 4.01 6.7l-5.09 8.7H620v-3c0-2.33-.44-3-2-3-1.13 0-2-.67-2-1.54 0-.85.9-3.32 2.02-5.5l2.02-3.96zM658 62c-1.8 0-1.53 1.2-1.8 7.83-.35 9.02.4 10.1 1.65 10.1 2.17 0 2.99-3.1 2.82-10-.15-6.77-.86-7.93-2.67-7.93Zm-267.07 1.53c-1.42.76-1.93 2.1-1.93 5.04 0 3.41.45 4.27 3 5.72 2.15 1.23 2.99 2.45 3 4.4 0 3.82 3.16 4.58 5.26 4.02 1.76-.46 1.91-1.1 1.37-5.62-.63-4.84-.62-9.73-.63-14.6-3.38 0-6.87-.24-10.07 1.04zm313.68 6.37c-1.04 1.03-1.63 2.53-1.32 3.34.94 2.48 10.29.3 10.94-.7.4-.6.75-1.6.75-2.23.01-.76-6.65-3.65-10.37-.4z"/>
  </g>
  <g fill="white">
    <path fill="url(#h1)" d="M34 1.93c-.55 0-1 .9-1 2s.45 2 1 2 1-.9 1-2-.45-2-1-2zm3 0c-.55 0-1 .9-1 2s.45 2 1 2 1-.9 1-2-.45-2-1-2zm525.96.44c-1.2-.26-4.23 1.62-4.79 5.05-.18 1.51.1 3.2.63 3.72.62.6.57 2-.12 3.82-.9 2.38-.77 3.22.78 4.92 1.02 1.13 2.63 2.05 3.57 2.05.95 0 2.28-.67 2.96-1.49.7-.83 1.03-2.93.76-4.74-.26-1.78-.1-4.53.34-6.1.68-2.34.38-3.3-1.68-5.35-1.14-1.14-1.82-1.74-2.45-1.88zm-551.94.17c-1 .21-1.02 1.73-1.02 7.53 0 6.32.3 7.86 1.5 7.86 1.06 0 1.5-1.1 1.52-3.75.02-2.06.41-5.4.88-7.4.78-3.37.65-3.7-1.53-4.12-.44-.12-.9-.16-1.35-.12ZM58 4.46c0 .83.1 2.6-1.54 2.65-2.65.1-3.6 1.22-2.21 1.55.96.23 2.05-.57 1.75 1.23-.35 2.1-1.01 1.1-2.25 1.44-2.11.6-2.57 2.17-.48 2 2.86-.25 2.51-.14 1.58 2.85-.83 2.63 2.15 2.17 2.15-.25 0-1.1-.33-2.23 1.12-2 1.42.23.88.88.6 1.95-.7 2.68 1.85 3.32 2.09.5.2-2.4-.13-3.68 2.2-3.05 2.07.54 2.8-1.87.74-1.77-1.51.07-2.06-.1-1.75-1.87.13-.78-.42-1.18 2.33-1.32 1.7-.08 1.05-1.22-.55-1.24-2.18-.02-.8-1.1-.5-2.46.57-2.66-1.6-1.9-1.86.25-.13 1.13-.02 2.04-1.23 2.01-1.32-.03-.77-.9-.48-2C60.42 2.27 58 2.47 58 4.46Zm24 .37c0 1.04-.68 2.15-1.5 2.46-.82.32-1.5 1.46-1.5 2.54s1.35 2.93 3 4.1c1.65 1.18 3 2.78 3 3.57 0 .8-.59 1.43-1.3 1.43-.72 0-1.8-.5-2.41-1.1-.61-.62-1.7-.93-2.42-.69-.92.3-.65 1 .91 2.34C81 20.52 82 21.95 82 22.65c0 .7.45 1.28 1 1.28s1-.56 1-1.26c0-.69.9-1.82 2-2.5 1.1-.7 2-2.17 2-3.3 0-1.2-1.2-2.72-3-3.73-1.64-.94-3-2.47-3-3.4 0-.93.42-1.95.94-2.27.52-.32 1.35.16 1.86 1.07.5.9 1.53 1.45 2.28 1.2 1-.33.77-.96-.86-2.35C85 6.34 84 4.9 84 4.2c0-1.64-2-1.89-2 .63Zm290.1-1.9c-1.1 0-3.25 1.1-4.8 2.41-2.3 1.98-2.8 3.23-2.8 6.9 0 3 .63 5.18 1.9 6.6a7.07 7.07 0 0 0 4.8 2.1c1.74 0 3.87-.99 5.34-2.46 1.81-1.8 2.46-3.54 2.46-6.55 0-3-.65-4.74-2.46-6.54-1.35-1.35-3.34-2.46-4.44-2.46zm69.83 0c-1.88 0-2.93.52-2.93 1.44 0 .8 1.17 1.57 2.67 1.75 1.47.17 2.85.83 3.06 1.47-.58 3.57-2.6 3.94-4.23 5.46-.68.63 2.22 1.7 2.22 1.7 1.5 1.13 1.95 2.13 1.38 3.04-.53.85-1.64 1.1-2.98.68-1.47-.47-2.12-.25-2.12.73 0 .77.3 1.7.67 2.06.36.37 1.3.67 2.06.67a8.9 8.9 0 0 0 3.34-1.03c1.23-.66 1.93-2.1 1.93-3.94 0-1.6-.45-3.2-1-3.53-.63-.39-.44-1.2.5-2.13.87-.92 1.4-2.1 1.5-3.37a5.7 5.7 0 0 0-1.57-3.43c-.87-.86-2.9-1.57-4.5-1.57zm26.77.56c-1.1.43-1.28 1.4-.7 3.95.42 1.87.52 3.64.22 3.94-.3.3-1.2.55-2.01.55-1.09 0-1.3-.76-.86-3 .51-2.56.3-3-1.48-3-1.5 0-1.91.45-1.48 1.58.34.87.61 2.67.61 4 0 1.92.52 2.42 2.5 2.42 2 0 2.5.5 2.5 2.5 0 1.56.57 2.5 1.5 2.5s1.5-.94 1.5-2.5c0-1.55.57-2.5 1.5-2.5.82 0 1.5-.46 1.5-1.03 0-.57-.72-1.3-1.6-1.65-1.25-.47-1.47-1.46-1-4.46.35-2.15.21-3.86-.3-3.86a8.6 8.6 0 0 0-2.4.56zm16.3-.56.01 3.25c.01 1.8.28 4.22.6 5.4.5 1.88.97 2.05 3.62 1.28 1.68-.48 3.44-.63 3.91-.34.47.3.86 1.55.86 2.8 0 1.26-.3 2.58-.67 2.95-.37.36-1.4 0-2.29-.8a4.41 4.41 0 0 0-3.83-.88c-1.21.32-2.21.87-2.21 1.23s1.24 1.41 2.75 2.35c1.51.94 3.51 1.72 4.44 1.74.93.01 2.4-.98 3.25-2.2a11.1 11.1 0 0 0 1.56-5.43c0-1.76-.7-3.9-1.54-4.74-1.03-1.03-2.52-1.35-4.5-.95-2.38.47-2.96.25-2.96-1.16 0-1.5.72-1.68 5-1.27 4.37.42 5 .25 5-1.37s-.84-1.86-6.5-1.86zm101.51 0c-2.4 0-3.76.6-4.5 1.98a7.36 7.36 0 0 0-.42 4.53 6.34 6.34 0 0 0 2.63 3.6c1.09.6 2.8.86 3.8.6 1.5-.4 1.69-.1 1.06 1.6-.42 1.15-1.3 2.26-1.93 2.47-.63.22-1.15-.1-1.15-.73 0-.82-.55-.82-2.06 0-1.66.87-1.83 1.38-.88 2.52.65.8 1.78 1.43 2.5 1.43.73 0 2.5-1 3.95-2.25 3.54-3.05 4.38-9.76 2.1-13.23-1.24-1.88-2.52-2.52-5.1-2.52zm169.34 0c-1.8.1-3.5.8-4.85 2-1.54 1.55-2 3.33-2 7.85 0 4.32.46 6.24 1.75 7.37.96.84 2.42 1.77 3.25 2.07a13 13 0 0 0 3.25.63c.96.05 1.75-.6 1.75-1.42 0-1-1-1.5-2.96-1.5-1.91 0-3.34-.69-4-1.93-.57-1.07-1.04-3.98-1.04-6.48 0-3.74.44-4.83 2.5-6.18 2.32-1.52 2.68-1.52 5 0 2.1 1.38 2.5 2.41 2.5 6.56 0 2.7-.43 5.18-.95 5.5-.53.33-1.08-1.66-1.25-4.59-.2-3.5-.84-5.5-1.97-6.22-1.2-.76-2.1-.67-3.29.3-1.08.9-1.3 1.7-.62 2.36.66.66 1.46.61 2.38-.15.76-.63 1.68-.86 2.04-.5.36.37.66 1.04.66 1.5 0 .46-.88.83-1.96.83-1.09 0-2.46.9-3.05 2.01-.7 1.31-.74 2.61-.12 3.72.57 1.02 2.38 1.8 4.53 1.93 2.76.17 3.85-.26 4.7-1.86.62-1.15.89-3.86.6-6.02-.3-2.16-1.31-4.8-2.27-5.86a7.03 7.03 0 0 0-4.58-1.92zm-23.3.02c-1.41-.27-2.5-.4-3.76.2-1.26.84-2.44 2.25-2.61 3.15-.18.9.04 1.63.5 1.62.45 0 1.45-1.5 2.6-3.13.6-.84 3.31-.87 3.52-.66.66.66 1.2 2.24 1.2 3.5 0 1.85-.55 2.3-2.78 2.3-2.63 0-2.75.2-2.4 4 .51 5.13 2.18 4.85 2.18 1.4 0-2.26.35-2.57 2.5-2.16 1.37.27 2.93-.05 3.47-.7.64-.78.65-2.37.03-4.55-.68-2.35-1.98-4.92-4.45-4.97Zm-505.21.74c-.28.7-.87 1.03-1.3.77-.44-.27-1.8.18-.32 1.7-1.52 2.04-.34 1.6.66 1.6-.14.75.3 1.15 1.29.22 1.8 1.27.57-.45 1.07-.57 1.29.53 1.64.11 1.35-.48-.3-.6-.74-.75-.39-1.66.43-1.12.26-1.43-.53-.94-.66.4-1.2.15-1.25-.59-.06-.95-.18-1.07-.58-.05zm165.64.25c-.51.82-1.87 3.04-.28 3.5 1.1.31.6 4.36.55 7.24-.08 4.4.2 5.25 1.68 5.25 1.58 0 1.72-.82 1.3-7.75-.25-4.26-.88-8.2-1.39-8.74-.75-.8-1.4-.22-1.86.5zm124.5-.83c-2.7.23-4.34 1.08-5.76 2.98-1.12 1.51-2.02 4.38-2.08 6.66-.07 2.65.54 4.73 1.78 6.1 1.04 1.14 2.91 2.08 4.16 2.08s2.98-.7 3.85-1.57a6.16 6.16 0 0 0 1.57-3.78c0-1.2-.7-3.2-1.56-4.42-.85-1.23-2.43-2.23-3.5-2.23-1.07 0-1.93-.33-1.92-.75 0-.4.44-1.42.96-2.25.8-1.24 1.31-1.28 2.99-.24 1.12.7 2.03 1.07 2.03.83 0-.23.28-1.17.63-2.07.53-1.39.03-1.6-3.15-1.34zM416.62 4.45c-.89.9-1.62 2.27-1.62 3.05 0 .8.9 1.43 2 1.43 1.48 0 2-.66 2-2.58 0-1.62.47-2.43 1.25-2.17.69.22 1.4 1.41 1.58 2.64.22 1.53-.81 3.3-3.27 5.62-1.97 1.86-3.86 4.73-4.19 6.36l-.6 2.98 5.62-.13c4.8-.1 5.61-.4 5.61-2.04 0-1.63-.5-1.8-3.5-1.24-2.67.5-3.5.32-3.5-.78 0-.78.85-1.65 1.9-1.92 1.04-.27 2.68-1.7 3.63-3.15 1.35-2.06 1.54-3.37.82-5.87-.69-2.42-1.56-3.3-3.3-3.48a5.8 5.8 0 0 0-4.43 1.28zm-216.58-.02c.02 1.1.67 3.13 1.46 4.5.8 1.42 1.3 3 1.46 4.62.02 1.16-.84 3.24-1.93 4.61-2.67 3.41-.85 3.79.12 3.18.47-.3 1.58-1.9 2.45-3.6a9.93 9.93 0 0 0 .98-6.18A20.21 20.21 0 0 0 202 5.43c-1.67-2.52-1.98-2.61-1.96-1zm-70.54-1c-2.8 0-3.02.28-3.23 4-.13 2.2-.51 5.65-.85 7.66-.54 3.18-.28 3.9 1.93 5.34 1.52 1 3.38 1.4 4.6 1.02 1.2-.38 2.05-.2 2.05.41 0 .6.9 1.07 2 1.07s2-.36 2-.8c0-.44-.52-1.32-1.16-1.96-.87-.87-.87-1.5 0-2.54.9-1.09.72-1.78-.78-3.14-1.06-.97-2.39-1.47-2.95-1.13-.55.35-1.47-.24-2.04-1.3-.78-1.44-.65-2.23.5-3.19.84-.7 1.4-2.2 1.23-3.35-.23-1.59-1.02-2.09-3.3-2.09zm223.45.5c-1.42 0-2.4 1.01-3.19 3.25a82.28 82.28 0 0 1-3.95 8.6c-1.54 2.95-2.81 5.53-2.81 5.75 0 .22.68.4 1.51.4.88 0 2.55-2.34 3.97-5.55a60.6 60.6 0 0 1 4.49-8.4C354.09 6.4 355 4.86 355 4.53c0-.33-.92-.6-2.05-.6zm210.04 0c.48 0 1.14.84 1.47 1.86a6.2 6.2 0 0 1-.04 3.5c-.35.9-1.03 1.64-1.5 1.64-.49 0-1.16-1.1-1.5-2.44-.33-1.34-.31-2.92.04-3.5.36-.58 1.05-1.06 1.53-1.06zm23.49 0c.81 0 1.76 1.13 2.11 2.52.36 1.44.1 3.14-.6 4-.68.81-1.63 1.48-2.11 1.48-.49 0-.88-1.8-.88-4 0-2.86.42-4 1.48-4zM129.75 6.61c-.41 1.75-.47 1.75-1.2.04-.44-.99-.5-2.08-.16-2.42.34-.34.88-.36 1.2-.03.33.32.41 1.4.16 2.41zM177.11 8c-1.56 2.76-2.08 4.88-1.65 6.61.35 1.4 1.35 3.63 2.21 4.95.86 1.31 1.97 2.4 2.46 2.4.48 0 .88-.4.88-.87 0-.48-.9-2-2-3.4s-2-3.3-2-4.24c0-.93.96-3.03 2.12-4.67 2.81-3.94 1.17-6.48-2.02-.78Zm362.32-3.04c-5.75 0-6.42.2-6.42 2 0 1.1.56 2 1.26 2 .69 0 2.71-.43 4.5-.94 1.78-.5 3.24-.65 3.24-.3 0 .32-.87 2.43-1.94 4.67a37.68 37.68 0 0 0-2.6 7.81c-.65 3.55-.54 3.75 1.93 3.75 2.38 0 2.61-.35 2.61-4.02 0-2.22.87-6.5 1.92-9.5l1.93-5.48zm-384.93.12a.83.83 0 0 0-1.17 0c-.32.33-.23 1.65.22 2.93l.8 2.32.37-2.34c.2-1.28.1-2.6-.22-2.9zm-51.13 2.36a4.86 4.86 0 0 0 0 3c.32.83.99 1.5 1.49 1.5s1.46-.67 2.14-1.49c.68-.8.97-2.16.65-3a2.31 2.31 0 0 0-4.28 0zm266.62-1.5c1.08 0 2.72 1.14 3.64 2.54.9 1.4 1.7 4.2 1.77 6.25.1 3.1-.25 3.76-2.08 4.02-1.6.23-2.62-.5-3.75-2.7a16.98 16.98 0 0 1-1.56-6.56c0-2.87.38-3.55 1.98-3.55zm239.79.83a1.86 1.86 0 0 0-.27 2.17c.48.8 1.06.84 1.73.18.55-.55.67-1.53.27-2.18-.48-.78-1.06-.84-1.73-.17zm-499.35 3.56c-1.84 2.42-4.55 5.27-6.03 6.35-1.68 1.23-2.4 2.42-1.93 3.2.53.86 2.17-.24 5.4-3.6 2.55-2.66 5.54-5.34 6.63-5.94 1.72-.95 1.8-1.34.64-2.75-1.23-1.47-1.7-1.16-4.71 2.74zm-4.77-2.63c.28.7.28 1.82 0 2.5-.28.7-.5.13-.5-1.25 0-1.37.22-1.93.5-1.25zM250 9.94c0 1.34-.67 2-2 2-2.49 0-2.92 3.04 0 2.3 1.53-.4 2-.04 2 1.6 0 2.75 2 2.7 2 .1 0-1.33.67-2 2-2 2.6 0 2.66-2-.12-2-1.62 0-2-.46-1.6-2 .78-2.9-2.28-2.5-2.28 0zm433.5-2c-5.88 0-5.88 2 0 2s5.88-2 0-2zm-17.73.43c-.24-.23-3.66.76-7.6 2.22-3.95 1.45-7.17 3.14-7.17 3.75 0 .6 3.27 2.3 7.25 3.76l7.5 2.75c.14.05.25-.49.25-1.2 0-.7-2.46-2.13-5.46-3.15-3.01-1.02-5.27-2.18-5.03-2.57.24-.4 2.49-1.29 4.99-1.99s4.8-1.69 5.13-2.2c.31-.5.37-1.13.14-1.37zm35.46 0c-.23.24-.17.86.14 1.37.32.51 2.63 1.5 5.13 2.2 2.5.7 4.75 1.6 5 2 .23.38-2.03 1.54-5.04 2.56-3 1.02-5.46 2.4-5.46 3.06 0 .81 2.46.33 7.5-1.46 4.12-1.46 7.5-3.16 7.5-3.76 0-.6-3.22-2.3-7.17-3.75-3.94-1.46-7.36-2.45-7.6-2.22zM59 8.93c1.36 0 1.32-.02 1.24.94-.08.9-.06 1.66-1.24 1.56-1.15-.1-1.4-.18-1.25-1.34.16-1.22.22-1.15 1.25-1.16Zm576.5 1.85c-.52 0-1.11.5-1.3 1.08-.2.6.38 1.07 1.3 1.07s1.5-.48 1.3-1.07c-.19-.6-.78-1.08-1.3-1.08zm-337 .15c-2.48 0-4.5.38-4.5.83 0 .46.3 1.14.67 1.5.36.37 2.39.67 4.5.67 2.74 0 3.83-.43 3.83-1.5 0-1.1-1.17-1.5-4.5-1.5zm216.46.5c.8 0 1.73 1.13 2.08 2.5.34 1.38.43 3.06.18 3.75-.24.7-1.08 1.25-1.86 1.25s-1.67-.64-1.97-1.43c-.3-.78-.4-2.47-.22-3.75.18-1.27.98-2.32 1.79-2.32zm241.04 1c.57-.35 1 .5 1 1.94 0 1.4-.45 2.56-1 2.56s-1-.87-1-1.94c0-1.07.45-2.22 1-2.56zm-75.72.43c-.4-.04-.9.4-1.09 1-.22.66 1.4 1.07 4.23 1.07 5.91 0 5.72-2 1.08-2-1.93 0-3.83-.03-4.22-.07zm-69.47.3c-.65.22-1.36.93-1.58 1.58-.22.66.32 1.2 1.19 1.2a1.6 1.6 0 0 0 1.58-1.6c0-.86-.53-1.4-1.19-1.18zm-482.19.82c.3-.3 1.18.33 1.96 1.4.78 1.06 1.42 2.3 1.42 2.74 0 .45-.62.81-1.38.81-.76 0-1.65-1-1.96-2.2-.32-1.22-.34-2.45-.04-2.75zm434.44.95c.52 0 .94 1.13.94 2.5 0 1.38-.46 2.5-1.03 2.5-.57 0-1.28-.65-1.59-1.45-.3-.8-.27-1.92.1-2.5.35-.58 1.06-1.05 1.58-1.05zm-452.09 2c-1.12 0-2.31.72-2.65 1.6-.34.88-.02 1.97.7 2.41.71.44 1.9.58 2.64.3.74-.29 1.34-1.37 1.34-2.42 0-1.23-.7-1.89-2.03-1.89zm.78 1.42c.34.34.14 1.1-.45 1.7-.72.7-1.28.72-1.7.04-.35-.56-.14-1.32.45-1.69.6-.37 1.36-.4 1.7-.05zm524.7.2c-.78-.3-1.7.68-2.32 2.44-.76 2.2-.72 2.94.17 2.93.66 0 1.7-1.1 2.33-2.44.87-1.89.84-2.54-.17-2.93zm-313.4.38a2 2 0 0 0-1.46.86c-.3.48-.25 1.15.1 1.5.36.35 1.02.64 1.48.64.45 0 .83-.67.83-1.5 0-.82-.42-1.5-.94-1.5zm-310.3.42c-.34-.34-1.1-.32-1.7.05-.6.37-.8 1.13-.45 1.7.42.67.98.65 1.7-.06.59-.6.79-1.35.45-1.7zm262.72.58c-.8 0-1.47.42-1.47.92s-.3 1.7-.66 2.64c-.45 1.16-.23 1.57.66 1.28.72-.24 1.68-1.43 2.12-2.64.6-1.64.44-2.2-.65-2.2zm454.59 0c-.52 0-1.22.45-1.56 1-.34.55.08 1 .94 1s1.56-.45 1.56-1-.42-1-.94-1z"/>
    <path fill="url(#h2)" d="M202.5 29.93c-1.23 0-1.5 1.78-1.5 10 0 9.54.1 10 2.13 10 1.9 0 2.07-.4 1.51-3.75a78.8 78.8 0 0 1-.63-10c0-4.88-.34-6.25-1.51-6.25zm68.5 0v21.9l4.25.37 6.07.56c1.35.13 1.74-.4 1.5-2.08-.28-2-.8-2.2-4.72-1.9l-4.4.32.68-5.83c.38-3.2.95-7.53 1.28-9.59.56-3.53.44-3.75-2.03-3.75zm-157.76.18c-.56-.14-1.5-.07-2.99.18-2.06.34-4.54.62-5.5.63-1.54.01-1.75 1.14-1.75 9.51v9.5h4.5c3.33 0 4.5-.39 4.5-1.5 0-1-1-1.5-3-1.5-2.53 0-3-.39-3-2.5 0-1.83.53-2.5 2-2.5 1.33 0 2-.66 2-2 0-1.33-.67-2-2-2-1.3 0-2-.66-2-1.9 0-1.46.96-2.08 4-2.6 2.65-.44 4-1.2 4-2.22 0-.6-.2-.96-.76-1.1zm362.73.62c-.26-.18-4.18-.17-8.72.02-6.31.25-8.25.67-8.25 1.76 0 .8.96 1.42 2.14 1.42 2.05 0 2.12.33 1.59 7.42-.31 4.08-.3 7.68.02 8 .32.32 1.43.58 2.47.58 1.75 0 1.84-.6 1.2-8.5l-.7-8.5h3.9c2.13-.02 4.54-.45 5.35-.96.81-.5 1.26-1.07 1-1.24zM32 30.93v8.92c0 6.2.38 9.07 1.25 9.42 1.56.9 2.58.28 4.19-.32 1.62-.6 2.56-1.73 2.56-3.06a10 10 0 0 0-1-3.96c-.67-1.26-.67-2.08 0-2.5.55-.34 1-1.85 1-3.36 0-1.5-.54-3.28-1.2-3.94-.66-.66-2.46-1.2-4-1.2zm47.85 0c-.47 0-.85 4.28-.85 9.5v9.5h3c1.67 0 3.89-.89 5-2 1.42-1.4 2-3.33 2-6.56 0-2.52-.44-5.4-.98-6.4s-2.4-2.32-4.15-2.93a15.3 15.3 0 0 0-4.02-1.1zm47.15 0v9.5c0 7.78.27 9.5 1.5 9.5 1.08 0 1.5-1.1 1.5-4 0-3.33.33-4 2-4 1.33 0 2-.66 2-2 0-1.33-.67-2-2-2-1.29 0-2-.67-2-1.87 0-1.4.99-2.03 4-2.5 2.2-.36 4-1.1 4-1.64 0-.54-2.48-.99-5.5-.99zm48.75 0c-.91 0-1.26 2.6-1.28 9.5-.03 8.46.16 9.5 1.75 9.5 1.41 0 1.78-.83 1.78-4 0-2.2.45-4 1-4s1 1.8 1 4c0 3.6.25 4 2.5 4 2.5 0 2.5-.03 2.5-9.5 0-8.83-.14-9.5-2-9.5-1.56 0-2 .67-2 3 0 2.34-.44 3-2 3s-2-.66-2-3c0-1.73-.53-3-1.25-3zm52.84 0c-2.38 0-2.4.07-1.85 8 .39 5.66.21 8-.6 8-.63 0-1.14-.67-1.14-1.5 0-.82-.67-1.5-1.5-1.5-.82 0-1.5.48-1.5 1.07 0 .58.47 1.93 1.04 3 .56 1.06 1.44 1.93 1.94 1.93s2.03-1 3.4-2.25c2.1-1.88 2.54-3.24 2.68-8.25.1-3.3.13-6.56.06-7.25-.07-.69-1.2-1.25-2.53-1.25zm17.91 0c-1.23 0-1.5 1.72-1.5 9.5 0 8.84.14 9.5 2 9.5 1.68 0 2-.67 2-4.17 0-2.29.28-3.89.62-3.55.33.34.91 2.1 1.28 3.92.54 2.64 1.21 3.37 3.39 3.62 1.74.2 2.7-.15 2.68-1-.02-.73-1.12-3.09-2.45-5.25l-2.41-3.93 2.94-3.35c1.62-1.85 2.95-3.8 2.95-4.32 0-.53-1.09-.97-2.42-.97-1.87 0-2.68.78-3.55 3.41-.62 1.88-1.78 3.66-2.58 3.97-1.12.43-1.45-.35-1.45-3.4 0-2.87-.42-3.98-1.5-3.98zm81.5 0c-.55 0-1 1.9-1 4.2v4.2l-3.8-3.7c-2.08-2.03-4.33-3.7-5-3.7-.86 0-1.2 2.86-1.2 10 0 8.58.23 10 1.63 10 1.42 0 1.54-.9.94-7-.38-3.85-.46-7-.17-7 .29 0 2 2.7 3.81 6 2.2 4.01 3.91 5.98 5.18 6 1.67 0 1.81-.53 1.25-4.64a84.7 84.7 0 0 1-.64-9.5c0-2.67-.45-4.86-1-4.86zm60.07 2.64A10.92 10.92 0 0 0 386 40c0 2.64.8 4.74 2.66 6.95 2.06 2.44 3.29 3.08 5.38 2.77 1.85-.27 3.08.18 3.85 1.41.62 1 2.05 1.81 3.18 1.81 1.35 0 1.8-.42 1.34-1.25a24.9 24.9 0 0 0-2.25-3.04c-1.03-1.2-1.45-3.4-1.28-6.66.16-2.98-.36-6.08-1.34-7.96-2.96-5.75-7.94-2.4-9.47-.45zm28.08-2.64-.35 8.75c-.19 4.81-.2 9.1-.01 9.5.18.41 1.02.75 1.87.75 1.2 0 1.46-.9 1.17-4-.27-2.77 0-4 .9-4 .81 0 1.27 1.42 1.27 4 0 3.34.33 4 2 4 1.35 0 2-.67 2-2.05 0-1.13-.66-3.33-1.48-4.9-1.3-2.5-1.3-3 0-4.07a4.52 4.52 0 0 0 1.48-3.03c0-1-.7-2.5-1.57-3.38-.87-.86-2.86-1.57-4.43-1.57zm71.99 0c-1.98 0-2.14.52-2.14 6.93 0 4.97.45 7.37 1.57 8.5a5.6 5.6 0 0 0 3.31 1.57c.96 0 2.6-.62 3.64-1.39 1.48-1.08 2-2.97 2.3-8.5.39-6.79.3-7.1-1.8-7.1-2.11 0-2.18.27-1.54 5.84.56 4.81.38 6.15-1.04 7.57-1.26 1.26-1.93 1.4-2.46.55-.4-.65-.5-4.06-.22-7.58.48-6.02.39-6.39-1.62-6.39zm45.75 0c-1.82 0-2.04.45-1.6 3.25.29 1.8 1.11 6.06 1.84 9.5 1 4.68 1.75 6.25 3.01 6.25.93 0 1.92-.56 2.2-1.25.36-.89.75-.93 1.33-.15a5.6 5.6 0 0 0 2.33 1.6c1.16.37 1.75-1 2.62-6.1.62-3.63 1.47-8.1 1.9-9.95.68-2.95.55-3.3-1.13-3-1.45.3-2.03 1.53-2.48 5.36-.38 3.17-.66 3.9-.77 2-.1-1.66-.44-4.02-.77-5.26-.34-1.28-1.38-2.25-2.41-2.25-1.4 0-2.03 1.2-2.76 5.25l-.96 5.25-.12-5.25c-.1-4.63-.37-5.25-2.23-5.25zm26.12 0c-1.97 0-1.99.12-.43 3.75l2.09 4.92c.26.64-.18 2.22-.99 3.5a22.92 22.92 0 0 0-2.17 4.67c-.57 1.9-.37 2.28 1.08 2 1.03-.2 2.14-1.7 2.62-3.59.47-1.79 1.2-3.25 1.62-3.25.42 0 1.31.54 1.97 1.2.66.66 1.2 2.24 1.2 3.5 0 1.63.58 2.3 2 2.3 1.1 0 2-.6 2-1.36 0-.75-1.08-2.95-2.4-4.88l-2.38-3.53 1.89-4.22c.72-1.5 1.35-3.05 1.89-4.62 0-.2-.86-.39-1.92-.39-1.32 0-2.13.94-2.58 3-.36 1.65-1.02 3-1.46 3-.43 0-1.06-1.35-1.39-3-.43-2.15-1.17-3-2.64-3zm24.05 0c-1.8 0-1.85.3-.71 4.25.76 2.68 2.03 4.62 3.43 5.24 1.29.57 2.02 1.61 1.76 2.5-.24.83-.73 2.72-1.08 4.2-.56 2.35-.39 2.6 1.45 2.12 1.77-.46 2.1-1.3 2.1-5.67.01-2.83.3-6.83.63-8.89.56-3.37.4-3.75-1.55-3.75-1.95 0-2.11.37-1.52 3.5.4 2.11.25 3.5-.35 3.5-.55 0-1.28-.7-1.61-1.58a11.5 11.5 0 0 1-.61-3.5c0-1.23-.7-1.92-1.94-1.92zm26.47 0c-4.32 0-5.35.3-4.92 1.43.4 1.03 1.56 1.26 4.22.85 3.63-.57 3.65-.56 1.87 1.46-1 1.12-2.68 4.34-3.75 7.16-1.07 2.82-1.95 5.8-1.95 6.61 0 1.14 1.28 1.5 5.38 1.5 4.74 0 5.46-.28 5.99-2.26.33-1.24.6-2.56.62-2.95 0-.38-1.36-.2-3.04.37-1.68.6-3.29.83-3.57.54-.29-.28.64-3.4 2.05-6.94 1.41-3.53 2.57-6.73 2.57-7.1 0-.37-2.46-.67-5.47-.67zm144.97 2c2.34 2.57 4.41 2.65 2 0-2.34-2.57-4.41-2.65-2 0zm-599.4-1.98c-1.43 0-3.1.34-3.7.75-.6.4-1.62 1.71-2.25 2.92-.63 1.2-1.15 4.27-1.15 6.81 0 2.55.48 5.53 1.06 6.62a7.11 7.11 0 0 0 3.25 2.82c1.22.46 2.97.42 3.94-.1 1.4-.72 1.75-.5 1.75 1.13 0 1.14.66 2.03 1.5 2.03 1.2 0 1.5-1.5 1.5-7.5v-7.5h-4c-3.33 0-4 .34-4 2 0 1.48.67 2 2.57 2 2.06 0 2.5.43 2.25 2.15a5.22 5.22 0 0 1-2.13 3.25c-1.44.88-2.1.71-3.25-.84-.8-1.07-1.4-3.77-1.34-6 .05-2.23.41-5.18.8-6.56.5-1.8 1.38-2.5 3.14-2.5 1.79 0 2.55.62 2.78 2.25.18 1.24.96 2.25 1.75 2.25s1.43-.53 1.43-1.17c0-.64-.74-2-1.65-3a6.48 6.48 0 0 0-4.25-1.8zm150.93.16c-.64-.25-3.55-.03-3.84 2.5a6.07 6.07 0 0 1-1.7 3.33c-1.12.93-1.55.52-2.25-2.18-.67-2.6-1.44-3.4-3.55-3.64-2.36-.28-2.69.03-2.7 2.5 0 1.55-.3 5.85-.64 9.56-.56 5.94-.44 6.75 1.06 6.75 1 .16 2.52.24 2.58-1.6 0-1.04-.23-4.37-.51-7.4l-.5-5.5 1.85 5c1.01 2.75 2.47 5 3.23 5 .76 0 2.16-2.02 3.1-4.5l1.73-4.5.06 6.75c.04 5.31.37 6.75 1.55 6.75 1.23 0 1.5-1.73 1.5-9.57 0-7-.03-8.88-.97-9.25zm34.35 4.46c-.88 2.1-1.23 4.75-.86 6.44.34 1.58 1.98 4 3.63 5.4 1.65 1.38 3.42 2.52 3.93 2.52.5 0 1.8-.89 2.9-1.97a11.58 11.58 0 0 0 2.6-4.5c.35-1.4.34-4.1-.02-6.04-.4-2.12-1.62-4.14-3.1-5.1-.82-.56-6.25-3.57-9.08 3.25zM60.2 31.4c-.1 0-4.62-.34-6.26 5.76a11.7 11.7 0 0 0 .08 7.33c.62 1.88 1.88 3.87 2.8 4.4 2.13 1.24 4.44 1.53 6.38-.7.82-.97 1.78-2.55 2.12-3.5.38-1.1.12-1.76-.7-1.76-.71 0-1.81 1.13-2.44 2.5-1.51 3.37-3.95 2.65-4.7 1.48-.34-.56-.62-3.5-.62-6.56 0-3.05.53-6.19 1.2-6.98.48-.6 2.45-2.64 4.12 1.06.63 1.38 1.52 2.5 1.98 2.5.46 0 .84-.66.84-1.48 0-1.11-2.26-3.69-4.8-4.05zm307.8.53V41c0 8.1.19 9.04 1.75 8.74 1.33-.25 1.67-1.15 1.44-3.82-.24-2.83.14-3.68 2-4.49 1.27-.55 2.45-1.82 2.64-2.83.2-1 .07-2.92-.26-4.25-.5-1.98-1.24-2.42-4.09-2.42zm142.69 0c-.53 0-.61 2.02-.21 4.72a45.8 45.8 0 0 0 2.2 8.44c.97 2.42 2.25 3.85 3.66 4.07 1.19.2 2.24.33 2.34.3.1-.03.82-3.76 1.6-8.3 1.33-7.69 1.31-8.23-.31-8.23-.96 0-2 1.01-2.34 2.25a37.24 37.24 0 0 0-.7 6.75l-.1 4.5-1.37-3a18.08 18.08 0 0 1-1.42-6.05c-.02-1.68-.58-3.59-1.24-4.25-.66-.66-1.61-1.2-2.11-1.2zm144.32 0c-1.98 0-1.97.1.4 3.75a36.2 36.2 0 0 1 3.67 8c1.02 3.51 1.66 4.25 3.7 4.25 2.45 0 2.45 0 .64-2.75a58.1 58.1 0 0 1-3.05-5.25 68.5 68.5 0 0 1-2.28-5.25c-.67-1.76-1.77-2.75-3.08-2.75zm52.5 0c-.61 0-2.64 1.58-4.51 3.5-2.28 2.35-2.89 3.5-1.85 3.5.85 0 2.35-.9 3.35-2s2.27-2 2.84-2c.57 0 2.07.98 3.34 2.17 1.27 1.2 2.62 1.87 3 1.5.37-.38-.61-2.04-2.19-3.68-1.58-1.64-3.37-2.99-3.98-2.99zm-265.34 2c-1.22 2.18-1.2 2.96.23 6 .9 1.93 2.41 4.75 3.37 6.28 1.52 2.44 1.55 2.9.23 3.8-.82.55-3.41.77-5.75.48-2.34-.29-4.25-.15-4.25.3 0 .44.3 1.1.67 1.47.36.37 2.92.67 5.67.67 3.25 0 5.64-.58 6.83-1.65 1-.9 1.83-2.38 1.83-3.26 0-.87-1.57-3.8-3.5-6.52-1.92-2.7-3.5-5.74-3.5-6.74s.65-1.83 1.45-1.83c.8 0 1.86.73 2.36 1.63.65 1.16 1.12 1.3 1.64.46.4-.65.16-1.85-.53-2.68a3.9 3.9 0 0 0-3.25-1.18c-1.18.14-2.73 1.4-3.5 2.77zM11.62 32.68c-1.89.36-2.72 1.55-3.92 5.6a150 150 0 0 0-2.13 7.91c-.45 2.07-.22 2.75.95 2.75.91 0 1.78-1.22 2.14-3 .8-4.04 4.35-4.3 4.35-.17 0 1.56.3 3.14.67 3.5.8.82 2.07.92 2.65-.08.24-.4-.16-4.35-.89-8.75-.44-2.7-.9-5.4-1.38-8.1-.03-.07-1.13.1-2.44.34zm24.39-.24c1.3.8 1.3 5.2 0 6-1.35.83-1.35-6.83 0-6zm313.02 4.6c.6 2.23.82 5.38.46 6.97-.35 1.6-1.05 3.17-1.56 3.48-.5.32-1.37-.6-1.92-2.05-.6-1.7-.94-3.5-.99-5.3.01-1.49.29-3.7.62-4.95.33-1.24.98-2.25 1.44-2.24.47 0 1.35 1.83 1.95 4.08zm46.89-.95c.58 1.61.94 3.3 1.09 5 0 1.02-.45 1.85-1 1.85a1 1 0 0 1-1-1c0-.55-.93-1-2.07-1h-2.07l2.07 2.64c1.14 1.45 2.07 3.02 2.07 3.5 0 .47-.66.86-1.46.86-.81 0-1.94-.87-2.5-1.93-.57-1.07-1.04-3.73-1.04-5.92 0-2.2.27-4.7.6-5.57.74-1.58 3.66-3.1 5.31 1.57zm237.09-3.14v9.5c0 9.46.01 9.5 2.5 9.5 1.63 0 2.5-.57 2.5-1.6 0-1.03-.55-1.4-1.5-1.05-1.25.48-1.5-.66-1.5-6.89 0-5.83.32-7.47 1.44-7.47.8 0 1.72-.45 2.06-1 .36-.58-.66-1-2.44-1zm49 0c-1.65 0-3 .44-3 1 0 .54.92 1 2.04 1 1.9 0 2.03.51 1.75 7.24-.22 5.45-.64 7.25-1.7 7.25-.79 0-1.61.56-1.84 1.25-.27.82.64 1.25 2.67 1.25h3.08v-19zm-261.9.55c.5.3.9 1.65.9 3 0 1.5-.58 2.43-1.5 2.43-.82 0-1.5-.64-1.5-1.42 0-.78.27-2.12.6-2.99.34-.87 1.01-1.33 1.5-1.02zM11.62 34.93c.46 0 .73 3-.58 3-1.3 0 .1-3 .58-3zm360.39 0c.55 0 1 1.13 1 2.5 0 1.38-.45 2.5-1 2.5s-1-1.12-1-2.5c0-1.37.45-2.5 1-2.5zm-288.97.17c1.6.24 2.57 1.27 3.1 3.28a8 8 0 0 1-.43 5.43c-.66 1.37-1.77 2.67-2.46 2.9-.88.28-1.25-.95-1.25-4.1 0-2.48-.29-5.25-.64-6.17-.5-1.3-.14-1.6 1.68-1.34zM36 42.93c1.3 0 1.3 3.7 0 4.5-1.34.83-1.3-4.5 0-4.5zm695.56 7c-6.37 0-10.56.4-10.56 1s3.98 1 9.94 1c5.55 0 10.21-.44 10.56-1 .4-.64-3.16-1-9.94-1z"/>
    <path fill="url(#h3)" d="M466 59.43c0 .83-.45 1.5-1 1.5-1.3 0-1.31 3 0 3 .55 0 1 2.4 1 5.34 0 2.93.3 5.63.67 6 .39.38.9.6 1.43.66.9 0 3.9-2.64 3.9-4.57 0-1.85-2.71-1.96-3.31.32-.25.96-.51-.39-.57-3-.1-3.6.24-4.75 1.38-4.75 1.96 0 1.95-3 0-3a1.5 1.5 0 0 1-1.5-1.5c0-2-2-1.91-2 0zm91 .01c0 .8.7 3.18 1.53 5.3 1.38 3.43 1.38 4.13.01 6.76-.84 1.61-1.53 3.5-1.53 4.18 0 .7.86 1.25 1.92 1.25 1.35 0 2.03-.8 2.25-2.67.18-1.47.86-2.85 1.51-3.06.66-.22 1.9.98 2.78 2.67.87 1.68 2.28 3.06 3.12 3.06 1.14 0 1.36-.6.86-2.25a12.28 12.28 0 0 0-2.03-3.78c-1.13-1.3-1.04-2 .61-4.5 1.08-1.63 1.96-3.53 1.96-4.22 0-.68-.8-1.25-1.77-1.25-1.08 0-2.25 1.24-2.97 3.15-.99 2.61-1.44 2.94-2.65 1.93-.81-.67-1.75-2.5-2.1-4.06-.8-3.68-3.5-4.44-3.5-2.5zm-430-.5v8.5c0 7.56.2 8.5 1.83 8.5 1.44 0 1.74-.6 1.4-2.87-.33-2.25.03-2.97 1.68-3.4 2.7-.7 2.65-2.79.09-3.44-1.3-.35-2-1.37-2-2.9 0-2.07.48-2.4 3.5-2.4 4.67 0 4.93-2-1.5-2zm121.64 0c-1.06 0-1.37 2.14-1.37 9.5 0 8.6.18 9.5 1.87 9.5 1.52 0 1.86-.78 1.86-4.2 0-2.59.36-3.84.92-3.26.51.52 1.07 2.3 1.25 3.95.25 2.27.9 3.08 2.67 3.33 2.05.3 2.25.04 1.62-2a23.1 23.1 0 0 0-2.67-5.1l-1.95-2.75 2.58-3.07c1.42-1.68 2.58-3.48 2.58-3.99 0-.5-1.16-.92-2.58-.92-1.64 0-2.42.46-2.14 1.25.25.7.05 2.04-.45 3s-1.33 1.75-1.87 1.75c-.53 0-.96-1.57-.96-3.5 0-2.29-.47-3.5-1.36-3.5zm291.3 0c-.95 0-2 .7-2.33 1.57-.34.87-.61 2.93-.61 4.56 0 1.73-.42 2.72-1 2.36-.55-.34-1-1.94-1-3.56 0-2.32-.44-2.94-2.1-2.94-1.62 0-1.95.42-1.41 1.75.38.96 1.43 4.8 2.31 8.5 1.25 5.22 2.02 6.75 3.4 6.75 1.33 0 1.84-.85 1.96-3.25.15-3.63.12-3.56.56 0 .33 2.67.84 3.25 2.84 3.25 2.1 0 2.44-.47 2.44-3.29 0-1.8.68-5.88 1.5-9.05.83-3.16 1.5-5.96 1.5-6.2 0-.25-.9-.46-2-.46-1.7 0-2.02.72-2.14 4.75l-.14 4.75-1.02-4.75c-.75-3.43-1.51-4.75-2.76-4.75zm140.56.36c-.91.37-.58 2.63.86 2.63.87 0 1.6 1.7 2 4.64.1.66 1.53 11.36-.36 11.36-1.32 0-1.23 3-.2 3 .45 0 1.65-.6 2.67-1.35 1.64-1.2 1.78-2.3 1.2-9.68-.35-4.59-.98-8.65-1.4-9.04-1.77-1.19-4.1-1.83-4.77-1.56zm-234.55.1c-.57-.35-2.14.08-3.5.97-1.35.9-2.45 2.3-2.45 3.16 0 .86 1.35 2.9 3 4.56 1.65 1.65 3 3.86 3 4.92 0 2.55-1.99 2.3-3.49.27-.7-.95-1.73-1.33-2.42-.9-.91.56-.78 1.24.54 2.7 2.66 2.9 6.64 1.4 7.67-.25.97-1.53 1.05-5.68-2.77-7.88-1.6-.86-2.53-2.22-2.53-3.69 0-3.3 3-2.61 3-.83 0 .83.7 1.5 1.54 1.5 1.2 0 1.31-.4.49-1.94-.5-1-1.22-1.88-2.08-2.59zm-412.17.53c-1.56 0-1.78 1.02-1.78 8.42 0 5.8.39 8.57 1.25 8.92 1.57.91 2.62.26 4.24-.34 2.29-.86 2.6-1.48 2.32-4.75-.25-3.06-.74-3.8-2.66-4.08-2.08-.3-2.3-.77-1.97-4.25.3-3.23.06-3.92-1.4-3.92zm52.72 0c-1.09 0-1.5 1.12-1.5 4.1 0 3.1-.34 3.98-1.38 3.58-1.77-.66-5.62 1.85-5.62 4.3 0 1.02.27 2.57.6 3.44.43 1.11 1.92 1.58 5 1.58H88v-8.5c0-6.89-.28-8.5-1.5-8.5zm330.51.9v8.55c0 6.94.28 8.56 1.5 8.56 1.2 0 1.5-1.5 1.5-7.5 0-4.33.42-7.5 1-7.5.55 0 1 .68 1 1.5 0 1.94 2.25 2.23 1.82-.75-.24-1.72-1.15-2.85-3.73-2.19zm-125 5.5c0 2.94-.28 6.77-.63 8.5-.55 2.74-.35 3.11 1.62 3.11 2.14 0 2.22-.3 1.81-6.72-.39-6.12-.3-6.45.84-3.75.7 1.64 1.29 3.53 1.32 4.22.02.7 1.15 1.25 2.51 1.25 1.93 0 2.68-.7 3.41-3.25.85-2.95.96-3.02 1.12-.75.1 1.38.1 4.64.02 7.25-.15 4.28.05 4.75 2.03 4.75 1.93 0 2.12-.38 1.58-3.12-.35-1.72-.63-6.22-.63-10 0-6.69-.07-6.88-2.53-6.88-2 0-2.64.62-3.12 3-.33 1.65-.96 3-1.4 3-.43 0-1.09-1.35-1.45-3-.55-2.5-1.15-3-3.8-3-2.65.01-2.7.11-2.7 5.38zm201.79 1.35c-.24 5.63-.6 6.8-2.14 7.1-1.65.3-1.82-.23-1.5-4.73.35-5.19-.27-5.8-2.98-6.1-.37 0-.66 2.51-.64 5.6.02 4.33.46 5.91 1.94 7 2.5 1.82 3.83 1.8 6.32-.36 1.53-1.32 2.13-3.38 2.5-8.5.43-6.06.3-6.75-1.32-6.74-1.61 0-1.92.96-2.18 6.73zm26.7-6.73c-2.07 0-2.49.47-2.49 2.84 0 1.57-.53 4.36-1.17 6.2-1.02 2.93-1.26 3.1-1.93 1.4-.42-1.07-.8-3.19-.83-4.7-.05-2.1-.56-2.75-2.19-2.75-1.71 0-2 .43-1.48 2.25.61 2.32 1.18 4.66 1.7 7 .8 3.56 1.53 4.75 2.9 4.75 1.25 0 2.24-1.2 3.06-3.75.67-2.06 2.05-5.89 3.06-8.5l1.85-4.75zm-193.7 3c.24 1.64.01 3-.5 3-.52 0-2-1.13-3.29-2.5-1.3-1.38-2.83-2.5-3.42-2.5-.68 0-1.1 3.14-1.15 8.5-.06 6.76.22 8.5 1.36 8.5 1.17 0 1.3-1.08.74-5.62-.5-3.98-.38-5.4.4-4.93.6.37 2 2.45 3.1 4.6 1.1 2.17 2.66 3.94 3.45 3.94 1.15 0 1.4-1.6 1.23-8-.32-11.96-2.36-7.97-1.92-4.99zm-319.79.02c0 .53.36.96.8.96 1.23 0 2.6-2.48 4.11-1.55.6.37 1.09 1.74 1.09 3.04 0 1.7-.64 2.46-2.25 2.7-1.46.2-2.36 1.12-2.58 2.62-.18 1.26.16 2.9.76 3.6.6.73 2.2 1.1 3.58.84 2.34-.45 2.49-.86 2.49-6.83 0-5.32-.32-6.52-2-7.42-2.95-1.72-6 1.17-6 2.04zm630.5-3.55c-.8-.38-2.9.22-4.41 1.71-2.01 2.42-.72 17.52 1.28 18.84 1.2.78 4.54 1.28 4.63-.33.12-2.25-.9-1.33-1.98-1.6-1.78-.48-1.96-1.32-1.81-8.4.12-5.78.52-7.9 1.48-7.9 1.3 0 1.76-1.89.81-2.32zm-533.3 2.71c-1.57 1.57-1.46 5.43-.16 7.87 1.55 2.94 5.43 1.7 6.38 1.33 2.12-.83 1.78-3.4.7-3.4-.48 0-1.45.7-2.16 1.55-1.02 1.24-1.45 1.3-2.1.25a5.45 5.45 0 0 1-.84-2.05c-.01-.4 1.33-.75 2.98-.75 2.22 0 3-.47 3-1.8 0-.99-.54-2.34-1.2-3a5.2 5.2 0 0 0-6.6 0zm71.3-1.2c-1.2 0-1.5 1.56-1.5 8 0 7.43.15 8 2.08 8 1.79 0 2.03-.5 1.75-3.75-.48-5.55 2.56-5.1 2.98.06.25 2.95.7 3.74 2 3.5 1.38-.27 1.74-1.75 1.98-8.07.28-7.22.16-7.74-1.75-7.74-1.37 0-2.04.66-2.04 2 0 2.67-4 2.88-4 0 0-1.1-.67-2-1.5-2zm98 0c-1.19 0-1.5 1.44-1.5 6.94v6.94l3.75.4c2.06.21 3.86.46 4 .55.14.1.25-.73.25-1.83 0-1.46-.67-2-2.5-2-2.36 0-2.5-.3-2.5-5.5 0-4.22-.35-5.5-1.5-5.5zm72.98.18c-3.3.27-4.1.78-4.94 3.18-.88 2.5-.66 3.14 1.79 5.25 1.53 1.31 3.33 2.4 4 2.4 1.33 0 5.67-2.27 5.67-5.37 0-1.24-.58-3.05-1.29-4.02-.94-1.29-2.35-1.68-5.23-1.44zm-142.52.02-1.28.3c-.47 0-.45 1.98-.55 5-.15 4.53.11 5.5 1.48 5.5 1.35 0 1.54-.67 1.03-3.75-.23-1.4-.43-2.98-.54-4.16-.07-.96-.12-1.92-.14-2.89zm-49.87.15c-6.15 1.38-3.3 9.25.97 9.25 3.26 0 1.93 6.05.49 6.63-.8.3-1.93.26-2.5-.1-.71-.44-.73-1.25-.07-2.49.74-1.38.6-1.99-.58-2.44-.86-.33-1.75-.6-1.98-.6-.23 0-.42 1.34-.42 2.97 0 2.2.7 3.35 2.75 4.47 1.51.83 3.43 1.4 4.25 1.27 1.11-.17 1.67-2.18 2.14-7.72.35-4.12.8-8.12 1-8.9.4-1.63-3.75-2.69-6.05-2.34zm464.01.54-5.3.3c-2.92.17-5.3.76-5.3 1.31 0 1.41 5.5 1.4 5.5 2.1 0 .74-3.3 6.55-5 10.73 0 .21 2.48.4 5.5.4 3.96 0 5.5-.39 5.5-1.37 0-.85-1.15-1.36-3.07-1.36-2.72 0-2.99-.25-2.37-2.25.95-2.65 1.1-3.05 4.54-9.86zM56.66 64.76c-2.85 3.16-1.79 6.97-1.36 8.15a8.07 8.07 0 0 0 3.92 3.43c1.9.67 3.12.56 4.23-.36.86-.7 1.56-1.9 1.56-2.67 0-.76-.68-1.38-1.5-1.38s-1.5.71-1.5 1.57c0 2.18-3.41 1.56-3.83-1.43-.19-1.29-.07-3.42.27-4.74.79-3.14 3.56-2.97 3.56-.4 0 1.34.67 2 2 2 1.1 0 2-.6 2-1.34 0-.74-.82-2.1-1.83-3-2.73-2.4-5.69-1.86-7.52.17zm529.23-2.13c-1.7 0-2 .44-1.51 2.25.33 1.24.6 2.86.62 3.6 0 .74 1.17 3.24 3.01 4.16 3 1.5 4.45 6.61-1.38 5.5 0 0-1.74-1-2.6-.24-.13.98 4.68 3.73 5.62 3.73.78 0 1.6-.56 1.8-1.25.22-.68.63-4.5.92-8.5.43-5.89.25-7.25-.92-7.25-.93 0-1.44 1.06-1.44 3 0 1.65-.45 3-1 3s-1-1.8-1-4c0-3.4-.31-4-2.12-4zm72.12.3c-1.33 0-1.33 16 0 16s1.33-16 0-16zm-286.92.11c-2.56.3-2.6.41-2.8 9.55-.21 8.7-.1 9.25 1.8 9.25 1.82 0 1.97-.44 1.4-4.25-.56-3.79-.38-4.36 1.69-5.25 4.26-1.93 3.65-9.95-2.09-9.3zm-25.45.2c3.53-1.31 5.63 6.47 2.73 7.42-2.54.8-6.57-5.93-2.73-7.42zm-114.42-.17-2.86.7c-2.01.45-1.56 1.14-1.2 6.07.1 2.48.21 5.3.26 6.25.05 1.22-.68 1.76-2.41 1.77-1.56.01-2.61.67-2.82 1.75-.26 1.32.34 1.73 2.49 1.72 1.55 0 3.49-.44 4.31-.96 1.07-.68 1.6-3.28 1.86-9.12zm-124.72.87c1.96 0 1.96 2 0 2s-1.96-2 0-2zm293.5-.38c-2.97.3-6.04.3-8.86 1.36-1.43.86-1.63 5.93.36 7.58.82.68 2.4 1 3.5.71 1.78-.46 2-.03 2 3.89 0 3.82.28 4.4 2.12 4.4 1.7 0 2-.43 1.51-2.25-.33-1.24-.6-5.27-.62-8.97zM156.82 66.7c-.42 2.83-2.64 3.44-3.41 1.46-.32-.84-.3-2 .06-2.58.6-.98 3.85-2.23 3.35 1.12zM372 65.33c1.29.8 1.3 4.2 0 5-1.34.83-1.35-5.82 0-5zm22.5 1.16c2 0 1.7 3.74.64 4.42-2.24 1.38-3.15-4.42-.64-4.42zM11.57 69.93c2.38 0 1.08 4.3-.32 4.76-1.64.52-1.92-4.76.32-4.76zm24.43 0c1.3 0 1.3 5 0 5s-1.3-5 0-5zm668.64 1.5c-.77 2 1.07 1.85 1.65.25.37-1 .72-1 1.78 0 1.72 1.62 4.64 1.53 5.47.2.84-1.41-.38-2.86-1.55-.93-.72 1.17-1.16 1.21-2.15.22-.77-.7-3.67-3.02-5.2.26zm-621.17 3.5c-.84 0-1.8-.7-2.13-1.57-.79-2.06 1.2-3.83 2.57-2.98 1.36.84 1.6 4.55-.44 4.55zm118.42-13.97c.1.9 2.08.8 2.45-.25.71-2.03-2.69-1.57-2.45.25zm25.27-.95c-.28.77-.06 2.11.44 2.3.55.2 1.73-.08 2.85-.64.57-.28.6-1.28.63-1.86.08-1.6-3.61-.63-3.92.2z"/>
  </g>
</svg>
