<svg xmlns="http://www.w3.org/2000/svg" xmlns:xlink="http://www.w3.org/1999/xlink" viewBox="0 0 28 56" width="40" height="80">
  <defs>
    <linearGradient id="g">
      <stop stop-color="#00603f" offset="0"/>
      <stop stop-color="#d97e3a" offset="1"/>
    </linearGradient>
    <linearGradient xlink:href="#g" id="g1" x1="0" y1="13.5" x2="27" y2="13.5" gradientUnits="userSpaceOnUse"/>
    <linearGradient xlink:href="#g" id="g2" x2="0" y1="13.5" x1="27" y2="13.5" gradientUnits="userSpaceOnUse"/>
  </defs>
  <g stroke="#333">
    <path id="s1" fill="url(#g1)" transform="translate(.7 .7)"
     d="M 8.4,1.7 V 4.9 L 6.2,7 H 1.8 L 0.7,9.2 4,12.4 v 3.25 L 0.7,17.8 2.9,21 6.2,19.9 9.5,22 v 3.3 l 3.3,1.1 1.2,-3.4 3.2,-0.9 4.4,2.1 2.2,-2.1 -2.6,-3.4 1.675,-3.55 L 26.5,13.65 26.25,10.7 22.7,10.3 20.5,7 22.7,3.85 19.4,1.7 16,4.5 13.4,4 11.7,0.65 Z m 4.4,5.4 C 17.16,5.245 22,8.36 22,13 22,17.64 17.16,20.755 12.8,18.9 7.52,16.65 7.52,9.35 12.8,7.1 Z"/>
    <path id="s2" fill="url(#g2)" transform="translate(.7 28.7)"
     d="M 8.4,1.7 V 4.9 L 6.2,7 H 1.8 L 0.7,9.2 4,12.4 v 3.25 L 0.7,17.8 2.9,21 6.2,19.9 9.5,22 v 3.3 l 3.3,1.1 1.2,-3.4 3.2,-0.9 4.4,2.1 2.2,-2.1 -2.6,-3.4 1.675,-3.55 L 26.5,13.65 26.25,10.7 22.7,10.3 20.5,7 22.7,3.85 19.4,1.7 16,4.5 13.4,4 11.7,0.65 Z m 4.4,5.4 C 17.16,5.245 22,8.36 22,13 22,17.64 17.16,20.755 12.8,18.9 7.52,16.65 7.52,9.35 12.8,7.1 Z"/>
  </g>
  <g stroke="white" fill="none">
    <path id="p1"
     d="M 8.4,1.7 V 4.9 L 6.2,7 H 1.8 L 0.7,9.2 4,12.4 v 3.25 L 0.7,17.8 2.9,21 6.2,19.9 9.5,22 v 3.3 l 3.3,1.1 1.2,-3.4 3.2,-0.9 4.4,2.1 2.2,-2.1 -2.6,-3.4 1.675,-3.55 L 26.5,13.65 26.25,10.7 22.7,10.3 20.5,7 22.7,3.85 19.4,1.7 16,4.5 13.4,4 11.7,0.65 Z m 4.4,5.4 C 17.16,5.245 22,8.36 22,13 22,17.64 17.16,20.755 12.8,18.9 7.52,16.65 7.52,9.35 12.8,7.1 Z"/>
    <path id="p2" transform="translate(0 28)"
     d="M 8.4,1.7 V 4.9 L 6.2,7 H 1.8 L 0.7,9.2 4,12.4 v 3.25 L 0.7,17.8 2.9,21 6.2,19.9 9.5,22 v 3.3 l 3.3,1.1 1.2,-3.4 3.2,-0.9 4.4,2.1 2.2,-2.1 -2.6,-3.4 1.675,-3.55 L 26.5,13.65 26.25,10.7 22.7,10.3 20.5,7 22.7,3.85 19.4,1.7 16,4.5 13.4,4 11.7,0.65 Z m 4.4,5.4 C 17.16,5.245 22,8.36 22,13 22,17.64 17.16,20.755 12.8,18.9 7.52,16.65 7.52,9.35 12.8,7.1 Z"/>
  </g>
</svg>

