<svg xmlns="http://www.w3.org/2000/svg" xmlns:xlink="http://www.w3.org/1999/xlink" viewBox="0 0 28 68">
  <defs>
    <linearGradient id="g1" x1="16" x2="13" y1="68" y2="47" gradientUnits="userSpaceOnUse">
      <stop offset="0" stop-color="#d38800"/>
      <stop offset="1" stop-color="#a8cca1"/>
    </linearGradient>
  </defs>
  <g fill="none" stroke="white">
    <path d="m 11.7,9.5 11.5,-4 v 2 l -11.5,4 z m 0,4.5 11.5,-4 v 12.1 c 0,0 -5,-0.7 -6.2,4.4 5.7,2.7 9.5,-2.3 9.5,-2.3 V  1.8 L 8.4, 8.2 v 18.9 c 0,0 -5,-.7 -6.2,4.4 5.7,2.7 9.5,-2.3 9.5,-2.3 z" stroke="#333"/>
    <path d="M 10.7,9   22.2, 5 v 2 l -11.5,4 z m 0,4.5 11.5,-4 v 12.1 c 0,0 -5,-0.7 -6.2,4.4 5.7,2.7 9.5,-2.3 9.5,-2.3 V  1.3 L 7.4, 7.7 v 18.9 c 0,0 -5,-.7 -6.2,4.4 5.7,2.7 9.5,-2.3 9.5,-2.3 z"/>
    <path d="m 10.7,43  11.5,-4 v 2 l -11.5,4 z m 0,4.5 11.5,-4 v 12.1 c 0,0 -5,-0.7 -6.2,4.4 5.7,2.7 9.5,-2.3 9.5,-2.3 V 35.3 L 7.4,41.7 v 18.9 c 0,0 -5,-.7 -6.2,4.4 5.7,2.7 9.5,-2.3 9.5,-2.3 z" fill="url(#g1)"/>
  </g>
</svg>
