<svg xmlns="http://www.w3.org/2000/svg" xmlns:xlink="http://www.w3.org/1999/xlink" viewBox="0 0 28 68">
  <defs>
    <linearGradient id="g1" x1="16" x2="13" y1="68" y2="47" gradientUnits="userSpaceOnUse">
      <stop offset="0" stop-color="#d38800"/>
      <stop offset="1" stop-color="#a8cca1"/>
    </linearGradient>
  </defs>
  <g fill="none" stroke="white">
    <path stroke="#333" d="m12.115 9.48 11.448-3.904v1.952l-11.448 3.904zm0 4.392 11.448-3.904v12.2s-5.123-.67-6.28 4.203c4.485 3.347 9.62-2.154 9.62-2.154V2.355L8.775 8.211v18.837s-5.034-.59-6.09 4.203c4.896 3.257 9.43-1.996 9.43-1.996-.013-5.127.025-10.255 0-15.383z"/>
    <path d="m11.115 8.98 11.448-3.904v1.952l-11.448 3.904zm0 4.392 11.448-3.904v12.2s-5.123-.67-6.28 4.204c4.485 3.346 9.62-2.154 9.62-2.154V1.855L7.775 7.711v18.837s-5.034-.59-6.09 4.204c4.896 3.257 9.43-1.996 9.43-1.996-.013-5.128.025-10.256 0-15.384z"/>
    <path fill="url(#g1)" d="m11.115 42.98 11.448-3.904v1.952l-11.448 3.904zm0 4.392 11.448-3.904v12.2s-5.123-.67-6.28 4.204c4.485 3.346 9.62-2.154 9.62-2.154V35.855L7.775 41.711v18.837s-5.034-.59-6.09 4.204c4.896 3.257 9.43-1.996 9.43-1.996-.013-5.128.025-10.256 0-15.384z"/>
  </g>
</svg>
