<svg xmlns="http://www.w3.org/2000/svg" xmlns:xlink="http://www.w3.org/1999/xlink" xml:space="preserve" viewBox="0 0 28 68">
  <defs>
    <linearGradient id="Gradient1" x1="128" x2="124" y1="32.75" y2="12" gradientUnits="userSpaceOnUse" gradientTransform="matrix(1 0 0 1 -102 33)">
      <stop offset="0" stop-color="#d38800"/>
      <stop offset="1" stop-color="#a8cca1"/>
    </linearGradient>
  </defs>
  <g fill="none" stroke="#fff" stroke-width="1">
    <path d="m12.115 9.48 11.448-3.904v1.952l-11.448 3.904zm0 4.392 11.448-3.904v12.2s-5.123-.67-6.28 4.203c4.485 3.347 9.62-2.154 9.62-2.154V2.355L8.775 8.211v18.837s-5.034-.59-6.09 4.203c4.896 3.257 9.43-1.996 9.43-1.996-.013-5.127.025-10.255 0-15.383z" stroke="#3c3c3c"/>
    <path d="m11.115 8.98 11.448-3.904v1.952l-11.448 3.904zm0 4.392 11.448-3.904v12.2s-5.123-.67-6.28 4.204c4.485 3.346 9.62-2.154 9.62-2.154V1.855L7.775 7.711v18.837s-5.034-.59-6.09 4.204c4.896 3.257 9.43-1.996 9.43-1.996-.013-5.128.025-10.256 0-15.384z"/>
    <path d="m11.115 42.98 11.448-3.904v1.952l-11.448 3.904zm0 4.392 11.448-3.904v12.2s-5.123-.67-6.28 4.204c4.485 3.346 9.62-2.154 9.62-2.154V35.855L7.775 41.711v18.837s-5.034-.59-6.09 4.204c4.896 3.257 9.43-1.996 9.43-1.996-.013-5.128.025-10.256 0-15.384z" fill="url(#Gradient1)" />
  </g>
</svg>
